<svg width="128" height="128" viewBox="0 0 128 128" fill="none" xmlns="http://www.w3.org/2000/svg">
<g clip-path="url(#clip0_1_488)">
<path d="M52.23 118.45L50.77 118.09V95.8C50.7761 93.5217 49.9265 91.3242 48.3893 89.6426C46.8522 87.961 44.7397 86.918 42.47 86.72L28.47 85.44V78.64C31.87 77.89 32.64 76.47 41.35 67.74C42.2865 66.8412 42.8531 65.6245 42.9382 64.3292C43.0233 63.034 42.6209 61.7537 41.81 60.74C41.3647 60.1915 40.8081 59.7437 40.1771 59.426C39.5461 59.1082 38.8549 58.9278 38.1491 58.8967C37.4433 58.8655 36.7389 58.9842 36.0824 59.2451C35.4258 59.5059 34.832 59.9029 34.34 60.41L28.42 66.3C28.42 63.11 28.65 61.15 27.42 58.56C29.2032 58.4071 30.9233 57.8265 32.4343 56.8673C33.9454 55.9081 35.2028 54.5986 36.1 53.05L38.1 49.53C38.8328 48.2608 39.3084 46.8596 39.4997 45.4066C39.6909 43.9536 39.5942 42.4771 39.2148 41.0615C38.8355 39.6458 38.1811 38.3188 37.2889 37.1561C36.3967 35.9934 35.2842 35.0178 34.015 34.285C32.7458 33.5522 31.3446 33.0766 29.8916 32.8853C28.4386 32.694 26.9621 32.7908 25.5465 33.1702C24.1308 33.5495 22.8038 34.2039 21.6411 35.0961C20.4784 35.9883 19.5028 37.1008 18.77 38.37C16.59 42.14 13.15 46.68 16.7 52.97C14.4718 53.3256 12.425 54.4114 10.881 56.0567C9.337 57.7021 8.38339 59.8138 8.17 62.06C7.4329 61.4555 6.53836 61.0744 5.59182 60.9614C4.64528 60.8485 3.68618 61.0085 2.82756 61.4226C1.96893 61.8366 1.24657 62.4875 0.745595 63.2985C0.244625 64.1095 -0.0140712 65.0468 -4.73426e-06 66V127C-4.73426e-06 127.265 0.105352 127.52 0.292888 127.707C0.480425 127.895 0.734779 128 0.999995 128H9.13C9.39521 128 9.64957 127.895 9.8371 127.707C10.0246 127.52 10.13 127.265 10.13 127V107.68H30.48V127C30.48 127.265 30.5854 127.52 30.7729 127.707C30.9604 127.895 31.2148 128 31.48 128H57.9C58.1652 128 58.4196 127.895 58.6071 127.707C58.7946 127.52 58.9 127.265 58.9 127C58.8991 125.036 58.2425 123.128 57.0342 121.579C55.8259 120.03 54.1351 118.929 52.23 118.45ZM18.47 42.89C20.58 39.23 21.77 36.25 26.06 35.1C27.809 34.6392 29.6552 34.7054 31.3667 35.2902C33.0783 35.875 34.5789 36.9524 35.6803 38.3871C36.7817 39.8217 37.4347 41.5498 37.5574 43.3543C37.6801 45.1589 37.267 46.9594 36.37 48.53L34.37 52.05C33.1553 54.1545 31.1544 55.6903 28.8073 56.3194C26.4603 56.9486 23.9595 56.6197 21.855 55.405C19.7505 54.1903 18.2147 52.1894 17.5856 49.8423C16.9564 47.4953 17.2853 44.9945 18.5 42.89H18.47ZM18.04 54.89C19.8396 56.9397 22.332 58.2535 25.04 58.58C25.9161 59.8897 26.3953 61.4245 26.42 63C26.42 68.63 26.48 68.26 26.42 68.36L21.42 63.31C21.2317 63.1217 20.9763 63.0159 20.71 63.0159C20.4437 63.0159 20.1883 63.1217 20 63.31C19.8117 63.4983 19.7059 63.7537 19.7059 64.02C19.7059 64.2863 19.8117 64.5417 20 64.73L25.76 70.48C25.9474 70.6662 26.2008 70.7708 26.465 70.7708C26.7292 70.7708 26.9826 70.6662 27.17 70.48L35.79 61.86C36.0961 61.5682 36.4581 61.3415 36.8543 61.1935C37.2504 61.0455 37.6725 60.9793 38.0949 60.999C38.5173 61.0186 38.9314 61.1236 39.3121 61.3077C39.6928 61.4918 40.0323 61.7511 40.31 62.07C40.7942 62.6974 41.0267 63.4829 40.962 64.2728C40.8973 65.0626 40.5399 65.7998 39.96 66.34C31 75.18 30.5 76.43 27.24 76.81C26.1689 76.9547 25.0789 76.8495 24.0552 76.5025C23.0316 76.1555 22.1023 75.5762 21.34 74.81C12.85 66.31 10.92 65.14 10.27 61.48C10.609 59.6589 11.5604 58.0085 12.9665 56.8026C14.3725 55.5966 16.1486 54.9077 18 54.85L18.04 54.89ZM10.13 94.79C10.8911 95.881 11.839 96.8289 12.93 97.59H10.13V94.79ZM31.48 105.72H9.13C8.86478 105.72 8.61042 105.825 8.42289 106.013C8.23535 106.2 8.13 106.455 8.13 106.72V126H2V66C2.04472 65.2174 2.38712 64.4815 2.95701 63.9433C3.5269 63.405 4.2811 63.1051 5.065 63.1051C5.84889 63.1051 6.60309 63.405 7.17298 63.9433C7.74287 64.4815 8.08527 65.2174 8.13 66V98.55C8.13 98.8152 8.23535 99.0696 8.42289 99.2571C8.61042 99.4446 8.86478 99.55 9.13 99.55H38.61V126H32.48V106.68C32.48 106.415 32.3746 106.16 32.1871 105.973C31.9996 105.785 31.7452 105.68 31.48 105.68V105.72ZM40.61 126V98.55C40.61 98.2848 40.5046 98.0304 40.3171 97.8429C40.1296 97.6553 39.8752 97.55 39.61 97.55H19.29C16.8614 97.5473 14.5331 96.5814 12.8158 94.8642C11.0986 93.1469 10.1326 90.8186 10.13 88.39V66.19C10.87 67.19 10.4 66.69 19.92 76.19C20.7676 77.0389 21.7748 77.7118 22.8834 78.17C23.9921 78.6282 25.1804 78.8627 26.38 78.86C26.48 78.86 26.38 78.44 26.38 86.33C26.379 86.5803 26.4719 86.8219 26.6404 87.0071C26.8089 87.1922 27.0407 87.3075 27.29 87.33L42.29 88.69C44.0619 88.8453 45.7109 89.66 46.9109 90.9729C48.1108 92.2858 48.7743 94.0013 48.77 95.78V118.85C48.77 119.85 49.61 119.85 51.77 120.37C53.0746 120.705 54.251 121.418 55.1513 122.42C56.0516 123.422 56.6357 124.667 56.83 126H40.61Z" fill="#82AAB3" fill-opacity="0.8"/>
<path d="M119.87 62C119.879 61.8233 119.841 61.6473 119.76 61.49C119.511 59.7683 118.822 58.1397 117.761 56.7613C116.699 55.3829 115.301 54.301 113.7 53.62C115.556 52.691 117.116 51.2632 118.206 49.4969C119.296 47.7305 119.872 45.6955 119.87 43.62V39.61C119.87 36.6502 118.694 33.8116 116.601 31.7187C114.508 29.6258 111.67 28.45 108.71 28.45C105.75 28.45 102.912 29.6258 100.819 31.7187C98.7258 33.8116 97.55 36.6502 97.55 39.61V43.68C97.5526 45.9512 98.248 48.1675 99.5435 50.033C100.839 51.8985 102.673 53.3243 104.8 54.12C103.217 54.9998 101.898 56.2872 100.98 57.8486C100.062 59.4101 99.5786 61.1887 99.58 63V77.23H96.52C95.4928 77.208 94.4837 77.5031 93.6301 78.0749C92.7765 78.6468 92.1198 79.4678 91.7494 80.4261C91.3789 81.3845 91.3127 82.4337 91.5597 83.431C91.8068 84.4284 92.3551 85.3254 93.13 86L85.53 86.69C83.2604 86.888 81.1478 87.9311 79.6107 89.6127C78.0735 91.2943 77.2239 93.4917 77.23 95.77V118.06L75.77 118.42C73.8599 118.9 72.1654 120.006 70.9566 121.561C69.7478 123.116 69.0942 125.03 69.1 127C69.1 127.265 69.2054 127.52 69.3929 127.707C69.5804 127.895 69.8348 128 70.1 128H96.52C96.7852 128 97.0396 127.895 97.2271 127.707C97.4147 127.52 97.52 127.265 97.52 127V107.68H117.87V127C117.87 127.265 117.975 127.52 118.163 127.707C118.35 127.895 118.605 128 118.87 128H127C127.265 128 127.52 127.895 127.707 127.707C127.895 127.52 128 127.265 128 127V66C128.019 65.0489 127.767 64.112 127.273 63.2993C126.778 62.4866 126.062 61.8319 125.208 61.4119C124.355 60.9919 123.399 60.8242 122.454 60.9284C121.508 61.0325 120.612 61.4043 119.87 62ZM99.55 43.68V39.61C99.55 37.1806 100.515 34.8507 102.233 33.1329C103.951 31.4151 106.281 30.45 108.71 30.45C111.139 30.45 113.469 31.4151 115.187 33.1329C116.905 34.8507 117.87 37.1806 117.87 39.61V43.68C117.87 46.1094 116.905 48.4393 115.187 50.1571C113.469 51.8749 111.139 52.84 108.71 52.84C106.281 52.84 103.951 51.8749 102.233 50.1571C100.515 48.4393 99.55 46.1094 99.55 43.68ZM96.55 79.23H110.77C111.035 79.23 111.29 79.1247 111.477 78.9371C111.665 78.7496 111.77 78.4952 111.77 78.23V62C111.77 61.7348 111.665 61.4804 111.477 61.2929C111.29 61.1054 111.035 61 110.77 61C110.505 61 110.25 61.1054 110.063 61.2929C109.875 61.4804 109.77 61.7348 109.77 62V77.23H101.61V63C101.618 61.3919 102.101 59.822 102.998 58.4874C103.895 57.1528 105.166 56.1131 106.653 55.4987C108.139 54.8844 109.773 54.7229 111.351 55.0345C112.929 55.346 114.379 56.1168 115.52 57.25C118.27 59.97 117.9 62.88 117.9 66.05V78.25C117.897 80.1393 117.145 81.9502 115.808 83.2852C114.471 84.6202 112.659 85.37 110.77 85.37H96.52C95.7085 85.37 94.9301 85.0476 94.3563 84.4738C93.7824 83.8999 93.46 83.1216 93.46 82.31C93.46 81.4984 93.7824 80.7201 94.3563 80.1463C94.9301 79.5724 95.7085 79.25 96.52 79.25L96.55 79.23ZM87.39 98.55V126H71.17C71.3719 124.669 71.9614 123.427 72.8649 122.43C73.7684 121.432 74.9458 120.723 76.25 120.39C78.52 119.83 79.25 119.82 79.25 118.87V95.8C79.2457 94.0214 79.9092 92.3059 81.1091 90.9929C82.3091 89.68 83.9581 88.8653 85.73 88.71C103.89 87.06 98.03 87.35 110.73 87.35C112.101 87.3521 113.455 87.0437 114.69 86.448C115.924 85.8522 117.008 84.9845 117.86 83.91V88.39C117.857 90.8186 116.891 93.1469 115.174 94.8642C113.457 96.5814 111.129 97.5474 108.7 97.55H88.39C88.1248 97.55 87.8704 97.6554 87.6829 97.8429C87.4954 98.0304 87.39 98.2848 87.39 98.55ZM117.87 94.75V97.55H115.07C116.161 96.7889 117.109 95.841 117.87 94.75ZM126 126H119.87V106.68C119.87 106.415 119.765 106.16 119.577 105.973C119.39 105.785 119.135 105.68 118.87 105.68H96.52C96.2548 105.68 96.0004 105.785 95.8129 105.973C95.6254 106.16 95.52 106.415 95.52 106.68V126H89.39V99.55H118.87C119.135 99.55 119.39 99.4447 119.577 99.2571C119.765 99.0696 119.87 98.8152 119.87 98.55V66C119.915 65.2174 120.257 64.4815 120.827 63.9433C121.397 63.405 122.151 63.1052 122.935 63.1052C123.719 63.1052 124.473 63.405 125.043 63.9433C125.613 64.4815 125.955 65.2174 126 66V126Z" fill="#82AAB3" fill-opacity="0.8"/>
<path d="M63.47 17.26C63.47 16.8622 63.3119 16.4807 63.0306 16.1993C62.7493 15.918 62.3678 15.76 61.97 15.76C61.5721 15.76 61.1906 15.918 60.9093 16.1993C60.628 16.4807 60.47 16.8622 60.47 17.26C60.47 17.6578 60.628 18.0394 60.9093 18.3207C61.1906 18.602 61.5721 18.76 61.97 18.76C62.3678 18.76 62.7493 18.602 63.0306 18.3207C63.3119 18.0394 63.47 17.6578 63.47 17.26Z" fill="#82AAB3" fill-opacity="0.8"/>
<path d="M53.84 15.76C53.4421 15.76 53.0606 15.918 52.7793 16.1993C52.498 16.4807 52.34 16.8622 52.34 17.26C52.34 17.6578 52.498 18.0394 52.7793 18.3207C53.0606 18.602 53.4421 18.76 53.84 18.76C54.2378 18.76 54.6193 18.602 54.9006 18.3207C55.1819 18.0394 55.34 17.6578 55.34 17.26C55.34 16.8622 55.1819 16.4807 54.9006 16.1993C54.6193 15.918 54.2378 15.76 53.84 15.76Z" fill="#82AAB3" fill-opacity="0.8"/>
<path d="M70.1 18.76C70.4978 18.76 70.8793 18.602 71.1606 18.3207C71.4419 18.0394 71.6 17.6578 71.6 17.26C71.6 16.8622 71.4419 16.4807 71.1606 16.1993C70.8793 15.918 70.4978 15.76 70.1 15.76C69.7022 15.76 69.3206 15.918 69.0393 16.1993C68.758 16.4807 68.6 16.8622 68.6 17.26C68.6 17.6578 68.758 18.0394 69.0393 18.3207C69.3206 18.602 69.7022 18.76 70.1 18.76Z" fill="#82AAB3" fill-opacity="0.8"/>
<path d="M74.16 42.65C91.5 42.65 90.98 42.91 91.34 42.03C91.7 41.15 91.34 41.2 87.06 36.87C89.1207 34.5443 90.5158 31.7057 91.0981 28.6534C91.6805 25.6012 91.4285 22.4483 90.3688 19.5273C89.3091 16.6062 87.481 14.0252 85.0771 12.0563C82.6732 10.0873 79.7825 8.80346 76.71 8.34C67.6 -6.66 44.71 -0.0300007 44.71 17.26C44.696 21.4926 46.2532 25.5797 49.08 28.73L45 32.81C44.8589 32.9499 44.7628 33.1286 44.7237 33.3233C44.6846 33.5181 44.7044 33.72 44.7806 33.9035C44.8568 34.0869 44.9858 34.2435 45.1514 34.3533C45.3169 34.4631 45.5114 34.5212 45.71 34.52H59.54C61.0872 37.004 63.2409 39.0536 65.7985 40.4758C68.3561 41.8981 71.2335 42.6463 74.16 42.65ZM51.16 29.46C51.3462 29.2726 51.4508 29.0192 51.4508 28.755C51.4508 28.4908 51.3462 28.2374 51.16 28.05C41.6 18.47 48.45 2 62 2C64.004 2 65.9883 2.39471 67.8397 3.1616C69.6912 3.92849 71.3734 5.05253 72.7904 6.46955C74.2075 7.88657 75.3315 9.56882 76.0984 11.4203C76.8653 13.2717 77.26 15.256 77.26 17.26C77.26 19.264 76.8653 21.2483 76.0984 23.0997C75.3315 24.9512 74.2075 26.6334 72.7904 28.0504C71.3734 29.4675 69.6912 30.5915 67.8397 31.3584C65.9883 32.1253 64.004 32.52 62 32.52H48.12L51.16 29.46ZM62 34.52C64.8376 34.5089 67.6287 33.7992 70.127 32.4536C72.6252 31.108 74.7537 29.1678 76.3243 26.8045C77.8948 24.4412 78.8593 21.7275 79.1323 18.9031C79.4054 16.0786 78.9787 13.2304 77.89 10.61C80.5066 11.2648 82.9029 12.6014 84.8348 14.4837C86.7667 16.366 88.1652 18.7268 88.8878 21.3254C89.6104 23.9241 89.6313 26.6679 88.9483 29.2773C88.2654 31.8867 86.903 34.2685 85 36.18C84.9062 36.273 84.8319 36.3836 84.7811 36.5054C84.7303 36.6273 84.7042 36.758 84.7042 36.89C84.7042 37.022 84.7303 37.1527 84.7811 37.2746C84.8319 37.3964 84.9062 37.507 85 37.6L88.05 40.6H74.16C66.36 40.65 61.76 34.52 62 34.52Z" fill="#82AAB3" fill-opacity="0.8"/>
</g>
<defs>
<clipPath id="clip0_1_488">
<rect width="128" height="128" fill="white"/>
</clipPath>
</defs>
</svg>
