<svg width="405" height="345" viewBox="0 0 405 345" fill="none" xmlns="http://www.w3.org/2000/svg">
<g clip-path="url(#clip0_69_68)">
<path d="M380.377 48.031C383.095 50.5644 384.596 52.5126 389.36 51.1904C395.29 49.5439 397.352 57.9742 390.289 57.8808C383.72 57.7939 382.643 52.0447 380.377 48.031H380.377Z" fill="#82AAB3" fill-opacity="0.25" stroke="#82AAB3" stroke-opacity="0.25" stroke-width="0.3" stroke-linecap="round" stroke-linejoin="round"/>
<path d="M387.937 59.4309C391.099 62.3795 392.846 64.6471 398.387 63.1081C405.287 61.1918 407.685 71.0038 399.468 70.895C391.826 70.7939 390.573 64.1024 387.937 59.431V59.4309Z" fill="#82AAB3" fill-opacity="0.25" stroke="#82AAB3" stroke-opacity="0.25" stroke-width="0.3" stroke-linecap="round" stroke-linejoin="round"/>
<path d="M371.642 20.402C372.3 19.6998 379.215 17.8993 378.818 25.0282C378.489 30.933 367.403 30.62 366.355 24.8133C365.879 22.1757 366.244 19.0424 368.844 16.5833C373.395 12.2784 381.104 13.758 384.258 18.6688C388.454 25.2013 384.888 35.2118 378.294 39.8468C369.604 45.9546 357.45 41.4607 351.848 36.6642C325.591 15.6792 318.346 19.4472 314.193 20.4302" stroke="#82AAB3" stroke-opacity="0.25" stroke-linecap="round" stroke-linejoin="round"/>
<path d="M384.049 91.8599C385.2 92.3781 390.364 100.177 381.337 102.69C373.861 104.771 369.558 90.9199 376.33 87.1769C379.406 85.4764 383.454 84.6081 387.61 86.789C394.885 90.6069 396.406 100.849 391.542 106.744C383.974 115.917 372.829 113.795 363.578 106.887C352.422 98.5531 355.03 77.2131 355.991 74.3921C358.193 67.8661 361.132 59.9681 361.16 49.8821" stroke="#82AAB3" stroke-opacity="0.25" stroke-linecap="round" stroke-linejoin="round"/>
<path d="M339.189 50.3879C338.209 50.6083 332.938 55.8686 339.573 59.2724C345.069 62.0918 350.635 51.9712 345.954 47.9674C343.828 46.1487 340.811 44.8239 337.223 45.8613C330.942 47.6774 328.209 55.3806 330.971 60.8043C334.645 68.0189 345.795 69.9184 352.338 64.6381C356.48 61.2954 358.222 57.6737 360.199 51.6001C360.806 48.9933 360.737 46.2704 360.478 43.3752" stroke="#82AAB3" stroke-opacity="0.25" stroke-linecap="round" stroke-linejoin="round"/>
<path d="M242.08 65.847C242.723 66.6186 243.699 74.0011 236.364 72.6593C230.288 71.548 232.038 60.1313 238.189 59.8063C240.983 59.6589 244.183 60.4458 246.397 63.4539C250.272 68.7199 247.748 76.4939 242.254 79.1129C234.945 82.5969 225.132 77.2653 222.972 69.1392C221.577 63.8925 224.176 54.9612 225.793 53.5152C226.897 51.6344 230.726 49.258 233.192 47.1294" stroke="#82AAB3" stroke-opacity="0.25" stroke-linecap="round" stroke-linejoin="round"/>
<path d="M213.51 25.522C213.538 24.4011 209.461 17.2615 204.193 23.5168C199.831 28.698 208.872 37.4818 214.25 33.5052C216.693 31.699 218.857 28.794 218.72 24.6273C218.48 17.3328 211.204 12.2753 204.855 13.7873C196.41 15.7988 191.649 23.8153 193.251 33.0513C195.363 45.2223 208.899 51.1513 217.099 51.7303C222.923 52.4841 225.746 51.0796 233.571 46.7528" stroke="#82AAB3" stroke-opacity="0.25" stroke-linecap="round" stroke-linejoin="round"/>
<path d="M366.705 209.09C367.168 208.515 367.811 203.06 362.454 204.11C358.016 204.979 359.408 213.39 363.915 213.579C365.962 213.665 368.297 213.058 369.889 210.82C372.675 206.903 370.751 201.187 366.703 199.298C361.318 196.787 353.42 200.06 351.905 206.06C350.291 212.452 359.111 222.078 362.647 226.488C377.434 244.933 360.508 254.658 350.793 247.748C344.615 243.355 342.366 229.295 343.976 212.77" stroke="#82AAB3" stroke-opacity="0.25" stroke-linecap="round" stroke-linejoin="round"/>
<path d="M368.22 297.76C368.615 297.941 370.389 300.658 367.289 301.533C364.721 302.258 363.244 297.433 365.569 296.128C366.626 295.536 368.016 295.233 369.443 295.993C371.941 297.323 372.372 301.191 370.793 302.946C368.663 305.312 363.575 305.376 361.278 302.119C354.226 292.122 353.457 276.218 351.942 252.967" stroke="#82AAB3" stroke-opacity="0.25" stroke-linecap="round" stroke-linejoin="round"/>
<path d="M312.801 40.1761C313.162 40.6118 313.709 44.78 309.595 44.0225C306.186 43.395 307.168 36.9488 310.618 36.7656C312.186 36.6824 313.981 37.1267 315.222 38.8251C317.396 41.7984 315.685 46.4328 312.898 47.6666C309.182 49.3124 302.887 46.7119 302.082 42.0353C300.562 33.2023 312.162 21.1903 314.914 19.8833" stroke="#82AAB3" stroke-opacity="0.25" stroke-linecap="round" stroke-linejoin="round"/>
<path d="M335.464 8.21273C339.157 7.80185 341.613 7.93188 343.713 3.45713C346.329 -2.11477 354.067 1.81433 349.394 7.11133C345.049 12.0376 339.985 9.10893 335.464 8.21273H335.464Z" fill="#82AAB3" fill-opacity="0.25" stroke="#82AAB3" stroke-opacity="0.25" stroke-width="0.3" stroke-linecap="round" stroke-linejoin="round"/>
<path d="M349.038 9.90594C353.335 9.42879 356.193 9.58072 358.636 4.37434C361.678 -2.10846 370.684 2.46544 365.248 8.62784C360.192 14.3589 354.3 10.9498 349.038 9.90584L349.038 9.90594Z" fill="#82AAB3" fill-opacity="0.25" stroke="#82AAB3" stroke-opacity="0.25" stroke-width="0.3" stroke-linecap="round" stroke-linejoin="round"/>
<path d="M97.9201 6.78116C94.2082 6.62371 91.7663 6.92139 89.365 2.60066C86.3749 -2.77944 78.923 1.66958 83.9474 6.63476C88.6197 11.2524 93.4709 7.98436 97.9204 6.78114L97.9201 6.78116Z" fill="#82AAB3" fill-opacity="0.25" stroke="#82AAB3" stroke-opacity="0.25" stroke-width="0.3" stroke-linecap="round" stroke-linejoin="round"/>
<path d="M84.4901 9.39867C80.1708 9.21641 77.3293 9.56344 74.5361 4.53637C71.0581 -1.72333 62.3861 3.45567 68.2309 9.23197C73.6666 14.604 79.3129 10.8 84.4899 9.39869L84.4901 9.39867Z" fill="#82AAB3" fill-opacity="0.25" stroke="#82AAB3" stroke-opacity="0.25" stroke-width="0.3" stroke-linecap="round" stroke-linejoin="round"/>
<path d="M114.58 41.7209C120.488 42.1802 119.505 33.6637 113.07 34.8453C107.74 35.824 109.338 45.2903 114.671 46.1643C117.239 46.5852 120.562 45.5791 122.221 43.0395C125.223 38.4464 123.074 31.2505 118.237 29.1605C112.404 26.6414 104.369 32.8054 100.446 36.3672C75.0556 59.4212 66.5896 17.7642 97.7994 21.5672C109.805 23.0304 131.547 69.3222 185.194 74.0972" stroke="#82AAB3" stroke-opacity="0.25" stroke-linecap="round" stroke-linejoin="round"/>
<path d="M214.67 83.9611C215.252 72.7491 219.591 59.4101 229.166 49.7661C194.69 83.7761 187.512 64.8191 171.059 83.7141" stroke="#82AAB3" stroke-opacity="0.25" stroke-linecap="round"/>
<path d="M150.86 36.595C163.671 52.648 157.392 56.413 177.445 58.325C188.831 59.4105 201.85 62.2472 228.13 50.2621C190.47 85.5391 170.923 51.3379 151.386 57.6212" stroke="#82AAB3" stroke-opacity="0.25" stroke-linecap="round"/>
<path d="M169.94 41.96C170.791 48.5017 174.545 53.007 177.993 58.19" stroke="#82AAB3" stroke-opacity="0.25"/>
<path d="M163.68 54.984C141.51 45.064 136.84 29.843 109.11 16.066C71.6351 4.094 55.121 41.727 73.2551 61.342C75.6387 63.9204 90.2201 74.38 93.7471 79.501" stroke="#82AAB3" stroke-opacity="0.25" stroke-linecap="round"/>
<path d="M297.68 36.1369C286.778 -0.813059 247.213 39.9523 225.788 53.1449L226.976 50.8521C252.266 28.4591 288.166 1.52114 297.676 36.1371L297.68 36.1369Z" fill="#82AAB3" fill-opacity="0.25" stroke="#82AAB3" stroke-opacity="0.25" stroke-width="0.3" stroke-linejoin="round"/>
<path d="M96.3601 51.137C73.4051 65.002 65.4821 37.232 68.8071 29.498C68.2436 30.6467 74.3996 21.213 73.2638 22.3739C68.1406 27.6104 64.6042 29.8574 65.2124 37.4119C67.2454 52.8959 87.0954 64.3229 96.3594 51.1369L96.3601 51.137Z" fill="#82AAB3" fill-opacity="0.25" stroke="#82AAB3" stroke-opacity="0.25" stroke-width="0.2"/>
<path d="M67.6701 32.114C48.7891 60.401 36.6241 59.488 27.3261 61.825" stroke="#82AAB3" stroke-opacity="0.25" stroke-linecap="round"/>
<path d="M73.9601 62.0669C77.1662 72.1579 74.5264 79.6849 69.5578 85.3049" stroke="#82AAB3" stroke-opacity="0.25" stroke-linejoin="round"/>
<path d="M348.474 317.13C348.274 269.66 357.596 196.41 362.35 184.81C433.05 -15.58 291.9 -14.04 292.41 55.84" stroke="#82AAB3" stroke-opacity="0.25" stroke-linecap="round"/>
<path d="M341.139 77.6831C341.879 74.3041 345.351 69.6001 349.374 66.3811" stroke="#82AAB3" stroke-opacity="0.25" stroke-linecap="round"/>
<path d="M315.032 19.8609C336.255 11.1789 360.115 24.4659 361.158 49.9769" stroke="#82AAB3" stroke-opacity="0.25"/>
<path d="M333.43 13.6411C384.438 21.1261 386.646 107.12 331.327 121.571" stroke="#82AAB3" stroke-opacity="0.25" stroke-linecap="round"/>
<path d="M331.371 13.5099C395.763 30.0909 361.061 105.29 351.827 111.06C333.329 147.506 348.297 171.425 369.496 172.199C381.129 172.624 399.214 153.317 381.614 139.445C397.569 160.491 373.446 171.218 361.984 168.683C342.711 164.42 339.09 132.551 352.791 110.184C365.663 105.984 398.582 34.4339 333.736 13.2949L331.371 13.5099Z" fill="#82AAB3" fill-opacity="0.25" stroke="#82AAB3" stroke-opacity="0.25" stroke-width="0.2"/>
<path d="M332.554 241.6C342.77 231.83 344.833 200.33 352.511 180.24C379.436 109.79 380.222 80.304 378.46 57.27" stroke="#82AAB3" stroke-opacity="0.25"/>
<path d="M337.819 169.08C348.319 161.1 359.436 145.29 372.85 117.13" stroke="#82AAB3" stroke-opacity="0.25" stroke-linecap="round"/>
<path d="M329.23 120.866C326.956 112.15 323.174 110.144 319.814 110.32C318.516 112.474 319.93 119.209 329.23 120.866Z" fill="#82AAB3" fill-opacity="0.25" stroke="#82AAB3" stroke-opacity="0.25" stroke-width="0.4" stroke-linecap="round" stroke-linejoin="round"/>
<path d="M322.056 122.139C313.178 127.31 304.309 128.143 303.939 122.426C303.464 117.556 311.79 116.536 322.056 122.139Z" fill="#82AAB3" fill-opacity="0.25" stroke="#82AAB3" stroke-opacity="0.25"/>
<path d="M329.093 123.604C326.817 132.319 323.035 134.324 319.676 134.148C318.378 131.993 319.793 125.259 329.093 123.604Z" fill="#82AAB3" fill-opacity="0.25" stroke="#82AAB3" stroke-opacity="0.25" stroke-width="0.4" stroke-linecap="round" stroke-linejoin="round"/>
<path d="M167.095 85.9314C158.754 82.5302 154.882 84.3566 153.01 87.1516C153.958 89.4817 160.197 92.3847 167.095 85.9314Z" fill="#82AAB3" fill-opacity="0.25" stroke="#82AAB3" stroke-opacity="0.25" stroke-width="0.4" stroke-linecap="round" stroke-linejoin="round"/>
<path d="M163.817 92.4378C162.637 102.644 157.991 110.244 153.192 107.115C149.008 104.578 153.18 97.3011 163.817 92.4378Z" fill="#82AAB3" fill-opacity="0.25" stroke="#82AAB3" stroke-opacity="0.25"/>
<path d="M169.205 87.6814C174.82 94.725 174.16 98.9545 172.006 101.539C169.503 101.286 164.959 96.1194 169.205 87.6814Z" fill="#82AAB3" fill-opacity="0.25" stroke="#82AAB3" stroke-opacity="0.25" stroke-width="0.4" stroke-linecap="round" stroke-linejoin="round"/>
<path d="M351.323 260.57L344.261 270.668" stroke="#82AAB3" stroke-opacity="0.25"/>
<path d="M346.925 271.79C340.513 285.566 340.778 293.908 343.084 300.038C341.354 299.792 335.999 298.246 338.686 286.162C336.422 288.99 335.327 293.51 333.482 297.189C332.802 298.546 328.254 302.607 326.296 304.003C326.416 301.991 326.154 296.494 326.916 294.959C328.95 290.861 332.994 287.207 334.474 282.941C325.488 292.058 322.749 288.842 320.35 287.463C330.136 285.515 336.113 275.697 343.147 268.321C346.463 267.45 346.947 267.87 346.925 271.79L346.925 271.79Z" fill="#82AAB3" fill-opacity="0.25" stroke="#82AAB3" stroke-opacity="0.25" stroke-width="0.2" stroke-linecap="round" stroke-linejoin="round"/>
<path d="M70.0101 88.047C61.8618 97.5631 60.221 104.246 60.6916 109.626C59.3723 109.047 55.4635 106.631 60.2784 97.631C57.8528 99.3741 55.9808 102.72 53.6994 105.232C52.8577 106.159 48.3458 108.374 46.4811 109.049C47.0224 107.477 48.0343 103.054 48.9801 102.004C51.5044 99.2011 55.527 97.1974 57.6483 94.1383C48.4899 99.384 47.0293 96.2221 45.4293 94.5949C53.6327 95.2198 60.5573 88.7496 67.7793 84.4539C70.6062 84.4978 70.8972 84.9388 70.0101 88.0472L70.0101 88.047Z" fill="#82AAB3" fill-opacity="0.25" stroke="#82AAB3" stroke-opacity="0.25" stroke-width="0.2" stroke-linecap="round" stroke-linejoin="round"/>
<path d="M146.996 33.1684C138.056 34.2709 134.796 31.4958 133.719 28.3087C135.243 26.3073 142.024 25.1362 146.996 33.1684Z" fill="#82AAB3" fill-opacity="0.25" stroke="#82AAB3" stroke-opacity="0.25" stroke-width="0.4" stroke-linecap="round" stroke-linejoin="round"/>
<path d="M145.532 26.0311C147.062 15.8714 144.564 7.32138 139.113 9.08672C134.412 10.4419 136.536 18.5563 145.532 26.0311Z" fill="#82AAB3" fill-opacity="0.25" stroke="#82AAB3" stroke-opacity="0.25"/>
<path d="M149.49 32.0308C156.751 26.6999 157.219 22.4448 155.815 19.3877C153.334 18.9768 147.597 22.7762 149.49 32.0308Z" fill="#82AAB3" fill-opacity="0.25" stroke="#82AAB3" stroke-opacity="0.25" stroke-width="0.4" stroke-linecap="round" stroke-linejoin="round"/>
<path d="M283.55 17.9241C297.578 30.1901 274.313 35.3831 268.001 25.9774C261.04 13.4614 248.439 32.107 265.647 37.6234C274.931 41.0283 281.3 39.0779 289.435 33.7826C294.894 29.8393 301.233 27.7255 313.347 31.0569C321.351 33.2777 321.813 42.7259 321.834 43.4469C322.133 53.5829 314.969 53.5829 312.046 54.3499C304.798 55.0174 300.288 50.0618 299.223 46.4205C295.84 34.8545 297.274 37.6612 297.138 34.2225L299.099 33.721C298.589 37.1967 298.475 43.3428 299.905 45.801C302.482 50.2328 305.583 53.049 312.047 53.1109C321.863 53.5808 325.02 35.9799 313.347 31.9869C303.016 30.1452 295.224 36.1641 286.276 39.8543C277.204 44.1343 267.623 41.6507 262.488 39.6685C249.488 32.6994 259.357 14.3445 265.834 19.9685C284.003 35.0015 291.768 27.5282 283.551 17.9242L283.55 17.9241Z" fill="#82AAB3" fill-opacity="0.25" stroke="#82AAB3" stroke-opacity="0.25" stroke-width="0.2"/>
<path d="M332.677 241.46C333.315 245.369 331.668 249.599 325.956 249.08C325.798 249.683 325.774 250.51 325.863 251.031C329.258 249.353 333.283 253.993 329.27 257.288C325.668 261.221 327.305 264.633 327.411 267.571C322.351 265.289 323.416 261.151 323.571 257.288C322.769 254.926 320.079 256.314 320.102 258.031C321.611 263.28 315.542 265.438 313.163 265.217C308.812 264.729 308.069 265.531 306.442 265.899C307.551 263.65 307.515 261.138 307.588 258.651C308.044 252.74 311.889 252.616 315.641 252.332C318.156 251.928 317.878 249.452 315.889 249.358C312.46 249.63 309.342 251.552 305.544 245.332C308.59 245.117 313.945 245.841 314.883 244.108C316.68 241.26 322.959 240.199 322.549 246.973C323.016 246.939 323.767 246.932 324.314 246.633C323.713 242.146 328.515 240.136 332.677 241.46L332.677 241.46Z" fill="#82AAB3" fill-opacity="0.25" stroke="#82AAB3" stroke-opacity="0.25" stroke-width="0.2"/>
<path d="M341.052 77.364C344.231 79.7265 345.994 83.9097 341.531 87.513C341.837 88.0563 342.396 88.6665 342.823 88.9786C344.092 85.4107 350.212 85.939 349.624 91.0986C349.776 96.4297 353.327 97.7394 355.448 99.7749C350.227 101.659 348.111 97.9473 345.533 95.0659C343.313 93.9283 342.348 96.7974 343.56 98.0145C348.298 100.732 345.442 106.506 343.581 108.003C340.117 110.682 340.142 111.775 339.23 113.171C338.461 110.785 336.686 109.007 335.007 107.17C331.22 102.609 333.894 99.8433 336.39 97.0282C337.914 94.9879 335.991 93.4036 334.498 94.721C332.225 97.3028 331.325 100.854 324.268 99.0319C326.305 96.7573 330.654 93.5489 330.121 91.6526C329.428 88.3565 333.198 83.2239 337.619 88.373C337.931 88.0231 338.465 87.4953 338.649 86.8994C335.094 84.0975 337.143 79.3112 341.052 77.3641L341.052 77.364Z" fill="#82AAB3" fill-opacity="0.25" stroke="#82AAB3" stroke-opacity="0.25" stroke-width="0.2"/>
<path d="M169.75 42.378C173.565 41.3135 176.712 38.0415 173.839 33.0765C174.32 32.6794 175.06 32.3102 175.57 32.172C175.475 35.9578 181.377 37.6606 182.68 32.6338C184.735 27.7123 188.519 27.7639 191.23 26.6252C187.032 22.9924 183.725 25.6982 180.285 27.4624C177.804 27.7276 177.933 24.7034 179.501 24.0022C184.899 23.1655 184.305 16.7517 183.105 14.6862C180.833 10.9435 181.248 9.93163 180.898 8.30103C179.325 10.2525 177.03 11.2756 174.803 12.3873C169.631 15.2855 171.135 18.8269 172.455 22.3505C173.145 24.8018 170.782 25.5905 169.861 23.8252C168.666 20.5997 169.1 16.9622 161.859 16.1306C162.944 18.9845 165.852 23.5398 164.674 25.1186C162.845 27.9468 164.522 34.0902 170.496 30.8704C170.662 31.3091 170.971 31.9932 170.929 32.6156C166.605 33.9553 166.8 39.1579 169.751 42.3782L169.75 42.378Z" fill="#82AAB3" fill-opacity="0.25" stroke="#82AAB3" stroke-opacity="0.25" stroke-width="0.2"/>
<path d="M152.61 57.0829C149.207 54.5076 144.348 53.9464 141.967 59.6504C141.313 59.4973 140.513 59.1037 140.061 58.7566C143.369 56.3669 140.976 50.1961 135.816 52.3609C130.256 53.8123 127.829 50.5349 125.084 48.9546C124.71 54.9249 129.189 55.9929 132.947 57.7905C134.794 59.7436 132.117 61.6074 130.492 60.7212C126.251 56.6405 121.141 61.3364 120.153 63.7136C118.428 68.1046 117.29 68.4094 116.121 69.7739C118.821 69.8488 121.196 71.1483 123.602 72.3308C129.463 74.8722 131.517 71.271 133.676 67.8395C135.327 65.6474 137.546 67.1584 136.634 69.1004C134.649 72.2308 131.248 74.2337 135.262 80.9834C137 78.1903 139.006 72.7236 141.129 72.7025C144.747 72.424 148.918 66.9758 142.258 63.9568C142.526 63.5284 142.911 62.8169 143.472 62.4463C147.443 65.278 151.775 61.7147 152.61 57.083L152.61 57.0829Z" fill="#82AAB3" fill-opacity="0.25" stroke="#82AAB3" stroke-opacity="0.25" stroke-width="0.2"/>
<path d="M347.004 318.497C338.137 320.085 335.843 323.699 335.756 327.062C337.803 328.524 344.627 327.639 347.004 318.497Z" fill="#82AAB3" fill-opacity="0.25" stroke="#82AAB3" stroke-opacity="0.25" stroke-width="0.4" stroke-linecap="round" stroke-linejoin="round"/>
<path d="M347.715 325.748C352.177 335.002 352.316 343.909 346.588 343.832C341.696 343.927 341.329 335.547 347.715 325.748Z" fill="#82AAB3" fill-opacity="0.25" stroke="#82AAB3" stroke-opacity="0.25"/>
<path d="M349.723 318.847C358.235 321.795 359.939 325.722 359.501 329.057C357.252 330.183 350.649 328.248 349.723 318.847Z" fill="#82AAB3" fill-opacity="0.25" stroke="#82AAB3" stroke-opacity="0.25" stroke-width="0.4" stroke-linecap="round" stroke-linejoin="round"/>
<path d="M294.87 58.1749C295.711 73.3469 299.878 80.5779 304.802 84.8969C303.16 85.4958 297.709 86.6574 294.381 74.7339C293.717 78.2954 294.883 82.797 294.991 86.9119C295.031 88.4298 292.935 94.1545 291.867 96.3094C291.023 94.4788 288.201 89.7547 288.149 88.0413C288.01 83.4683 289.854 78.3392 289.147 73.8793C285.522 86.1563 281.59 84.6113 278.824 84.5263C286.536 78.194 287.177 66.7183 289.903 56.8973C292.417 54.565 293.042 54.7074 294.871 58.1749H294.87Z" fill="#82AAB3" fill-opacity="0.25" stroke="#82AAB3" stroke-opacity="0.25" stroke-width="0.2" stroke-linecap="round" stroke-linejoin="round"/>
<path d="M216.99 86.298C217.831 101.47 221.998 108.701 226.922 113.02C225.28 113.619 219.829 114.781 216.501 102.857C215.837 106.419 217.003 110.92 217.111 115.035C217.151 116.553 215.055 122.278 213.987 124.432C213.143 122.602 210.321 117.878 210.269 116.164C210.13 111.591 211.974 106.462 211.267 102.002C207.642 114.279 203.71 112.734 200.944 112.649C208.656 106.317 209.297 94.8413 212.023 85.0203C214.537 82.688 215.162 82.8304 216.991 86.2979L216.99 86.298Z" fill="#82AAB3" fill-opacity="0.25" stroke="#82AAB3" stroke-opacity="0.25" stroke-width="0.2" stroke-linecap="round" stroke-linejoin="round"/>
<path d="M93.5032 81.9451C87.0725 88.2528 87.2133 92.5316 89.0364 95.3587C91.5512 95.4131 96.6907 90.8376 93.5032 81.9451Z" fill="#82AAB3" fill-opacity="0.25" stroke="#82AAB3" stroke-opacity="0.25" stroke-width="0.4" stroke-linecap="round" stroke-linejoin="round"/>
<path d="M98.1756 87.5353C107.077 92.6667 112.21 99.9463 107.434 103.111C103.446 105.945 98.4207 99.2289 98.1756 87.5353Z" fill="#82AAB3" fill-opacity="0.25" stroke="#82AAB3" stroke-opacity="0.25"/>
<path d="M95.9465 80.7026C104.64 78.342 108.26 80.6262 109.778 83.6281C108.554 85.8256 102.008 87.9476 95.9465 80.7026Z" fill="#82AAB3" fill-opacity="0.25" stroke="#82AAB3" stroke-opacity="0.25" stroke-width="0.4" stroke-linecap="round" stroke-linejoin="round"/>
<path d="M25.5848 60.7258C22.4664 52.2749 18.5057 50.65 15.1798 51.1544C14.0996 53.426 16.1671 59.9892 25.5848 60.7258Z" fill="#82AAB3" fill-opacity="0.25" stroke="#82AAB3" stroke-opacity="0.25" stroke-width="0.4" stroke-linecap="round" stroke-linejoin="round"/>
<path d="M18.5709 62.697C10.2427 68.7135 1.49877 70.4127 0.569166 64.7595C-0.381686 59.9599 7.80394 58.1286 18.5709 62.697Z" fill="#82AAB3" fill-opacity="0.25" stroke="#82AAB3" stroke-opacity="0.25"/>
<path d="M25.717 63.4636C24.3079 72.3606 20.7408 74.727 17.3805 74.8813C15.8777 72.8642 16.6244 66.0238 25.717 63.4636Z" fill="#82AAB3" fill-opacity="0.25" stroke="#82AAB3" stroke-opacity="0.25" stroke-width="0.4" stroke-linecap="round" stroke-linejoin="round"/>
<path d="M338.005 172.67C327.394 183.546 324.882 191.505 325.028 198.053C323.477 197.248 318.936 194.017 325.472 183.503C322.4 185.422 319.87 189.324 316.911 192.185C315.82 193.24 310.184 195.566 307.874 196.235C308.653 194.376 310.226 189.103 311.454 187.906C314.729 184.713 319.756 182.604 322.565 179.069C311.067 184.697 309.548 180.755 307.74 178.659C317.619 180.061 326.509 172.776 335.589 168.145C339.007 168.421 339.324 168.978 338.006 172.67L338.005 172.67Z" fill="#82AAB3" fill-opacity="0.25" stroke="#82AAB3" stroke-opacity="0.25" stroke-width="0.2" stroke-linecap="round" stroke-linejoin="round"/>
</g>
<defs>
<clipPath id="clip0_69_68">
<rect width="344.33" height="404.82" fill="white" transform="translate(404.82) rotate(90)"/>
</clipPath>
</defs>
</svg>
