<svg width="346" height="406" viewBox="0 0 346 406" fill="none" xmlns="http://www.w3.org/2000/svg">
<g clip-path="url(#clip0_69_2)">
<path d="M48.1013 25.2971C50.6268 22.5723 52.5707 21.0648 51.2348 16.3055C49.5712 10.3794 57.9955 8.2939 57.9225 15.357C57.8545 21.9257 52.1084 23.0196 48.1013 25.2971L48.1013 25.2971Z" fill="#82AAB3" fill-opacity="0.25" stroke="#82AAB3" stroke-opacity="0.25" stroke-width="0.3" stroke-linecap="round" stroke-linejoin="round"/>
<path d="M59.4794 17.7043C62.4189 14.5343 64.6815 12.7805 63.1265 7.24377C61.1903 0.349522 70.9954 -2.07685 70.9103 6.14033C70.8312 13.7823 64.1433 15.0549 59.4795 17.7043L59.4794 17.7043Z" fill="#82AAB3" fill-opacity="0.25" stroke="#82AAB3" stroke-opacity="0.25" stroke-width="0.3" stroke-linecap="round" stroke-linejoin="round"/>
<path d="M20.4976 34.1117C19.7935 33.4559 17.973 26.5458 25.103 26.9227C31.0088 27.2349 30.7277 38.3215 24.9241 39.3863C22.2879 39.8697 19.1536 39.5132 16.687 36.9206C12.369 32.3818 13.8264 24.6688 18.7281 21.5007C25.2484 17.2855 35.2692 20.8233 39.9232 27.4039C46.056 36.076 41.5971 48.2431 36.8168 53.8589C15.9076 80.1763 19.6965 87.4104 20.6914 91.5606" stroke="#82AAB3" stroke-opacity="0.25" stroke-linecap="round" stroke-linejoin="round"/>
<path d="M91.9195 21.4988C92.4344 20.3465 100.219 15.1601 102.757 24.1794C104.86 31.6501 91.0213 35.9923 87.2588 29.2313C85.5494 26.1601 84.6694 22.1144 86.8383 17.9525C90.6352 10.6661 100.873 9.11619 106.782 13.9631C115.976 21.5046 113.887 32.6557 107.006 41.9265C98.7038 53.1065 77.3564 50.5601 74.5326 49.6072C68.0003 47.424 60.0938 44.5078 50.0078 44.5089" stroke="#82AAB3" stroke-opacity="0.25" stroke-linecap="round" stroke-linejoin="round"/>
<path d="M50.577 66.4781C50.8001 67.4574 56.0757 72.7132 59.4603 66.0682C62.2639 60.5642 52.1273 55.0273 48.137 59.72C46.3244 61.8516 45.0083 64.8724 46.0561 68.4572C47.8903 74.733 55.6013 77.4438 61.017 74.666C68.221 70.9709 70.0883 59.8158 64.7892 53.288C61.4346 49.1554 57.8079 47.424 51.7286 45.4645C49.1201 44.8649 46.3974 44.9425 43.5029 45.2091" stroke="#82AAB3" stroke-opacity="0.25" stroke-linecap="round" stroke-linejoin="round"/>
<path d="M66.3159 163.542C67.0856 162.897 74.4653 161.899 73.1446 169.239C72.0508 175.318 60.6291 173.601 60.2864 167.451C60.131 164.657 60.9087 161.455 63.9103 159.233C69.1651 155.342 76.9464 157.844 79.5812 163.33C83.0863 170.629 77.783 180.458 69.6631 182.641C64.4205 184.051 55.4817 181.477 54.0311 179.864C52.1471 178.767 49.7597 174.944 47.624 172.484" stroke="#82AAB3" stroke-opacity="0.25" stroke-linecap="round" stroke-linejoin="round"/>
<path d="M26.0734 192.228C24.9524 192.204 17.8246 196.302 24.095 201.551C29.2888 205.898 38.0465 196.831 34.0544 191.465C32.2412 189.027 29.3299 186.872 25.1636 187.021C17.8699 187.282 12.8334 194.572 14.3637 200.917C16.3995 209.357 24.4297 214.094 33.661 212.466C45.8259 210.318 51.7158 196.766 52.2712 188.564C53.0082 182.738 51.5956 179.919 47.2462 172.106" stroke="#82AAB3" stroke-opacity="0.25" stroke-linecap="round" stroke-linejoin="round"/>
<path d="M209.199 38.5047C208.623 38.0431 203.166 37.4159 204.231 42.7704C205.113 47.2056 213.52 45.7891 213.696 41.2817C213.776 39.2343 213.163 36.9012 210.92 35.3161C206.995 32.5413 201.284 34.4817 199.408 38.5351C196.912 43.927 200.207 51.8159 206.212 53.3136C212.608 54.9091 222.209 46.061 226.609 42.5127C245.011 27.6726 254.785 44.5699 247.903 54.3054C243.527 60.4958 229.474 62.7853 212.945 61.2226" stroke="#82AAB3" stroke-opacity="0.25" stroke-linecap="round" stroke-linejoin="round"/>
<path d="M297.864 36.7341C298.044 36.3384 300.756 34.5573 301.64 37.6545C302.373 40.2199 297.551 41.7112 296.24 39.3895C295.645 38.3349 295.338 36.9457 296.094 35.5164C297.417 33.0143 301.283 32.5721 303.042 34.1462C305.415 36.2691 305.493 41.3568 302.243 43.6635C292.266 50.7448 276.365 51.5594 253.119 53.1415" stroke="#82AAB3" stroke-opacity="0.25" stroke-linecap="round" stroke-linejoin="round"/>
<path d="M40.4411 92.8955C40.8757 92.5336 45.0423 91.9738 44.2967 96.0909C43.6791 99.5011 37.23 98.5381 37.0369 95.088C36.9492 93.5209 37.3883 91.7248 39.0831 90.4781C42.0501 88.2956 46.6894 89.9939 47.9313 92.7766C49.5878 96.4884 47.0055 102.79 42.3312 103.609C33.5026 105.154 21.4572 93.5889 20.1423 90.8407" stroke="#82AAB3" stroke-opacity="0.25" stroke-linecap="round" stroke-linejoin="round"/>
<path d="M8.41261 70.3247C7.99108 66.6334 8.11403 64.1765 3.63325 62.0891C-1.94617 59.4899 1.96061 51.7399 7.27105 56.3978C12.2099 60.7292 9.29577 65.8009 8.41261 70.3246L8.41261 70.3247Z" fill="#82AAB3" fill-opacity="0.25" stroke="#82AAB3" stroke-opacity="0.25" stroke-width="0.3" stroke-linecap="round" stroke-linejoin="round"/>
<path d="M10.0667 56.7459C9.57721 52.4506 9.7209 49.5916 4.5075 47.1636C-1.98404 44.1404 2.56388 35.1212 8.74193 40.5399C14.4876 45.579 11.0955 51.4811 10.0666 56.7461L10.0667 56.7459Z" fill="#82AAB3" fill-opacity="0.25" stroke="#82AAB3" stroke-opacity="0.25" stroke-width="0.3" stroke-linecap="round" stroke-linejoin="round"/>
<path d="M7.66584 307.872C7.51909 311.584 7.82381 314.025 3.51002 316.439C-1.86144 319.445 2.60905 326.884 7.55972 321.845C12.1638 317.159 8.88186 312.318 7.66582 307.872L7.66584 307.872Z" fill="#82AAB3" fill-opacity="0.25" stroke="#82AAB3" stroke-opacity="0.25" stroke-width="0.3" stroke-linecap="round" stroke-linejoin="round"/>
<path d="M10.322 321.294C10.1522 325.614 10.5074 328.454 5.48839 331.262C-0.761257 334.758 4.44272 343.415 10.2021 337.554C15.5585 332.103 11.7382 326.467 10.322 321.294L10.322 321.294Z" fill="#82AAB3" fill-opacity="0.25" stroke="#82AAB3" stroke-opacity="0.25" stroke-width="0.3" stroke-linecap="round" stroke-linejoin="round"/>
<path d="M42.5575 291.111C42.9998 285.202 34.4861 286.209 35.6863 292.641C36.6804 297.968 46.142 296.342 47.0006 291.007C47.4141 288.439 46.3984 285.118 43.854 283.466C39.2523 280.477 32.0626 282.647 29.9866 287.491C27.4843 293.33 33.6714 301.348 37.2445 305.261C60.3716 330.584 18.7392 339.17 22.4522 307.95C23.8808 295.94 70.1097 274.064 74.7301 220.404" stroke="#82AAB3" stroke-opacity="0.25" stroke-linecap="round" stroke-linejoin="round"/>
<path d="M84.5088 190.9C73.2952 190.35 59.9437 186.05 50.2722 176.502C84.3814 210.88 65.4452 218.113 84.3875 234.511" stroke="#82AAB3" stroke-opacity="0.25" stroke-linecap="round"/>
<path d="M37.3269 254.846C53.3429 241.989 57.126 248.257 58.9802 228.199C60.0329 216.809 62.832 203.782 50.7712 177.537C86.1566 215.095 52.0119 234.741 58.3515 254.259" stroke="#82AAB3" stroke-opacity="0.25" stroke-linecap="round"/>
<path d="M42.6369 235.751C49.1761 234.881 53.6706 231.114 58.8436 227.651" stroke="#82AAB3" stroke-opacity="0.25"/>
<path d="M55.6789 241.973C45.8228 264.172 30.6154 268.886 16.9184 296.655C5.05444 334.165 42.7349 350.57 62.2975 332.38C64.869 329.988 75.2866 315.377 80.3974 311.835" stroke="#82AAB3" stroke-opacity="0.25" stroke-linecap="round"/>
<path d="M36.4457 108.028C-0.472709 119.036 40.4066 158.484 53.6609 179.871L51.3647 178.689C28.8989 153.464 1.85748 117.642 36.4459 108.032L36.4457 108.028Z" fill="#82AAB3" fill-opacity="0.25" stroke="#82AAB3" stroke-opacity="0.25" stroke-width="0.3" stroke-linejoin="round"/>
<path d="M52.026 309.304C65.9571 332.219 38.2101 340.222 30.4665 336.919C31.6168 337.479 22.1654 331.351 23.3296 332.483C28.5809 337.591 30.838 341.121 38.3908 340.491C53.8688 338.414 65.2386 318.531 52.0259 309.305L52.026 309.304Z" fill="#82AAB3" fill-opacity="0.25" stroke="#82AAB3" stroke-opacity="0.25" stroke-width="0.2"/>
<path d="M33.0858 338.049C61.4271 356.848 60.5491 369.016 62.9129 378.307" stroke="#82AAB3" stroke-opacity="0.25" stroke-linecap="round"/>
<path d="M63.0205 331.672C73.1022 328.437 80.6368 331.055 86.2711 336.008" stroke="#82AAB3" stroke-opacity="0.25" stroke-linejoin="round"/>
<path d="M317.291 56.4242C269.822 56.761 196.545 47.6502 184.932 42.9297C-15.6613 -27.1923 -13.7144 113.953 56.1638 113.241" stroke="#82AAB3" stroke-opacity="0.25" stroke-linecap="round"/>
<path d="M77.8662 64.4495C74.4851 63.7192 69.7711 60.2608 66.5405 56.2471" stroke="#82AAB3" stroke-opacity="0.25" stroke-linecap="round"/>
<path d="M20.1198 90.7231C11.3766 69.5253 24.5948 45.6271 50.1027 44.5105" stroke="#82AAB3" stroke-opacity="0.25"/>
<path d="M13.8467 72.3429C21.1846 21.3136 107.172 18.8577 121.782 74.1348" stroke="#82AAB3" stroke-opacity="0.25" stroke-linecap="round"/>
<path d="M13.7217 74.4025C30.117 9.963 105.416 44.4481 111.212 53.6654C147.711 72.0583 171.587 57.0219 172.3 35.8202C172.691 24.1861 153.333 6.15679 139.511 23.7967C160.511 7.7811 171.308 31.873 168.806 43.3423C164.598 62.6275 132.74 66.3404 110.334 52.7043C106.096 39.8445 34.4519 7.13189 13.4999 72.0386L13.7217 74.4025Z" fill="#82AAB3" fill-opacity="0.25" stroke="#82AAB3" stroke-opacity="0.25" stroke-width="0.2"/>
<path d="M241.807 72.562C232.008 62.3742 200.502 60.402 180.39 52.7819C109.863 26.0601 80.3746 25.3592 57.3458 27.1875" stroke="#82AAB3" stroke-opacity="0.25"/>
<path d="M169.272 67.5061C161.262 57.0291 145.42 45.9578 117.222 32.625" stroke="#82AAB3" stroke-opacity="0.25" stroke-linecap="round"/>
<path d="M121.083 76.2342C112.374 78.5334 110.379 82.3213 110.564 85.6802C112.723 86.9718 119.453 85.5389 121.083 76.2342Z" fill="#82AAB3" fill-opacity="0.25" stroke="#82AAB3" stroke-opacity="0.25" stroke-width="0.4" stroke-linecap="round" stroke-linejoin="round"/>
<path d="M122.378 83.404C127.573 92.2676 128.432 101.134 122.716 101.52C117.847 102.01 116.804 93.6868 122.378 83.404Z" fill="#82AAB3" fill-opacity="0.25" stroke="#82AAB3" stroke-opacity="0.25"/>
<path d="M123.821 76.3635C132.544 78.6138 134.56 82.3902 134.393 85.7499C132.242 87.0537 125.504 85.6587 123.821 76.3635Z" fill="#82AAB3" fill-opacity="0.25" stroke="#82AAB3" stroke-opacity="0.25" stroke-width="0.4" stroke-linecap="round" stroke-linejoin="round"/>
<path d="M86.6163 238.469C83.2391 246.82 85.0767 250.686 87.8771 252.55C90.2044 251.596 93.0894 245.349 86.6163 238.469Z" fill="#82AAB3" fill-opacity="0.25" stroke="#82AAB3" stroke-opacity="0.25" stroke-width="0.4" stroke-linecap="round" stroke-linejoin="round"/>
<path d="M93.1322 241.728C103.342 242.879 110.955 247.503 107.84 252.311C105.315 256.502 98.0261 252.351 93.1322 241.728Z" fill="#82AAB3" fill-opacity="0.25" stroke="#82AAB3" stroke-opacity="0.25"/>
<path d="M88.3602 236.354C95.3876 230.719 99.619 231.367 102.209 233.513C101.964 236.017 96.8103 240.576 88.3602 236.354Z" fill="#82AAB3" fill-opacity="0.25" stroke="#82AAB3" stroke-opacity="0.25" stroke-width="0.4" stroke-linecap="round" stroke-linejoin="round"/>
<path d="M260.723 53.7383L270.841 60.7712" stroke="#82AAB3" stroke-opacity="0.25"/>
<path d="M271.956 58.1039C285.75 64.4757 294.091 64.1868 300.215 61.8632C299.974 63.5941 298.444 68.9532 286.351 66.3015C289.186 68.5576 293.709 69.6391 297.393 71.4733C298.753 72.15 302.826 76.6858 304.228 78.6396C302.216 78.5261 296.72 78.8037 295.182 78.0462C291.078 76.0243 287.413 71.9902 283.142 70.5232C292.286 79.4826 289.077 82.2311 287.705 84.6341C285.729 74.8532 275.894 68.9051 268.498 61.8924C267.617 58.5783 268.035 58.0933 271.956 58.1036L271.956 58.1039Z" fill="#82AAB3" fill-opacity="0.25" stroke="#82AAB3" stroke-opacity="0.25" stroke-width="0.2" stroke-linecap="round" stroke-linejoin="round"/>
<path d="M89.0118 335.547C98.5513 343.668 105.239 345.29 110.618 344.804C110.042 346.125 107.638 350.04 98.6238 345.251C100.374 347.672 103.725 349.534 106.244 351.809C107.173 352.648 109.401 357.153 110.081 359.016C108.508 358.479 104.082 357.48 103.029 356.537C100.219 354.021 98.2039 350.004 95.1387 347.892C100.411 357.035 97.2531 358.505 95.6305 360.109C96.2317 351.904 89.7416 344.998 85.4251 337.789C85.4609 334.962 85.9011 334.669 89.0119 335.547L89.0118 335.547Z" fill="#82AAB3" fill-opacity="0.25" stroke="#82AAB3" stroke-opacity="0.25" stroke-width="0.2" stroke-linecap="round" stroke-linejoin="round"/>
<path d="M33.9115 258.72C35.0398 267.657 32.2741 270.925 29.0901 272.01C27.0844 270.493 25.8937 263.715 33.9115 258.72Z" fill="#82AAB3" fill-opacity="0.25" stroke="#82AAB3" stroke-opacity="0.25" stroke-width="0.4" stroke-linecap="round" stroke-linejoin="round"/>
<path d="M26.7786 260.204C16.6146 258.704 8.07177 261.227 9.85282 266.672C11.2215 271.37 19.3298 269.222 26.7786 260.204Z" fill="#82AAB3" fill-opacity="0.25" stroke="#82AAB3" stroke-opacity="0.25"/>
<path d="M32.7668 256.23C27.4151 248.984 23.1586 248.528 20.1055 249.94C19.7018 252.423 23.5177 258.149 32.7668 256.23Z" fill="#82AAB3" fill-opacity="0.25" stroke="#82AAB3" stroke-opacity="0.25" stroke-width="0.4" stroke-linecap="round" stroke-linejoin="round"/>
<path d="M18.2735 122.211C30.499 108.147 35.7591 131.397 26.3716 137.736C13.8757 144.733 32.5576 157.281 38.0244 140.057C41.4025 130.763 39.4337 124.4 34.115 116.28C30.156 110.833 28.0239 104.499 31.3204 92.3758C33.5181 84.365 42.9649 83.8766 43.6859 83.8532C53.821 83.5252 53.8416 90.689 54.617 93.6096C55.3055 100.856 50.3628 105.38 46.7246 106.455C35.1684 109.871 37.971 108.43 34.5327 108.575L34.0256 106.616C37.5027 107.116 43.6491 107.213 46.1032 105.776C50.5276 103.185 53.3348 100.076 53.3781 93.6127C53.8196 83.7946 36.2098 80.6891 32.2504 92.3727C30.4385 102.709 36.4798 110.484 40.1958 119.421C44.502 128.481 42.046 138.069 40.0786 143.209C33.147 156.229 14.7637 146.414 20.369 139.921C35.3496 121.709 27.8539 113.965 18.2736 122.21L18.2735 122.211Z" fill="#82AAB3" fill-opacity="0.25" stroke="#82AAB3" stroke-opacity="0.25" stroke-width="0.2"/>
<path d="M241.667 72.4394C245.574 71.7905 249.809 73.4247 249.306 79.1388C249.91 79.2952 250.737 79.3166 251.258 79.2261C249.57 75.8359 254.198 71.7968 257.505 75.8009C261.448 79.3915 264.855 77.7444 267.793 77.6297C265.525 82.697 261.384 81.6436 257.521 81.5001C255.161 82.3088 256.557 84.9947 258.274 84.9671C263.519 83.4424 265.694 89.5053 265.48 91.8845C265.004 96.2369 265.809 96.9783 266.181 98.6039C263.93 97.5011 261.417 97.5446 258.93 97.4788C253.018 97.04 252.883 93.1948 252.588 89.4438C252.177 86.9305 249.702 87.2154 249.614 89.2045C249.895 92.633 251.826 95.7456 245.617 99.5611C245.393 96.5162 246.102 91.1586 244.367 90.226C241.513 88.4367 240.434 82.1606 247.21 82.5517C247.174 82.0841 247.165 81.3335 246.864 80.7871C242.379 81.4018 240.355 76.6051 241.667 72.4391L241.667 72.4394Z" fill="#82AAB3" fill-opacity="0.25" stroke="#82AAB3" stroke-opacity="0.25" stroke-width="0.2"/>
<path d="M77.5475 64.5374C79.9008 61.3517 84.0789 59.5766 87.6951 64.0293C88.2374 63.7212 88.8461 63.1609 89.1569 62.7334C85.5854 61.4744 86.096 55.3531 91.2573 55.9258C96.588 55.7583 97.8874 52.204 99.9168 50.0765C101.816 55.293 98.1104 57.4192 95.2364 60.0059C94.1052 62.2292 96.9771 63.1858 98.1907 61.9704C100.895 57.2246 106.677 60.0634 108.179 61.9203C110.868 65.3763 111.961 65.3487 113.36 66.2564C110.976 67.0319 109.203 68.8121 107.371 70.4964C102.821 74.2971 100.047 71.6305 97.225 69.1426C95.1804 67.6246 93.6016 69.552 94.9233 71.0413C97.5116 73.3069 101.065 74.197 99.2637 81.2588C96.9832 79.2288 93.7623 74.8891 91.8675 75.4274C88.5734 76.1293 83.43 72.3744 88.5663 67.9388C88.2155 67.6277 87.6861 67.0954 87.0898 66.9127C84.2981 70.4758 79.5059 68.4411 77.5476 64.5371L77.5475 64.5374Z" fill="#82AAB3" fill-opacity="0.25" stroke="#82AAB3" stroke-opacity="0.25" stroke-width="0.2"/>
<path d="M43.0555 235.94C41.98 232.128 38.6989 228.99 33.7422 231.878C33.3437 231.398 32.9724 230.658 32.8327 230.149C36.6188 230.233 38.3046 224.326 33.274 223.038C28.3466 220.997 28.3873 217.213 27.2408 214.506C23.6201 218.714 26.3355 222.013 28.1096 225.448C28.3819 227.928 25.3573 227.807 24.6516 226.242C23.7993 220.846 17.3873 221.458 15.3253 222.664C11.5891 224.947 10.5761 224.535 8.94647 224.89C10.9025 226.457 11.9322 228.75 13.0503 230.973C15.9634 236.136 19.5005 234.622 23.0203 233.292C25.4695 232.595 26.2651 234.956 24.5024 235.882C21.2804 237.087 17.6416 236.663 16.8309 243.906C19.6817 242.813 24.2286 239.892 25.8108 241.065C28.6442 242.886 34.7828 241.191 31.5458 235.227C31.9839 235.06 32.6672 234.749 33.2897 234.789C34.6419 239.108 39.8439 238.899 43.0557 235.939L43.0555 235.94Z" fill="#82AAB3" fill-opacity="0.25" stroke="#82AAB3" stroke-opacity="0.25" stroke-width="0.2"/>
<path d="M57.8098 253.037C55.2443 256.448 54.6971 261.308 60.4079 263.673C60.2567 264.328 59.8654 265.129 59.5196 265.581C57.1204 262.28 50.9565 264.691 53.1362 269.845C54.6036 275.401 51.3332 277.836 49.7608 280.587C55.7322 280.943 56.7872 276.462 58.574 272.698C60.5218 270.846 62.3933 273.517 61.5118 275.144C57.4433 279.397 62.1539 284.494 64.534 285.475C68.9299 287.187 69.238 288.325 70.6059 289.49C70.673 286.789 71.9656 284.41 73.1412 282.001C75.6657 276.133 72.0586 274.089 68.6209 271.94C66.424 270.295 67.9286 268.072 69.8732 268.979C73.0093 270.954 75.022 274.35 81.7601 270.316C78.962 268.586 73.4896 266.596 73.4624 264.473C73.1734 260.856 67.7132 256.7 64.7134 263.369C64.2842 263.102 63.5717 262.72 63.1994 262.16C66.0197 258.181 62.4439 253.858 57.8098 253.038L57.8098 253.037Z" fill="#82AAB3" fill-opacity="0.25" stroke="#82AAB3" stroke-opacity="0.25" stroke-width="0.2"/>
<path d="M318.662 57.8901C320.276 66.7523 323.897 69.0363 327.26 69.1133C328.716 67.0622 327.812 60.2407 318.662 57.8901Z" fill="#82AAB3" fill-opacity="0.25" stroke="#82AAB3" stroke-opacity="0.25" stroke-width="0.4" stroke-linecap="round" stroke-linejoin="round"/>
<path d="M325.911 57.1586C335.153 52.6695 344.059 52.5045 343.999 58.2333C344.107 63.1251 335.728 63.5164 325.911 57.1586Z" fill="#82AAB3" fill-opacity="0.25" stroke="#82AAB3" stroke-opacity="0.25"/>
<path d="M319.005 55.1704C321.928 46.65 325.85 44.9346 329.186 45.3625C330.318 47.6087 328.402 54.2177 319.005 55.1704Z" fill="#82AAB3" fill-opacity="0.25" stroke="#82AAB3" stroke-opacity="0.25" stroke-width="0.4" stroke-linecap="round" stroke-linejoin="round"/>
<path d="M58.4917 110.775C73.6612 109.89 80.8802 105.702 85.185 100.766C85.7886 102.406 86.9659 107.853 75.0521 111.216C78.6155 111.869 83.1137 110.69 87.2282 110.571C88.746 110.527 94.4767 112.606 96.6347 113.668C94.8066 114.517 90.0906 117.353 88.3774 117.41C83.8048 117.562 78.6704 115.733 74.2125 116.452C86.4999 120.042 84.9663 123.979 84.8893 126.744C78.5347 119.051 67.0573 118.443 57.2284 115.745C54.8889 113.238 55.0295 112.613 58.4917 110.773L58.4917 110.775Z" fill="#82AAB3" fill-opacity="0.25" stroke="#82AAB3" stroke-opacity="0.25" stroke-width="0.2" stroke-linecap="round" stroke-linejoin="round"/>
<path d="M86.8391 188.573C102.009 187.688 109.228 183.501 113.532 178.564C114.136 180.204 115.313 185.652 103.399 189.015C106.963 189.668 111.461 188.489 115.576 188.369C117.093 188.325 122.824 190.405 124.982 191.467C123.154 192.315 118.438 195.152 116.725 195.208C112.152 195.361 107.018 193.531 102.56 194.251C114.847 197.841 113.314 201.777 113.237 204.543C106.882 196.849 95.4045 196.242 85.5757 193.544C83.2362 191.037 83.3768 190.411 86.839 188.572L86.8391 188.573Z" fill="#82AAB3" fill-opacity="0.25" stroke="#82AAB3" stroke-opacity="0.25" stroke-width="0.2" stroke-linecap="round" stroke-linejoin="round"/>
<path d="M82.8422 312.072C89.1684 318.485 93.4468 318.331 96.2686 316.5C96.3158 313.985 91.7255 308.859 82.8422 312.072Z" fill="#82AAB3" fill-opacity="0.25" stroke="#82AAB3" stroke-opacity="0.25" stroke-width="0.4" stroke-linecap="round" stroke-linejoin="round"/>
<path d="M88.4189 307.383C93.5246 298.468 100.789 293.313 103.968 298.08C106.813 302.06 100.112 307.105 88.4189 307.383Z" fill="#82AAB3" fill-opacity="0.25" stroke="#82AAB3" stroke-opacity="0.25"/>
<path d="M81.5927 309.632C79.207 300.946 81.4807 297.319 84.4783 295.793C86.6792 297.01 88.8201 303.55 81.5927 309.632Z" fill="#82AAB3" fill-opacity="0.25" stroke="#82AAB3" stroke-opacity="0.25" stroke-width="0.4" stroke-linecap="round" stroke-linejoin="round"/>
<path d="M61.8188 380.051C53.377 383.194 51.7635 387.159 52.2775 390.484C54.5522 391.558 61.1094 389.471 61.8188 380.051Z" fill="#82AAB3" fill-opacity="0.25" stroke="#82AAB3" stroke-opacity="0.25" stroke-width="0.4" stroke-linecap="round" stroke-linejoin="round"/>
<path d="M63.8102 387.059C69.8507 395.37 71.5752 404.109 65.9247 405.055C61.1278 406.02 59.2729 397.84 63.8102 387.059Z" fill="#82AAB3" fill-opacity="0.25" stroke="#82AAB3" stroke-opacity="0.25"/>
<path d="M64.5563 379.911C73.4573 381.295 75.834 384.855 75.998 388.215C73.9852 389.724 67.1426 388.997 64.5563 379.911Z" fill="#82AAB3" fill-opacity="0.25" stroke="#82AAB3" stroke-opacity="0.25" stroke-width="0.4" stroke-linecap="round" stroke-linejoin="round"/>
<path d="M172.862 67.3097C183.768 77.8893 191.735 80.3783 198.282 80.2135C197.482 81.767 194.263 86.317 183.731 79.811C185.659 82.8784 189.568 85.3963 192.437 88.3472C193.496 89.4358 195.838 95.0644 196.514 97.3723C194.653 96.5989 189.375 95.0411 188.175 93.8172C184.972 90.5505 182.849 85.5302 179.305 82.7317C184.966 94.2134 181.028 95.7438 178.938 97.5578C180.312 87.6742 173.001 78.8058 168.344 69.7392C168.61 66.3204 169.166 66.0014 172.862 67.3092L172.862 67.3097Z" fill="#82AAB3" fill-opacity="0.25" stroke="#82AAB3" stroke-opacity="0.25" stroke-width="0.2" stroke-linecap="round" stroke-linejoin="round"/>
</g>
<defs>
<clipPath id="clip0_69_2">
<rect width="344.33" height="404.82" fill="white" transform="translate(0 0.992676) rotate(-0.165166)"/>
</clipPath>
</defs>
</svg>
