<svg width="428" height="151" viewBox="0 0 428 151" fill="none" xmlns="http://www.w3.org/2000/svg">
<g filter="url(#filter0_d_1_532)">
<path d="M157.381 7.85422H157.581C157.559 10.731 156.836 13.5662 155.776 16.2274C155.413 17.133 154.958 18.0231 154.248 18.7084C151.846 21.1248 148.798 22.7526 145.755 24.2125C142.907 29.6982 141.198 35.8414 141.303 42.0478C141.366 48.6684 143.44 55.1289 146.526 60.9394C150.404 68.1823 155.653 74.5857 161.26 80.5488C163.398 82.7926 165.939 84.6268 168.682 86.0591C174.09 88.8973 180.107 90.3188 185.539 93.1017C190.398 95.6828 195.013 98.6982 199.456 101.934C204.24 105.433 208.835 109.186 213.23 113.161C213.435 113.307 213.692 113.66 213.913 113.329C222.605 105.488 231.843 98.0791 242.32 92.749C247.954 89.8891 253.924 87.6545 260.111 86.3409C260.482 86.2654 260.852 86.1268 261.106 85.8296C263.158 83.6766 265.227 81.5359 267.287 79.3891C268.712 77.9523 270.039 76.4215 271.496 75.0185C268.27 78.8332 264.791 82.4276 261.357 86.0544C265.911 85.1119 270.605 84.7623 275.237 85.2428C275.674 85.2783 276.163 85.3814 276.554 85.1104C284.778 80.1284 293.568 76.1273 301.595 70.8157C293.736 76.2967 285.457 81.1817 276.837 85.3707C283.382 86.5904 289.718 88.6756 296.077 90.6053C302.182 92.4579 308.325 94.2952 314.654 95.2069C318.578 95.7659 322.578 95.9661 326.52 95.4702C329.845 95.056 333.118 94.1289 336.118 92.6243C337.325 92.0652 338.426 91.3075 339.583 90.6545C336.806 92.6828 333.652 94.1227 330.474 95.4009C336.897 94.5816 343.402 95.2161 349.746 96.3558C352.281 96.8008 354.789 97.3814 357.31 97.9004C357.514 97.7079 357.722 97.5169 357.931 97.326C358.199 97.7125 358.419 98.2423 358.958 98.2931C363.873 99.4143 368.765 100.626 373.712 101.603C378.352 102.488 383.077 103.158 387.813 102.939C391.697 102.758 395.617 101.874 398.987 99.8763C400.983 98.7782 402.676 97.2228 404.223 95.5688C402.354 97.8773 399.985 99.7546 397.441 101.272C393.338 103.656 388.439 104.093 383.79 103.857C378.87 103.599 374.028 102.619 369.221 101.595C365.856 100.851 362.497 100.092 359.139 99.325C360.435 101.911 361.476 104.63 362.179 107.438C362.423 108.46 362.734 109.5 362.597 110.564C362.28 113.946 361.091 117.196 359.544 120.2C359.003 121.127 358.624 122.221 357.697 122.846C357.776 121.683 358.174 120.522 357.939 119.355C357.5 116.767 356.403 114.365 355.499 111.921C354.54 109.388 353.641 106.683 354.064 103.939C354.324 101.991 355.344 100.255 356.539 98.7336C350.596 97.4754 344.604 96.3234 338.527 95.98C334.618 95.7675 330.675 95.8645 326.813 96.5329C324.959 96.7885 323.114 97.2397 321.233 97.2136C322.339 97.4369 323.074 98.3378 323.922 99C325.621 100.335 327.605 101.228 329.527 102.188C330.026 102.374 329.999 102.941 330.001 103.38C330.407 103.83 330.822 104.273 331.222 104.731C331.173 105.025 331.036 105.325 331.107 105.627C331.358 106.12 331.821 106.495 331.971 107.044C331.969 107.498 331.769 107.926 331.764 108.38C331.83 108.813 332.078 109.217 332.058 109.663C331.944 109.956 331.744 110.205 331.576 110.466C331.766 111.179 332.259 111.946 331.85 112.674C331.407 113.325 332.123 114.023 331.869 114.707C331.767 115.03 331.621 115.337 331.489 115.649C331.693 116.148 331.872 116.658 332.012 117.182C331.884 117.399 331.763 117.619 331.647 117.841C332 118.186 332.345 118.54 332.644 118.937C332.426 119.415 332.179 119.9 332.165 120.436C332.146 121.101 332.251 121.763 332.237 122.432C331.706 122.33 331.073 122.21 330.776 121.708C330.614 121.207 330.812 120.675 330.873 120.173C330.189 120.072 329.494 119.992 328.858 119.715C328.817 119.372 328.807 119.025 328.71 118.694C327.893 118.512 327.05 118.645 326.225 118.652C326.2 118.428 326.179 118.203 326.16 117.979C325.501 117.856 324.794 117.867 324.186 117.564C324.076 117.286 324.113 116.957 323.956 116.706C323.433 116.276 322.703 116.278 322.136 115.933C322.084 115.605 322.111 115.269 322.044 114.946C321.092 114.054 319.844 113.541 318.92 112.609C317.902 111.701 317.497 110.316 317.371 109.001C317.203 107.036 317.328 105.054 317.621 103.106C317.905 101.532 318.217 99.9071 319.085 98.5334C319.393 98.0113 319.872 97.6217 320.394 97.3229C316.672 97.5262 312.93 97.209 309.277 96.4743C303.423 95.3686 297.968 92.8506 292.224 91.3491C294.297 92.9754 296.303 94.7079 298.022 96.7161C302.041 101.299 304.937 106.899 306.17 112.88C306.888 116.429 307.007 120.125 306.29 123.685C305.739 126.465 304.667 129.151 303.078 131.501C301.515 133.843 299.446 135.832 297.098 137.376C294.511 139.08 291.603 140.265 288.605 141.022C286.413 141.611 284.157 141.89 281.908 142.146H279.623C275.014 142 270.327 140.888 266.466 138.283C262.545 135.696 259.704 131.632 258.375 127.147C256.541 121.052 257.174 114.41 259.367 108.494C258.335 112.435 257.66 116.504 257.842 120.59C258.021 125.279 259.341 130.078 262.355 133.757C264.109 135.916 266.413 137.609 268.966 138.701C272.094 140.053 275.53 140.555 278.921 140.544C284.622 140.598 290.283 138.772 294.976 135.554C299.157 132.739 302.474 128.658 304.336 123.972C305.662 120.619 306.07 116.912 305.491 113.353C304.659 108.049 301.895 103.241 298.455 99.1956C294.729 94.7818 289.941 91.2228 284.503 89.2254C286.355 92.0437 287.885 95.0652 289.159 98.1853C290.249 101.013 291.301 103.967 291.216 107.039C290.972 110.082 290.055 113.028 288.988 115.873C287.992 118.44 286.935 121.058 285.207 123.228C284.919 122.461 285.22 121.651 285.286 120.873C285.649 118.344 284.67 115.899 283.738 113.603C282.438 110.45 281.012 107.335 280.08 104.047C279.344 101.382 279.13 98.4918 280.01 95.8352C280.855 93.2911 282.409 91.0026 284.376 89.1899C280.904 87.9286 277.214 87.3357 273.531 87.2356C266.68 87.0785 259.904 88.6617 253.51 91.021C247.675 93.1894 242.109 96.0293 236.782 99.2372C231.486 102.453 226.398 106.013 221.577 109.907C219.438 111.547 217.428 113.347 215.369 115.086C219.37 118.659 223.652 121.914 227.491 125.667C229.342 127.534 231.212 129.467 232.376 131.857C230.342 131.51 228.645 130.238 227.031 129.034C222.238 125.265 218.114 120.75 213.675 116.589C210.457 119.592 207.429 122.795 204.167 125.754C202.176 127.528 200.183 129.331 197.89 130.713C196.992 131.256 196.016 131.684 194.975 131.858C196.103 129.516 197.925 127.62 199.735 125.795C203.617 122.002 207.949 118.716 211.977 115.084C202.296 106.571 191.664 98.9831 179.879 93.6622C173.531 90.8409 166.82 88.6941 159.888 87.981C154.359 87.4143 148.675 87.8178 143.396 89.6273C144.997 91.3383 146.454 93.2603 147.198 95.5103C148.114 98.0637 148.091 100.876 147.44 103.489C146.63 106.763 145.148 109.813 143.893 112.93C143.057 114.944 142.176 116.998 141.999 119.196C141.902 120.39 142.216 121.557 142.297 122.74C142.344 123.009 141.945 123.257 141.842 122.906C139.679 119.743 138.332 116.105 137.212 112.465C136.55 110.058 135.871 107.553 136.224 105.039C136.553 102.496 137.434 100.07 138.386 97.7033C139.519 95.0313 140.811 92.4179 142.376 89.9723C136.998 91.9974 132.199 95.4317 128.397 99.7238C125.104 103.412 122.602 107.929 121.81 112.847C121.274 116.087 121.536 119.446 122.53 122.575C123.732 126.29 125.865 129.681 128.582 132.474C133.046 136.867 139.039 139.6 145.227 140.404C151.29 141.159 157.672 139.612 162.543 135.879C166.616 132.807 169.562 128.151 170.2 123.051C170.643 119.931 170.026 116.804 169.461 113.744C169.79 115.186 170.155 116.623 170.382 118.086C170.89 121.278 170.936 124.588 170.131 127.737C169.467 130.378 168.163 132.866 166.304 134.863C164.402 136.93 161.972 138.464 159.37 139.492C154.314 141.474 148.715 141.736 143.385 140.929C137.357 139.984 131.456 137.641 126.745 133.711C123.321 130.863 120.624 127.02 119.596 122.65C118.701 118.971 119.018 115.075 120.142 111.484C121.408 107.402 123.597 103.668 126.138 100.255C128.838 96.6145 132.135 93.4189 135.888 90.8717C129.654 92.923 123.264 94.6448 116.719 95.2962C117.244 95.2023 117.771 95.1191 118.294 95.0175C124.416 93.71 130.313 91.5693 136.213 89.5195C140.899 87.8794 145.626 86.2947 150.514 85.3707C146.976 83.6458 143.488 81.8209 140.072 79.8681C135.52 77.2454 131.031 74.4964 126.732 71.4733C130.046 73.557 133.433 75.5252 136.883 77.3778C141.444 79.8804 146.089 82.2398 150.529 84.9579C150.8 85.1012 151.071 85.3183 151.399 85.2906C156.213 84.8609 161.141 84.7392 165.877 85.8619C161.834 81.9179 157.707 78.0601 153.792 73.9867C149.947 69.941 146.342 65.5796 143.799 60.5821C140.801 54.7562 139.451 48.0893 139.986 41.5565C140.469 35.3701 142.598 29.3763 145.795 24.0801C145.376 21.8039 145.555 19.309 146.868 17.3409C148.302 15.0924 150.743 13.8465 152.916 12.4389C154.003 11.6951 155.174 11.0313 156.078 10.0549C156.669 9.42352 156.96 8.59498 157.381 7.85422ZM320.487 98.5134C320.351 99.6422 320.554 100.78 320.868 101.863C321.831 105.059 323.425 108.019 325.156 110.857C326.414 113.011 327.882 115.032 329.288 117.091C328.911 116.389 328.467 115.726 328.064 115.041C326.551 112.589 325.222 110.031 323.858 107.496C322.733 105.342 321.501 103.214 320.839 100.859C320.604 100.095 320.677 99.2834 320.487 98.5134Z" fill="#82AAB3" fill-opacity="0.8"/>
<path d="M269.765 7.85422H269.97C270.484 8.84138 270.946 9.90863 271.847 10.6171C273.437 11.8984 275.223 12.9025 276.926 14.0205C278.551 15.0693 280.094 16.386 280.941 18.1633C281.817 19.9251 281.902 21.9702 281.585 23.883C283.59 26.8799 285.318 30.0955 286.381 33.5529C287.6 37.3737 287.984 41.4533 287.523 45.4358C286.849 51.2402 284.509 56.729 281.489 61.6863C282.423 59.5195 283.308 57.3265 283.933 55.0472C285.005 51.2664 285.608 47.3532 285.72 43.4261C285.891 37.2259 284.882 30.8948 282.125 25.2967C281.859 24.7716 281.625 24.1463 281.024 23.9261C278.645 22.8234 276.323 21.5467 274.305 19.8573C273.337 19.0195 272.38 18.0986 271.87 16.9004C270.605 14.0575 269.811 10.9743 269.765 7.85422Z" fill="#82AAB3" fill-opacity="0.8"/>
<path d="M131.864 10.0673C133.241 10.3907 134.454 11.153 135.632 11.9045C137.477 13.1458 139.305 14.5411 140.497 16.4538C141.574 18.1278 142.039 20.0975 142.378 22.0349C142.646 23.652 142.874 25.2859 142.887 26.9276C141.751 26.6889 140.591 26.4425 139.576 25.8527C138.07 24.981 136.844 23.6242 136.145 22.0303C134.802 18.9271 134.952 15.402 133.544 12.3219C133.154 11.4533 132.44 10.8049 131.864 10.0673Z" fill="#82AAB3" fill-opacity="0.8"/>
<path d="M291.735 11.8922C292.906 11.1437 294.118 10.3922 295.485 10.0673C294.971 10.7433 294.278 11.2885 293.913 12.0693C293.449 13.0257 293.245 14.076 292.998 15.1017C292.411 17.4425 292.254 19.9174 291.201 22.1212C290.426 23.8075 289.07 25.2228 287.38 26.0051C286.456 26.4548 285.46 26.7305 284.456 26.9261C284.482 25.1797 284.73 23.444 285.029 21.7254C285.364 19.9143 285.816 18.0786 286.81 16.5062C288.007 14.558 289.869 13.155 291.735 11.8922Z" fill="#82AAB3" fill-opacity="0.8"/>
<path d="M153.997 24.7608C155.784 23.7213 157.758 22.7803 159.877 22.8619C161.799 22.9112 163.559 23.8352 165.079 24.9471C163.392 26.3516 161.65 27.7053 159.728 28.7772C157.983 29.749 156.076 30.6484 154.031 30.5837C152.037 30.4913 150.064 30.1155 148.136 29.6027C147.116 29.3193 146.086 29.0082 145.19 28.4292C146.068 28.1196 147.044 28.4523 147.906 28.0796C150.067 27.2325 152 25.922 153.997 24.7608Z" fill="#82AAB3" fill-opacity="0.8"/>
<path d="M262.27 24.9471C263.842 23.7906 265.686 22.8434 267.685 22.8573C269.864 22.8434 271.857 23.8768 273.685 24.9579C275.5 26.0329 277.281 27.1956 279.24 27.9995C280.151 28.4446 281.189 28.1858 282.158 28.3552C281.898 28.6309 281.568 28.8173 281.219 28.9466C279.545 29.5919 277.787 29.9939 276.024 30.2957C274.29 30.5652 272.466 30.8039 270.772 30.2064C267.578 29.1299 264.834 27.0801 262.27 24.9471Z" fill="#82AAB3" fill-opacity="0.8"/>
<path d="M95.3078 32.4055C95.7328 32.5041 96.2641 32.4733 96.566 32.8491C96.8155 33.2064 96.6291 33.6607 96.5875 34.0549C97.0249 34.058 97.5023 33.924 97.9181 34.1058C98.126 34.3722 98.2523 34.6925 98.414 34.9882C98.9592 34.9066 99.5028 34.808 100.051 34.7433C100.082 34.8742 100.147 35.136 100.177 35.2669C100.587 35.2515 101.001 35.1453 101.411 35.2053C101.651 35.367 101.637 35.6966 101.734 35.9415C102.167 36.1201 102.648 36.1417 103.083 36.3126C103.284 36.5236 103.265 36.8609 103.351 37.1319C104.329 37.6016 105.338 38.0575 106.156 38.789C107.285 40.1119 107.534 41.9168 107.585 43.5955C107.616 45.2788 107.559 47.0375 106.809 48.5791C106.579 49.1258 106.1 49.5631 105.54 49.7449C104.676 49.7403 103.997 49.1196 103.271 48.7377C101.836 47.8013 100.136 47.4394 98.625 46.6602C98.7112 45.944 98.0151 45.6561 97.6147 45.2094C97.5085 44.9584 97.6656 44.6427 97.4807 44.4179C97.2297 44.0821 96.9417 43.7757 96.6861 43.4446C96.7723 43.1858 96.8755 42.9286 96.914 42.6561C96.8108 42.2911 96.5968 41.9738 96.4243 41.6412C96.5721 41.424 96.7292 41.21 96.8355 40.9666C96.7215 40.463 96.2564 40.0041 96.4782 39.4666C96.6645 38.9692 96.4397 38.4779 96.2549 38.019C96.335 37.8096 96.4166 37.5986 96.5013 37.3907C96.1671 36.924 95.9114 36.3588 96.2071 35.8013C95.9438 35.5411 95.6758 35.2854 95.4125 35.0267C95.7621 34.172 95.6219 33.2449 95.3078 32.4055ZM98.2708 36.4651C99.6414 38.3855 101.072 40.2644 102.392 42.2202C103.291 43.5539 104.277 44.8414 104.992 46.2875C105.378 47.0606 105.526 47.9215 105.814 48.7315C105.737 47.7105 105.387 46.7341 104.978 45.8054C104.001 43.6694 102.68 41.7012 101.188 39.8932C100.194 38.7675 99.2795 37.5755 98.2708 36.4651Z" fill="#82AAB3" fill-opacity="0.8"/>
<path d="M330.825 32.7937C331.145 32.4779 331.632 32.4995 332.045 32.4009C331.727 33.2403 331.587 34.1627 331.935 35.0175C331.687 35.2531 331.441 35.4887 331.199 35.7259C331.384 36.3065 331.181 36.8855 330.854 37.3676C330.931 37.5863 331.011 37.8034 331.094 38.0221C330.796 38.6027 330.706 39.2541 330.98 39.8624C330.816 40.2228 330.612 40.5693 330.52 40.9559C330.597 41.2161 330.777 41.4271 330.928 41.6504C330.748 41.9785 330.537 42.2942 330.434 42.6561C330.469 42.9271 330.575 43.1828 330.665 43.443C330.289 43.9897 329.548 44.4256 329.787 45.1925C329.329 45.6053 328.658 45.941 328.726 46.6602C327.392 47.3532 325.909 47.7059 324.592 48.4358C323.691 48.8855 322.918 49.6479 321.879 49.7587C321.293 49.614 320.799 49.1597 320.557 48.6145C319.835 47.1576 319.746 45.4928 319.755 43.8943C319.8 42.422 319.906 40.8758 320.659 39.5698C321.306 38.2654 322.784 37.7587 323.999 37.1319C324.042 36.8624 324.072 36.5852 324.156 36.3234C324.56 36.174 325.002 36.154 325.412 36.0108C325.738 35.9538 325.646 35.5334 325.752 35.2962C326.226 35.2254 326.71 35.2069 327.193 35.2115C327.221 35.0929 327.275 34.8573 327.301 34.7387C327.805 34.7957 328.304 34.9297 328.815 34.9466C329.22 34.9405 329.185 34.4477 329.285 34.172C329.756 34.0195 330.255 34.0072 330.751 34.0195C330.714 33.6191 330.518 33.1355 330.825 32.7937ZM323.165 44.2362C322.432 45.6022 321.689 47.039 321.574 48.6099C321.732 48.1679 321.837 47.7089 321.979 47.2623C322.461 45.73 323.45 44.4364 324.334 43.1196C325.926 40.7603 327.615 38.4702 329.303 36.1787C327.146 38.7752 324.786 41.2485 323.165 44.2362Z" fill="#82AAB3" fill-opacity="0.8"/>
<path d="M122.891 36.1248C123.911 36.094 124.944 35.9738 125.864 35.4933C125.793 36.0247 125.893 36.6653 125.508 37.095C125.131 37.3044 124.664 37.1658 124.253 37.212C124.298 37.6987 124.422 38.1761 124.442 38.6658C124.164 38.9615 123.805 39.1664 123.523 39.4605C123.669 40.0272 123.88 40.5724 124.114 41.1083C123.934 41.2454 123.752 41.3809 123.571 41.5134C123.535 42.0339 123.638 42.5467 123.788 43.0442C123.534 43.1889 123.276 43.3245 123.019 43.4554C122.948 44.0067 122.928 44.5627 122.893 45.1171C122.613 45.1956 122.329 45.2695 122.049 45.345C121.669 46.5462 121.347 47.7937 120.634 48.8517C119.699 49.9775 118.314 50.6243 116.915 50.96C114.912 51.4821 112.824 51.827 110.754 51.6007C109.736 51.4667 108.554 51.0447 108.17 49.9959C108.25 48.9857 108.681 48.0447 109.037 47.1084C109.741 45.4097 109.89 43.5555 110.453 41.8152C110.693 41.7305 110.976 41.7182 111.179 41.5503C111.378 41.2639 111.447 40.9128 111.626 40.6155C111.889 40.3861 112.264 40.3907 112.589 40.3198C112.91 39.9302 113.178 39.4759 113.607 39.1925C113.918 38.9785 114.3 39.1741 114.646 39.1571C114.957 38.9969 115.213 38.7459 115.525 38.5842C115.841 38.5257 116.134 38.7305 116.431 38.8137C117.005 38.5642 117.47 37.979 118.148 38.056C118.686 38.0976 119.168 37.8404 119.642 37.6263C119.955 37.6479 120.278 37.7326 120.592 37.6586C120.954 37.5077 121.233 37.2059 121.596 37.0534C121.826 37.0195 122.061 37.0211 122.294 36.9826C122.543 36.7362 122.702 36.4174 122.891 36.1248ZM116.704 44.7629C115.028 46.3768 113.346 48.0262 111.366 49.2675C110.713 49.6941 109.977 49.9621 109.305 50.3501C112.179 49.4261 114.58 47.4595 116.699 45.3681C118.313 43.6802 119.873 41.9353 121.333 40.1135C119.799 41.672 118.277 43.2428 116.704 44.7629Z" fill="#82AAB3" fill-opacity="0.8"/>
<path d="M301.521 35.615C302.192 35.8121 302.853 36.0785 303.557 36.1401C303.868 36.1894 304.204 36.1725 304.501 36.3049C304.746 36.519 304.89 36.8193 305.071 37.0888C305.285 37.0565 305.505 37.0226 305.725 36.9856C306.155 37.2598 306.575 37.5508 307.022 37.8018C307.507 37.6401 308.064 37.5308 308.49 37.902C308.828 38.2223 309.269 38.1468 309.683 38.0483C310.088 38.3178 310.496 38.5873 310.927 38.8183C311.188 38.7182 311.443 38.5996 311.727 38.5534C312.078 38.6982 312.358 38.9661 312.686 39.1571C312.936 39.194 313.18 39.0785 313.433 39.037C313.907 39.2279 314.232 39.6237 314.513 40.0364C314.759 40.4908 315.401 40.2983 315.735 40.6371C315.911 40.9358 315.973 41.2962 316.194 41.5734C316.401 41.712 316.659 41.7397 316.9 41.8152C317.428 43.4584 317.625 45.1879 318.198 46.8188C318.532 47.7336 318.951 48.6252 319.137 49.5878C319.271 50.0405 319.03 50.5488 318.692 50.8429C317.326 51.5852 315.722 51.7238 314.195 51.6499C312.41 51.5375 310.644 51.1371 308.979 50.4856C307.88 49.9913 306.771 49.252 306.289 48.0986C305.865 47.3101 305.665 46.4369 305.377 45.5975C305.249 45.2141 304.758 45.2187 304.452 45.0724C304.408 44.5334 304.396 43.9913 304.333 43.4538C304.073 43.3137 303.74 43.2505 303.58 42.9841C303.612 42.5513 303.762 42.1386 303.825 41.7105C303.682 41.5133 303.464 41.3978 303.277 41.2577C303.492 40.6401 303.654 40.0041 303.786 39.3634C303.471 39.114 303.156 38.8629 302.879 38.5749C302.979 38.1391 303.069 37.6987 303.099 37.2521C302.671 37.192 302.172 37.2952 301.814 37.0118C301.481 36.6345 301.559 36.0801 301.521 35.615ZM306.238 40.3876C308.069 42.616 309.965 44.8106 312.158 46.6956C313.918 48.1863 315.814 49.6324 318.033 50.3501C317.228 49.8758 316.27 49.6632 315.575 49.0056C313.347 47.2947 311.283 45.3819 309.273 43.4215C308.229 42.442 307.311 41.3347 306.238 40.3876Z" fill="#82AAB3" fill-opacity="0.8"/>
<path d="M96.1748 48.3958C97.9443 49.1289 99.5568 50.2392 101.425 50.7244C102.387 50.9661 103.485 51.2002 104.106 52.0488C104.477 53.3209 103.838 54.6207 103.085 55.6217C101.428 57.7008 99.221 59.2993 96.8586 60.4898C95.0937 61.2613 93.3088 60.2264 91.661 59.6458C91.373 59.8199 91.0819 59.9908 90.7847 60.1464C90.3781 59.8229 90.0131 59.3994 89.5018 59.2485C89.2431 59.3163 88.9983 59.4256 88.7503 59.5242C88.3653 59.1623 88.0003 58.7788 87.6276 58.4046C87.4305 58.44 87.2334 58.48 87.0347 58.4954C86.5711 58.1736 86.528 57.5006 86.0891 57.151C85.7518 56.9754 85.4023 57.2711 85.0896 57.3681C84.6369 57.0216 84.3073 56.5303 83.7975 56.2577C83.5865 56.5503 83.374 56.843 83.1538 57.1279C82.5332 57.1217 81.9772 56.8445 81.5706 56.3825C82.4731 55.9436 83.3417 55.3784 83.8499 54.4821C84.238 54.5005 84.6261 54.5406 85.0126 54.5976C85.1558 54.3927 85.2975 54.1864 85.4392 53.9816C85.8658 53.8599 86.2939 53.7398 86.7221 53.6166C86.9931 53.1207 87.3273 52.6048 87.9156 52.4631C88.2729 52.3907 88.4408 52.1012 88.527 51.7701C88.9675 51.4543 89.4895 51.2988 90.0116 51.1756C90.0917 50.9076 90.1471 50.6304 90.2765 50.3809C90.6045 50.1977 90.9941 50.1838 91.336 50.0313C91.6533 49.8065 91.8011 49.4138 92.1138 49.1843C92.5681 49.0719 93.0409 49.1474 93.5044 49.1658C93.7493 48.9841 93.9757 48.7623 94.2652 48.6499C94.6748 48.6638 95.0414 48.9225 95.4526 48.9086C95.7328 48.8055 95.9438 48.5791 96.1748 48.3958ZM101.229 53.9538C99.4151 54.5329 97.5147 54.7516 95.6374 55.0272C92.4633 55.4323 89.2678 55.6448 86.0753 55.8358C86.699 55.8743 87.3258 55.8604 87.951 55.845C91.5024 55.711 95.1014 55.7696 98.5742 54.8948C100.147 54.5052 101.73 54.0077 103.091 53.1084C102.461 53.3686 101.876 53.7336 101.229 53.9538Z" fill="#82AAB3" fill-opacity="0.8"/>
<path d="M327.187 50.287C328.603 49.8527 329.802 48.941 331.171 48.3958C331.396 48.539 331.586 48.8455 331.895 48.767C332.342 48.7285 332.784 48.6499 333.233 48.5945C333.421 48.7916 333.618 48.9856 333.82 49.1751C334.378 49.0426 335.034 48.941 335.52 49.3306C335.613 49.5139 335.671 49.7125 335.745 49.9081C336.155 50.0837 336.6 50.1607 337.017 50.3255C337.164 50.5981 337.222 50.9107 337.387 51.1756C337.809 51.3742 338.265 51.4975 338.702 51.6653C338.878 52.0041 339.053 52.3845 339.454 52.5C340.014 52.711 340.381 53.1946 340.724 53.6612C341.1 53.7521 341.496 53.8091 341.849 53.9862C342.081 54.1633 342.261 54.4097 342.522 54.5591C342.825 54.5621 343.128 54.5098 343.438 54.4759C344.08 55.2659 344.889 55.8866 345.768 56.3963C345.369 56.8337 344.838 57.1078 344.242 57.1278C344.006 56.8322 343.834 56.4394 343.458 56.3024C343.045 56.5919 342.734 56.9939 342.38 57.3434C342.039 57.1971 341.687 57.0832 341.322 57.0462C341.065 57.4913 340.871 57.9826 340.53 58.3707C340.315 58.6032 339.991 58.423 339.731 58.4107C339.46 58.7202 339.234 59.0729 338.921 59.3409C338.559 59.5426 338.166 59.267 337.815 59.173C337.455 59.4317 337.134 59.7474 336.749 59.9631C336.372 60.1571 336.022 59.7921 335.702 59.6504C334.586 60.0385 333.505 60.5529 332.334 60.7577C331.253 60.8855 330.226 60.4389 329.336 59.8722C327.877 59.0128 326.507 57.9964 325.315 56.7937C324.371 55.8065 323.434 54.69 323.182 53.307C323.114 52.768 323.028 52.0519 323.568 51.7192C324.649 50.9785 325.957 50.6905 327.187 50.287ZM324.272 53.1037C324.973 53.6104 325.78 53.9384 326.584 54.2464C329.276 55.1982 332.137 55.5878 334.98 55.7018C337.057 55.7295 339.133 55.9066 341.212 55.8419C337.951 55.6201 334.681 55.4292 331.438 54.9872C329.671 54.73 327.89 54.5098 326.182 53.9723C325.51 53.7598 324.914 53.3809 324.272 53.1037Z" fill="#82AAB3" fill-opacity="0.8"/>
<path d="M321.289 51.308C319.658 53.8029 317.834 56.1638 316.016 58.5246C314.529 60.4328 312.874 62.2238 310.97 63.7238C312.972 61.7664 314.631 59.5026 316.374 57.3203C317.982 55.2921 319.567 53.2423 321.289 51.308Z" fill="#82AAB3" fill-opacity="0.8"/>
<path d="M106.102 51.3788C109.9 55.5893 112.992 60.4127 117.105 64.346C115.002 62.6058 112.981 60.7377 111.33 58.5539C109.553 56.1869 107.722 53.8568 106.102 51.3788Z" fill="#82AAB3" fill-opacity="0.8"/>
<path d="M60.5321 58.9466C61.3576 58.9205 62.394 58.9251 62.9238 59.672C63.0008 60.1663 62.7221 60.6684 62.8222 61.1797C63.586 61.1566 64.3468 61.0673 65.1107 61.0165C65.3987 61.4246 65.4911 62.1961 66.0917 62.2223C66.8617 61.9975 67.5871 61.6047 68.4079 61.5801C68.528 61.8404 68.6528 62.0991 68.796 62.3501C69.5244 62.2023 70.2667 62.1176 71.0121 62.1314C71.1122 62.4656 71.2061 62.8029 71.3155 63.1355C72.1194 63.2541 72.9295 63.3173 73.7395 63.3897C73.835 63.7593 73.8966 64.135 73.9536 64.5108C74.9053 65.1484 76.1158 65.113 77.086 65.7043C77.6158 65.9923 78.161 66.2557 78.6707 66.5806C79.5701 67.1936 80.1784 68.1499 80.5665 69.1509C81.0793 70.4477 81.432 71.8044 81.7031 73.172C82.1574 75.288 82.4161 77.4656 82.2467 79.6309C82.1173 81.1186 81.7061 82.7742 80.394 83.6612C81.2118 84.6699 82.0557 85.6756 83.0583 86.5103C87.5845 90.4882 93.144 93.1263 98.8853 94.8419C99.8078 95.116 100.744 95.3286 101.684 95.5349C99.5922 95.4672 97.4977 95.0976 95.4063 95.344C95.645 95.2623 96.1209 95.0991 96.3596 95.0175C95.9654 95.0652 95.5834 95.1961 95.1876 95.2084C93.8586 95.1437 92.5326 95.0236 91.2036 94.962C87.0424 95.0159 82.8843 95.4056 78.7862 96.1386C75.8648 96.673 72.9556 97.2844 70.0665 97.9697C71.702 99.6899 73.0188 101.844 73.259 104.25C73.6163 107.05 72.7138 109.791 71.739 112.375C70.8904 114.625 69.9094 116.848 69.4351 119.216C69.1487 120.417 69.5999 121.616 69.6615 122.815C69.3304 122.617 69.0224 122.366 68.8268 122.028C67.0142 118.993 65.6096 115.677 64.9644 112.189C64.7919 111.043 64.567 109.854 64.8735 108.712C65.6697 105.065 66.9633 101.507 68.8083 98.2577C66.0994 98.923 63.3935 99.5975 60.6784 100.229C64.1297 98.96 67.584 97.6571 71.1769 96.844C74.9823 96.0139 78.8447 95.4148 82.7349 95.1653C85.4962 94.922 88.2729 94.9389 91.0434 94.9112C92.5141 94.9897 93.9833 95.1145 95.4587 95.133C95.5526 95.0436 95.6481 94.9559 95.7451 94.8696C94.5501 94.5447 93.4797 93.9009 92.3663 93.3819C87.7616 91.001 83.5218 87.8147 80.2539 83.7675C79.8103 83.8907 79.3468 83.8783 78.9079 83.7397C76.9967 83.1761 75.2565 82.152 73.3283 81.6376C71.7375 81.1787 70.0557 81.0385 68.5342 80.3547C68.5296 80.1083 68.5265 79.8635 68.5265 79.6186C67.9875 79.0719 67.2883 78.7423 66.6507 78.3327C66.663 77.9954 66.7431 77.6273 66.5583 77.3224C66.2026 76.7172 65.4433 76.5108 65.0629 75.9271C64.8566 75.4867 65.1245 75.0108 65.2169 74.575C64.8319 74.0883 64.4577 73.5909 64.1759 73.0365C64.3499 72.6822 64.6163 72.3327 64.6086 71.923C64.5054 71.3378 64.0296 70.922 63.8278 70.3783C63.7108 69.9379 64.0157 69.4867 63.8478 69.0524C63.6569 68.461 63.4197 67.885 63.2226 67.2967C63.315 67.0796 63.4089 66.8624 63.5029 66.6468C63.2503 66.1463 62.9069 65.7012 62.6404 65.21C62.4187 64.8188 62.5557 64.3645 62.6204 63.9533C62.163 63.6499 61.6949 63.3619 61.2744 63.0077C61.6302 61.6078 61.1713 60.1879 60.5321 58.9466ZM66.1748 64.7819C67.065 65.8291 68.0876 66.7516 69.0409 67.7372C72.1148 70.8912 75.1779 74.0806 77.8052 77.6258C78.4921 78.5514 79.1343 79.52 79.5855 80.5842C79.8073 81.1479 79.9751 81.7331 80.2462 82.2767C79.9828 80.7428 79.3098 79.3075 78.5075 77.9846C77.0906 75.5837 75.241 73.4723 73.316 71.4687C71.0059 69.1679 68.6574 66.8994 66.1748 64.7819Z" fill="#82AAB3" fill-opacity="0.8"/>
<path d="M365.08 59.2131C365.582 58.8511 366.235 58.9697 366.818 58.9466C366.179 60.1848 365.717 61.6001 366.078 62.9969C365.66 63.3558 365.194 63.6453 364.732 63.9379C364.793 64.3429 364.923 64.7895 364.724 65.1807C364.464 65.6797 364.103 66.1217 363.863 66.6314C363.965 66.9595 364.09 67.289 364.102 67.6371C363.954 68.1253 363.671 68.558 363.512 69.0431C363.303 69.4867 363.672 69.9641 363.507 70.4168C363.306 70.8973 362.922 71.2823 362.767 71.7829C362.648 72.2418 362.991 72.6437 363.176 73.0364C362.888 73.5924 362.508 74.0883 362.129 74.5826C362.229 75.0216 362.506 75.519 362.268 75.9564C361.873 76.3968 361.271 76.597 360.905 77.0667C360.615 77.4179 360.837 77.9014 360.705 78.3003C360.127 78.8054 359.348 79.0549 358.866 79.6694C358.793 79.8927 358.801 80.1299 358.778 80.3609C357.343 81.0185 355.746 81.1432 354.243 81.5806C352.365 82.0488 350.665 83.002 348.84 83.6211C348.443 83.7551 348.027 83.8275 347.616 83.8675C347.366 83.7813 347.114 83.7921 346.874 83.8691C346.843 83.6935 346.821 83.5195 346.806 83.3455L346.718 83.5241C345.481 82.4353 345.144 80.7212 345.067 79.1504C344.95 76.3383 345.463 73.5354 346.214 70.8342C346.604 69.5113 347.052 68.1268 348.041 67.1181C348.634 66.4759 349.465 66.154 350.211 65.7305C351.195 65.1129 352.439 65.1653 353.403 64.4969C353.448 64.1227 353.511 63.7485 353.617 63.3866C354.307 63.3173 355.003 63.2911 355.69 63.1787C356.238 63.171 356.175 62.4826 356.366 62.1145C357.105 62.1268 357.843 62.2131 358.575 62.3409C358.702 62.0929 358.816 61.8388 358.935 61.5847C359.779 61.6032 360.526 62.0113 361.316 62.2439C361.975 62.2947 361.969 61.4831 362.157 61.0472C362.933 60.9687 363.705 61.1165 364.478 61.1889C364.82 60.5652 364.41 59.6443 365.08 59.2131ZM357.487 68.1037C354.226 71.1668 350.975 74.3547 348.691 78.2402C348.021 79.4723 347.339 80.7551 347.16 82.1627C347.406 81.6468 347.556 81.0908 347.773 80.5611C348.244 79.4569 348.92 78.4558 349.639 77.4979C353.02 72.9748 357.067 69.0139 361.008 64.9897C359.781 65.9661 358.664 67.0703 357.487 68.1037Z" fill="#82AAB3" fill-opacity="0.8"/>
<path d="M273.597 72.6361C276.269 69.3296 278.874 65.9554 281.112 62.3347C279.866 64.9728 278.234 67.4261 276.337 69.6422C275.431 70.6463 274.55 71.6766 273.597 72.6361Z" fill="#82AAB3" fill-opacity="0.8"/>
<path d="M7.10501 76.3538C7.67637 76.4261 8.3509 76.4046 8.78828 76.8419C8.893 77.1823 8.89454 77.5442 8.9854 77.8892C9.46435 78.017 9.96025 77.9184 10.4438 77.883C10.6471 78.1941 10.8581 78.5006 11.0814 78.7978C11.6928 78.6392 12.2765 78.3758 12.9002 78.2742C13.0557 78.4113 13.182 78.576 13.3191 78.7331C13.855 78.633 14.4002 78.5699 14.9484 78.6053C15.0824 78.8502 15.1363 79.172 15.3673 79.3491C15.914 79.4292 16.4715 79.3923 17.0183 79.477C17.1353 79.7819 17.0737 80.2377 17.414 80.4025C18.0301 80.7182 18.7477 80.749 19.3745 81.0432C20.0768 81.382 20.8576 81.67 21.3412 82.3183C22.875 84.1695 23.3494 86.612 23.6327 88.9343C23.8345 90.5745 23.8622 92.3702 22.9875 93.8363C22.7195 94.2783 22.3252 94.8234 21.7262 94.6864C20.4849 94.4923 19.336 93.9425 18.1625 93.5159C16.7072 92.9246 15.1379 92.7351 13.6178 92.3825C13.547 92.1515 13.4792 91.9205 13.4099 91.6895C12.9387 91.3969 12.4721 91.0935 12.027 90.7608C12.0039 90.5113 12.0023 90.2603 11.9423 90.0185C11.5742 89.6505 11.1261 89.3763 10.7364 89.0314C10.7595 88.7156 10.8073 88.3984 10.7703 88.0827C10.6717 87.7269 10.4022 87.4559 10.2359 87.1325C10.0034 86.7952 10.373 86.4595 10.4808 86.1469C10.2482 85.7049 9.98181 85.2844 9.70614 84.8702C9.95563 84.1387 9.55368 83.4672 9.25491 82.8265C9.30573 82.5416 9.40737 82.2552 9.37811 81.9641C9.18561 81.5668 8.88992 81.2326 8.63889 80.8722C8.63581 80.6274 8.64659 80.381 8.60963 80.1392C8.374 79.8958 8.07678 79.7264 7.83807 79.4908C7.74259 79.132 7.76877 78.7516 7.71179 78.3866C7.64711 77.7121 7.34834 77.0976 7.10501 76.477V76.3538H7.10501ZM10.3776 79.7788C11.0167 80.518 11.8114 81.094 12.5059 81.7762C13.4962 82.7311 14.5141 83.6582 15.469 84.6484C17.4448 86.6381 19.4284 88.6463 21.0439 90.9472C21.5568 91.6386 21.8524 92.4518 22.2205 93.2218C21.5614 90.9918 20.1014 89.1068 18.6107 87.365C16.1543 84.5406 13.2097 82.2059 10.3776 79.7788Z" fill="#82AAB3" fill-opacity="0.8"/>
<path d="M418.599 76.7079C419.095 76.52 419.614 76.4061 420.144 76.3414V76.5893C419.848 77.4702 419.457 78.3727 419.645 79.3229C419.314 79.6001 418.978 79.8665 418.641 80.1299C418.726 80.6643 418.692 81.2172 418.253 81.5914C417.715 82.0057 418.282 82.7156 417.869 83.1992C417.511 83.6936 417.495 84.2957 417.657 84.8671C417.357 85.289 417.078 85.7264 416.839 86.1853C416.992 86.4318 417.144 86.6782 417.304 86.9261C417.044 87.2865 416.744 87.6191 416.53 88.0072C416.445 88.3291 416.659 88.6679 416.58 88.9944C416.28 89.4241 415.766 89.6274 415.413 90.0062C415.35 90.2495 415.338 90.5006 415.318 90.7516C414.874 91.0735 414.417 91.3753 413.965 91.6864C413.879 91.8974 413.807 92.1145 413.708 92.3193C413.473 92.4857 413.172 92.5195 412.909 92.5981C410.782 93.0832 408.64 93.5637 406.632 94.4338C406.107 94.6895 405.517 94.6818 404.953 94.631C404.554 94.1535 404.126 93.673 403.94 93.0678C403.347 90.8763 403.669 88.5632 404.149 86.3825C404.522 84.7408 405.192 83.0929 406.412 81.8963C407.4 81.1617 408.643 80.923 409.766 80.4656C410.203 80.327 410.157 79.7572 410.456 79.4908C410.95 79.3059 411.494 79.406 412.014 79.403C412.148 79.1381 412.271 78.867 412.398 78.596C412.958 78.5698 413.52 78.636 414.072 78.7515C414.184 78.5698 414.303 78.3896 414.426 78.2094C415.037 78.4189 415.644 78.6868 416.3 78.7361C416.537 78.4759 416.684 78.1494 416.868 77.8491C417.403 77.8506 418.006 78.1417 418.51 77.8937C418.579 77.5026 418.572 77.1022 418.599 76.7079ZM407.717 88.5524C406.664 89.9138 405.64 91.3738 405.204 93.0617C405.839 91.3645 406.994 89.9446 408.196 88.6171C410.109 86.5765 411.988 84.5005 414.025 82.5832C414.916 81.73 415.924 80.9938 416.696 80.0221C413.537 82.6802 410.323 85.3275 407.717 88.5524Z" fill="#82AAB3" fill-opacity="0.8"/>
<path d="M346.549 84.037C346.604 84.1017 346.663 84.1664 346.726 84.2341C345.366 85.6571 344.108 87.2079 342.518 88.3922C343.884 86.9661 345.435 85.6848 346.549 84.037Z" fill="#82AAB3" fill-opacity="0.8"/>
<path d="M113.545 95.5981C114.492 95.5211 115.439 95.4225 116.389 95.3717C111.588 96.2911 106.598 96.4713 101.782 95.5426C105.698 95.7659 109.629 95.863 113.545 95.5981Z" fill="#82AAB3" fill-opacity="0.8"/>
<path d="M23.4849 95.8506C24.8463 96.9779 26.2123 98.1129 27.7369 99.0185C30.74 100.919 34.1682 102.105 37.6779 102.614C41.739 103.214 45.874 102.979 49.9213 102.403C53.4587 101.872 56.9562 101.121 60.4382 100.311C54.9095 102.33 49.3037 104.526 43.3638 104.848C44.605 106.714 45.1271 108.976 45.2518 111.189C45.2919 112.568 45.1533 114.034 44.4079 115.229C43.7719 115.99 42.9372 116.546 42.1271 117.102C41.7021 117.325 41.7821 117.844 41.719 118.244C41.2385 118.408 40.7026 118.488 40.3037 118.828C40.2483 119.05 40.2529 119.284 40.2221 119.513C39.7231 119.615 39.221 119.706 38.7236 119.818C38.7159 119.94 38.702 120.186 38.6943 120.308C38.1245 120.322 37.5547 120.314 36.9849 120.303C36.8525 120.619 36.7739 120.967 36.5691 121.249C36.2287 121.4 35.8391 121.405 35.5018 121.568C35.2662 121.83 35.5034 122.212 35.5157 122.516C35.2108 122.994 34.7103 123.245 34.1743 123.377C34.3792 122.458 34.2421 121.522 33.9618 120.636C34.1312 120.411 34.3345 120.209 34.4531 119.952C34.5024 119.703 34.393 119.458 34.3514 119.216C34.47 118.816 34.5932 118.418 34.6872 118.013C34.2482 117.468 34.3992 116.772 34.5101 116.145C34.4146 115.936 34.3068 115.733 34.2498 115.511C34.3222 115.097 34.4623 114.696 34.5455 114.285C34.3668 114.125 34.1866 113.966 34.0095 113.807C34.1666 113.386 34.3129 112.957 34.3761 112.511C34.2575 112.249 33.9695 111.975 34.1235 111.668C34.2883 111.351 34.5409 111.092 34.718 110.784C34.9243 110.526 34.6995 110.215 34.6579 109.94C35.086 109.462 35.7806 109.004 35.5773 108.263C36.5722 107.717 37.5747 107.184 38.545 106.594C39.3581 106.089 40.0604 105.431 40.8165 104.851C37.7672 104.704 34.8104 103.74 32.1045 102.357C28.892 100.697 25.9567 98.4902 23.4849 95.8506ZM42.5845 105.086C42.3827 107.153 41.6558 109.118 40.7857 110.989C39.6523 113.535 38.18 115.907 36.8971 118.374C37.9274 116.905 38.8668 115.371 39.7354 113.801C40.9598 111.488 42.1302 109.089 42.5537 106.482C42.6153 106.021 42.7015 105.545 42.5845 105.086Z" fill="#82AAB3" fill-opacity="0.8"/>
<path d="M104.884 97.7772C105.4 97.3707 106.088 97.0981 106.746 97.289C107.49 97.4815 108.039 98.0868 108.421 98.7259C109.21 100.043 109.496 101.575 109.772 103.064C110.046 104.986 110.165 106.939 109.997 108.876C109.881 110.05 109.593 111.268 108.828 112.198C108.142 112.968 107.3 113.583 106.432 114.129C106.011 114.4 105.487 114.588 105.232 115.047C105.206 115.351 105.24 115.657 105.213 115.964C104.568 116.252 103.844 116.349 103.254 116.763C103.25 117.043 103.242 117.323 103.23 117.607C102.577 117.755 101.891 117.765 101.258 117.99C101.183 118.209 101.134 118.437 101.075 118.663C100.262 118.615 99.4443 118.569 98.6312 118.656C98.5111 119.057 98.6974 119.7 98.1753 119.852C97.6317 120.063 97.0357 120.052 96.4705 120.176C96.5336 120.662 96.7138 121.163 96.5983 121.656C96.318 122.178 95.6712 122.386 95.1091 122.365C95.0768 121.716 95.2092 121.072 95.1907 120.423C95.1738 119.9 94.9274 119.424 94.7072 118.964C94.9628 118.548 95.3109 118.204 95.682 117.892C95.5711 117.565 95.3109 117.254 95.4079 116.894C95.4941 116.456 95.6974 116.056 95.873 115.649C95.6296 114.915 95.4156 114.143 95.5942 113.367C95.7421 112.859 95.257 112.457 95.3109 111.953C95.4002 111.431 95.6373 110.952 95.7775 110.444C95.5957 110.187 95.3755 109.947 95.2708 109.646C95.2508 109.19 95.4972 108.778 95.6574 108.365C95.5311 107.972 95.3694 107.586 95.3201 107.173C95.4202 106.56 95.9731 106.174 96.2564 105.651C96.3196 105.339 96.1794 105.034 96.1209 104.732C96.529 104.267 96.9525 103.817 97.3714 103.363C97.3468 102.956 97.299 102.411 97.758 102.222C99.3843 101.399 101.052 100.637 102.571 99.6207C103.411 99.0986 104.109 98.3886 104.884 97.7772ZM106.499 100.907C106.03 102.528 105.31 104.067 104.514 105.553C103.15 108.136 101.782 110.718 100.342 113.261C99.6168 114.542 98.8037 115.773 98.0906 117.06C99.1271 115.563 100.145 114.054 101.166 112.546C103.27 109.146 105.352 105.662 106.498 101.803C106.793 100.729 107.015 99.6022 106.843 98.4887C106.683 99.2895 106.74 100.121 106.499 100.907Z" fill="#82AAB3" fill-opacity="0.8"/>
<path d="M383.39 105.864C383.724 105.263 384.032 104.513 384.739 104.278C385.485 103.9 386.165 104.606 386.727 105.02C388.21 106.386 390.032 107.279 391.772 108.265C391.561 109.016 392.286 109.483 392.725 109.967C392.667 110.094 392.55 110.35 392.491 110.478C392.731 110.931 393.055 111.336 393.275 111.801C393.209 112.112 393.012 112.391 393.004 112.714C393.056 113.091 393.213 113.444 393.344 113.803C393.161 113.963 392.979 114.123 392.805 114.286C392.93 114.91 393.272 115.563 392.842 116.148C392.956 116.778 393.087 117.461 392.665 118.012C392.751 118.423 392.873 118.827 393.002 119.228C392.953 119.469 392.838 119.709 392.89 119.958C393.018 120.208 393.21 120.416 393.387 120.636C393.102 121.528 392.976 122.466 393.169 123.393C392.776 123.242 392.302 123.191 392.041 122.831C391.772 122.449 391.847 121.936 391.615 121.545C391.319 121.385 390.983 121.326 390.669 121.238C390.588 120.961 390.534 120.679 390.421 120.417C389.933 120.213 389.393 120.38 388.887 120.317C388.743 120.166 388.649 119.983 388.544 119.814C388.079 119.697 387.608 119.609 387.144 119.512C387.087 119.264 387.046 119.016 386.97 118.78C386.557 118.523 386.074 118.425 385.629 118.255C385.555 117.869 385.66 117.356 385.259 117.126C384.66 116.701 384.032 116.315 383.502 115.802C382.526 115.044 382.267 113.741 382.13 112.582C381.962 110.289 382.408 107.943 383.39 105.864ZM384.754 105.102C384.64 106.503 385.064 107.872 385.499 109.186C386.778 112.736 388.803 115.95 390.883 119.078C389.406 116.418 387.886 113.78 386.587 111.028C385.703 109.15 384.94 107.185 384.754 105.102Z" fill="#82AAB3" fill-opacity="0.8"/>
<path d="M183.105 110.541C183.532 110.193 183.782 109.682 184.088 109.232C184.413 109.357 184.827 109.395 185.051 109.7C185.183 110.005 185.202 110.344 185.259 110.67C185.858 110.37 186.498 110.148 187.176 110.125C187.017 110.835 186.859 111.554 186.851 112.287C186.965 112.786 187.256 113.255 187.217 113.784C186.925 114.131 186.518 114.342 186.147 114.587C186.167 116.047 185.653 117.447 185.644 118.9C185.397 119.27 185.098 119.6 184.764 119.892C185.048 120.377 185.459 120.761 185.91 121.092C185.312 121.957 185.254 123.16 184.371 123.822C183.161 124.799 181.576 125.118 180.065 125.267C178.381 125.387 176.656 125.293 175.034 124.794C174.012 124.415 173.024 123.952 172.023 123.524C171.859 120.525 171.996 117.419 173.168 114.614C173.776 113.282 174.617 111.921 175.986 111.27C177.186 110.724 178.549 110.752 179.836 110.817C180.535 110.937 180.686 111.733 180.899 112.292C181.036 111.781 181.057 111.145 181.562 110.84C182.035 110.587 182.608 110.723 183.105 110.541Z" fill="#82AAB3" fill-opacity="0.8"/>
<path d="M242.303 109.7C242.522 109.4 242.927 109.358 243.252 109.226C243.543 109.662 243.799 110.135 244.184 110.5C244.71 110.775 245.425 110.516 245.904 110.932C246.317 111.262 246.318 111.825 246.444 112.294C246.588 112.046 246.655 111.768 246.702 111.49C247.006 111.177 247.341 110.808 247.818 110.804C249.203 110.747 250.716 110.769 251.907 111.582C253.011 112.351 253.718 113.555 254.246 114.765C255.356 117.534 255.487 120.576 255.329 123.521C253.867 124.118 252.46 124.924 250.872 125.131C248.837 125.439 246.715 125.396 244.746 124.766C243.862 124.452 242.952 123.998 242.416 123.2C242.049 122.515 241.858 121.749 241.442 121.09C241.895 120.753 242.308 120.36 242.596 119.869C242.262 119.583 241.832 119.339 241.696 118.894C241.638 118.401 241.753 117.893 241.576 117.414C241.285 116.503 241.293 115.543 241.236 114.601C240.831 114.353 240.437 114.088 240.079 113.778C240.155 113.258 240.367 112.773 240.5 112.269C240.487 111.544 240.33 110.831 240.175 110.125C240.848 110.156 241.492 110.369 242.089 110.674C242.149 110.347 242.154 110.002 242.303 109.7Z" fill="#82AAB3" fill-opacity="0.8"/>
<path d="M162.224 113.884C162.641 113.496 162.925 113.001 163.184 112.5C163.85 112.766 164.571 112.786 165.275 112.877C166.108 113.276 166.832 113.912 167.265 114.738C168.01 115.549 168.295 116.637 168.603 117.667C168.911 118.774 169.05 119.92 169.182 121.06C169.233 122.58 168.732 124.038 168.537 125.532C167.092 125.868 165.66 126.29 164.177 126.413C161.965 126.608 159.643 126.57 157.582 125.65C156.34 125.104 155.343 124.026 154.935 122.726C154.706 121.976 154.492 121.21 154.418 120.43C154.519 119.807 155.154 119.529 155.633 119.228C155.152 119.23 154.603 119.378 154.199 119.036C153.64 118.651 153.84 117.825 153.389 117.37C152.989 117.06 152.479 116.958 152.003 116.832C152.009 116.489 151.907 116.082 152.168 115.806C152.431 115.571 152.776 115.458 153.092 115.309C152.724 114.782 152.411 114.216 152.237 113.595C152.975 113.552 153.728 113.603 154.456 113.447C154.897 113.207 155.311 112.92 155.768 112.706C156.158 112.953 156.447 113.315 156.791 113.615C157.619 113.593 158.437 113.392 159.27 113.433C159.802 113.463 160.322 113.366 160.84 113.261C161.385 113.173 161.836 113.56 162.224 113.884Z" fill="#82AAB3" fill-opacity="0.8"/>
<path d="M262.027 112.894C262.738 112.774 263.48 112.782 264.164 112.5C264.421 112.996 264.697 113.495 265.114 113.878C265.556 113.507 266.12 113.118 266.73 113.302C267.491 113.501 268.281 113.393 269.055 113.47C269.565 113.516 270.073 113.584 270.586 113.64C270.871 113.281 271.199 112.954 271.592 112.709C272.049 112.928 272.468 113.221 272.916 113.456C273.632 113.593 274.368 113.558 275.095 113.592C274.917 114.208 274.627 114.784 274.262 115.311C274.555 115.449 274.87 115.56 275.132 115.763C275.443 116.024 275.332 116.467 275.352 116.823C274.844 116.961 274.307 117.083 273.889 117.422C273.557 117.819 273.514 118.366 273.431 118.859C272.908 119.181 272.323 119.332 271.712 119.219C272.205 119.549 272.958 119.871 272.921 120.574C272.71 121.81 272.451 123.103 271.687 124.132C271.014 125.045 269.992 125.641 268.923 125.977C266.981 126.599 264.905 126.585 262.895 126.39C261.506 126.253 260.166 125.851 258.814 125.53C258.588 123.793 257.924 122.059 258.261 120.291C258.438 118.719 258.794 117.159 259.427 115.705C259.638 115.23 260.04 114.878 260.291 114.425C260.664 113.727 261.355 113.273 262.027 112.894Z" fill="#82AAB3" fill-opacity="0.8"/>
<path d="M247.356 126.896C250.204 126.074 253.231 126.262 256.128 126.702C256.589 128.338 257.32 129.941 257.294 131.67C257.282 133.321 257.084 134.977 256.684 136.577C256.102 137.63 255.652 138.852 254.574 139.509C253.846 139.796 253.062 139.919 252.353 140.261C252.032 139.806 251.693 139.358 251.258 139.006C250.93 139.317 250.598 139.703 250.125 139.765C248.7 139.711 247.288 140.074 245.865 139.85C245.551 140.261 245.22 140.678 244.732 140.889C244.317 140.715 243.931 140.47 243.501 140.345C242.764 140.279 242.027 140.395 241.293 140.413C241.397 139.765 241.676 139.167 241.992 138.597C241.679 138.499 241.344 138.448 241.068 138.271C240.809 137.997 240.845 137.581 240.771 137.239C241.277 137.022 241.85 136.833 242.186 136.363C242.451 135.97 242.388 135.471 242.408 135.025C242.881 134.667 243.418 134.404 244.025 134.389C243.789 134.287 243.55 134.195 243.313 134.11C243.078 133.791 242.677 133.506 242.737 133.066C242.827 131.684 242.928 130.18 243.818 129.048C244.701 127.942 246.042 127.329 247.356 126.896Z" fill="#82AAB3" fill-opacity="0.8"/>
<path d="M171.23 126.695C174.255 126.306 177.441 126.018 180.377 127.046C181.678 127.492 182.953 128.235 183.705 129.423C184.396 130.5 184.552 131.817 184.612 133.067C184.666 133.503 184.267 133.79 184.036 134.105C183.789 134.196 183.548 134.295 183.309 134.401C183.919 134.406 184.468 134.658 184.944 135.023C184.958 135.476 184.898 135.987 185.177 136.378C185.514 136.836 186.075 137.024 186.578 137.236C186.503 137.572 186.535 137.966 186.307 138.249C186.033 138.456 185.673 138.49 185.356 138.598C185.687 139.161 185.915 139.776 186.001 140.427C185.26 140.385 184.512 140.259 183.772 140.362C183.375 140.501 183.012 140.715 182.631 140.889C182.128 140.686 181.792 140.258 181.47 139.845C180.073 140.085 178.686 139.708 177.287 139.769C176.784 139.742 176.431 139.329 176.091 139.009C175.661 139.368 175.305 139.802 174.986 140.259C174.292 139.925 173.526 139.797 172.812 139.526C171.968 139.024 171.452 138.157 171.045 137.292C170.519 136.548 170.452 135.621 170.305 134.752C170.087 133.272 169.933 131.752 170.175 130.267C170.442 129.054 170.864 127.88 171.23 126.695Z" fill="#82AAB3" fill-opacity="0.8"/>
</g>
<defs>
<filter id="filter0_d_1_532" x="-4" y="0" width="435.249" height="158" filterUnits="userSpaceOnUse" color-interpolation-filters="sRGB">
<feFlood flood-opacity="0" result="BackgroundImageFix"/>
<feColorMatrix in="SourceAlpha" type="matrix" values="0 0 0 0 0 0 0 0 0 0 0 0 0 0 0 0 0 0 127 0" result="hardAlpha"/>
<feOffset dy="4"/>
<feGaussianBlur stdDeviation="2"/>
<feComposite in2="hardAlpha" operator="out"/>
<feColorMatrix type="matrix" values="0 0 0 0 0 0 0 0 0 0 0 0 0 0 0 0 0 0 0.25 0"/>
<feBlend mode="normal" in2="BackgroundImageFix" result="effect1_dropShadow_1_532"/>
<feBlend mode="normal" in="SourceGraphic" in2="effect1_dropShadow_1_532" result="shape"/>
</filter>
</defs>
</svg>
