<svg width="303" height="279" viewBox="0 0 303 279" fill="none" xmlns="http://www.w3.org/2000/svg">
<g clip-path="url(#clip0_35_118)">
<path d="M104.436 276.239C99.438 273.767 91.1274 266.953 91.1274 265.333C91.1274 264.977 89.0151 262.4 86.4296 259.611C83.8499 256.816 80.3987 252.802 78.7597 250.687C75.4701 246.428 64.3779 239.152 60.8863 238.958C59.6801 238.891 58.699 238.529 58.699 238.15C58.699 236.937 43.5305 238.184 39.8727 239.692C37.955 240.483 34.7011 242.253 32.6414 243.617C30.5822 244.986 28.897 245.654 28.897 245.103C28.897 243.94 32.257 240.95 33.5636 240.95C34.0542 240.95 35.0786 240.433 35.8398 239.798C38.6267 237.477 45.8061 235.879 53.375 235.885C59.5185 235.89 61.7404 236.274 65.5436 237.983C72.3364 241.034 77.4092 244.808 80.7219 249.279C82.3263 251.438 85.8121 255.558 88.4784 258.425C91.1389 261.297 95.0172 265.567 97.1006 267.922C99.6688 270.822 102.676 273.021 106.485 274.775C109.572 276.194 112.331 277.725 112.619 278.176C113.67 279.824 109.832 278.916 104.436 276.239ZM11.8195 276.667C12.1709 275.855 13.0106 272.743 13.6853 269.759C14.3599 266.77 15.4871 262.583 16.1906 260.457C23.4282 238.568 26.6434 230.763 29.6987 227.657C31.4981 225.831 41.1684 219.195 42.0444 219.19C42.2857 219.184 44.7656 218.689 47.5554 218.087C50.789 217.392 52.2191 216.746 51.5 216.312C49.9654 215.393 56.3103 216.3 62.0988 217.831C68.0201 219.401 74.1491 225.102 79.6779 234.187C86.6842 245.71 90.5105 251.489 92.5419 253.632C93.65 254.795 95.7911 257.078 97.3032 258.703L100.056 261.665L97.0031 256.053C93.7423 250.052 90.1873 240.221 88 231.125C86.7765 226.02 86.7823 225.018 88.0866 220.002C88.8772 216.974 89.841 213.884 90.2334 213.138C92.161 209.459 95.7565 196.193 96.9396 188.399C97.9553 181.73 98.1169 176.447 97.6379 166.126C96.3394 138.337 96.4837 126.251 98.2035 119.816C99.2654 115.83 99.5251 113.358 98.9826 112.384C97.736 110.135 92.1783 106.266 85.8646 103.249C82.7251 101.751 77.7965 98.4054 74.9051 95.8057C67.1371 88.8304 59.8019 83.0075 57.0311 81.6269C54.961 80.597 53.8598 80.5748 49.8494 81.5044C43.7406 82.924 35.1132 86.676 33.0437 88.8193C31.0664 90.8679 28.0666 97.0861 28.04 99.1903C28.0296 100.036 27.4294 101.3 26.7063 101.996C25.9832 102.692 25.3916 104.557 25.3916 106.132C25.3916 109.01 27.8028 114.978 28.9657 114.978C29.3074 114.978 29.8124 115.546 30.0882 116.242C30.7479 117.901 26.446 120.049 22.4743 120.049C17.7551 120.049 13.6847 117.945 9.28878 113.23C3.6184 107.145 -0.0334478 99.4743 0.000602291 93.7237C0.0338214 88.1791 4.73328 76.7559 10.9226 67.1809C16.0723 59.2091 25.1284 51.9667 37.3657 46.0296C44.1988 42.7145 47.1525 40.6002 53.9031 34.1939C61.9141 26.5896 66.9351 23.672 72.0022 23.672C72.8794 23.672 73.647 23.2917 73.7047 22.8269C73.7682 22.3621 73.8894 21.6963 73.9817 21.3472C74.0683 20.9988 74.4434 18.7587 74.8128 16.3694C75.5746 11.47 78.2062 8.47221 83.1522 6.87841C87.3478 5.52522 93.7481 5.68599 98.2496 7.25752C103.513 9.09625 112.718 8.27236 119.147 5.38666C126.298 2.1772 133.125 0 136.045 0C140.091 0 143.582 2.42365 143.894 5.44155C144.177 8.20722 143.011 14.2422 141.926 15.6406C140.183 17.8863 136.553 24.8448 134.891 29.1252C132.779 34.5779 132.888 39.6265 135.312 47.767C136.143 50.5571 136.894 54.3899 136.98 56.2865C137.125 59.5932 137.182 59.66 138.487 57.9732C139.231 57.0102 140.339 55.2705 140.945 54.1082C143.848 48.5469 145.06 46.6425 147.928 43.1175C154.473 35.0728 160.538 30.6656 173.708 24.3856C188.038 17.55 197.676 16.2596 207.129 19.9109C213.934 22.5379 216.404 24.9172 220.265 32.5694C222.481 36.96 224.945 40.0279 229.908 44.5727C240.977 54.7094 242.23 56.9489 245.819 73.0316C246.772 77.2958 246.997 79.8788 246.443 80.2184C245.687 80.6693 243.488 87.8896 242.357 93.6346C242.149 94.6811 241.71 95.9671 241.376 96.4848C241.047 97.0025 240.458 98.6169 240.071 100.07C238.969 104.234 236.874 111.037 236.228 112.556C235.714 113.753 236.724 113.659 243.8 111.849C262.671 107.034 277.151 111.911 283.223 125.143C283.869 126.551 286.333 128.722 289.138 130.359C291.781 131.896 295.792 134.963 298.055 137.167C306.763 145.674 303.907 152.32 290.015 155.878C281.63 158.026 281.838 157.62 286.201 163.337C292.734 171.894 294.35 181.58 290.616 189.802C285.375 201.342 284.498 202.316 277.509 204.32C272.546 205.74 271.38 206.592 262.845 215.065C253.818 224.016 253.449 224.272 249.126 224.673C245.179 225.04 244.532 224.862 243.332 223.081C241.583 220.487 240.822 216.434 242.085 216.434C242.616 216.434 242.801 216.189 242.495 215.9C242.189 215.604 242.518 214.569 243.228 213.595C245.704 210.177 244.769 208.674 233.671 198.253C224.633 189.763 221.621 187.492 215.486 184.553C211.446 182.61 206.823 180.082 205.213 178.93C202.42 176.926 202.224 176.904 200.746 178.329C199.892 179.153 195.881 180.65 191.836 181.658C187.784 182.665 182.896 183.929 180.963 184.469C179.035 185.009 177.067 185.488 176.582 185.538C176.103 185.588 174.181 186.278 172.312 187.08C170.447 187.876 168.566 188.533 168.139 188.533C167.706 188.533 166.673 188.889 165.836 189.318C161.785 191.416 152.666 195.297 151.801 195.297C149.671 195.297 137.557 205.89 126.182 217.698C115.731 228.559 109.988 232.806 104.633 233.647C103.23 233.869 101.984 234.125 101.862 234.22C101.741 234.32 101.153 234.443 100.547 234.504C99.9406 234.56 99.3289 236.035 99.1788 237.833C98.5151 245.588 109.255 263.847 119.655 272.659C122.898 275.404 125.08 277.803 124.503 277.987C123.926 278.17 122.621 277.619 121.6 276.756C120.365 275.71 119.99 275.615 120.475 276.456C122.067 279.25 115.2 272.281 110.889 266.736C102.111 255.441 97.3378 245.137 96.9338 236.614C96.7491 232.806 96.8876 232.494 98.7864 232.494C99.9175 232.494 101.32 232.105 101.903 231.626C102.486 231.153 104.736 229.655 106.901 228.303C109.071 226.95 111.639 225.152 112.614 224.305C115.904 221.444 117.52 220.37 117.364 221.149C117.283 221.578 117.26 222.179 117.318 222.485C117.375 222.791 123.043 217.614 129.911 210.973C136.778 204.337 144.177 197.83 146.347 196.51C156.169 190.537 172.11 184.319 183.098 182.164C195.142 179.81 201.652 177.048 198.951 175.44C198.438 175.133 198.12 175.367 198.253 175.963C198.386 176.564 197.688 177.104 196.706 177.171C195.72 177.238 194.144 177.689 193.198 178.173C192.257 178.657 187.144 180.06 181.84 181.296C167.862 184.547 164.313 185.716 155.766 189.891C151.547 191.951 148.096 193.254 148.096 192.786C148.096 191.706 158.686 186.545 166.338 183.89C169.564 182.771 176.38 180.906 181.488 179.748C191.299 177.522 197.185 175.284 197.174 173.792C197.168 172.634 192.257 169.405 188.667 168.203C186.232 167.379 185.487 167.529 182.602 169.422C180.789 170.608 179.127 171.398 178.897 171.181C178.671 170.958 178.648 170.658 178.845 170.513C183.265 167.306 184.125 166.549 183.387 166.549C182.896 166.549 180.674 167.535 178.446 168.737C176.219 169.94 174.389 170.518 174.389 170.029C174.389 169.533 175.613 168.52 177.102 167.78C178.591 167.034 179.601 166.221 179.335 165.965C179.07 165.709 175.896 167.451 172.271 169.834C168.653 172.211 165.398 174.159 165.046 174.159C163.932 174.159 170.615 168.631 172.993 167.59C174.245 167.039 175.266 166.199 175.266 165.725C175.266 164.618 173.783 164.601 173.079 165.703C172.779 166.171 172.138 166.549 171.659 166.549C171.175 166.549 171.019 166.187 171.302 165.742C172.098 164.495 167.221 166.388 165.19 168.108C162.685 170.229 158.795 174.705 160.371 173.653C161.092 173.168 163.568 171.32 165.871 169.544C168.168 167.763 170.251 166.505 170.494 166.739C170.736 166.967 168.849 168.693 166.31 170.563C160.157 175.094 152.776 182.086 152.107 184.018C151.46 185.883 144.604 189.379 141.597 189.379C139.468 189.379 136.703 187.431 136.703 185.933C136.703 185.504 135.307 185.148 133.593 185.148C131.365 185.148 129.882 184.525 128.364 182.944C125.969 180.45 125.876 180.199 124.376 172.044C123.337 166.432 122.991 165.837 117.525 160.365C110.335 153.178 110.15 151.474 115.431 141.421C117.635 137.229 118.732 134.262 118.195 133.939C117 133.226 116.729 133.571 114.726 138.348C113.249 141.871 113.082 142.033 113.561 139.494C113.872 137.869 114.657 135.531 115.315 134.3C116.331 132.38 116.314 131.907 115.188 131.005C113.682 129.802 113.48 129.919 112.649 132.525C112.291 133.649 112.418 134.423 112.955 134.423C113.451 134.423 113.636 134.996 113.353 135.692C112.516 137.808 110.138 137.251 110.652 135.058C112.152 128.684 112.291 127.225 111.235 128.834C109.469 131.523 107.801 138.821 107.789 143.887C107.784 146.531 107.357 148.947 106.843 149.253C106.197 149.643 106.058 147.906 106.404 143.597C107.085 135.108 107.362 133.644 108.996 129.875C109.775 128.077 110.41 126.518 110.41 126.407C110.41 126.29 109.284 124.954 107.905 123.434L105.4 120.667L104.887 122.682C104.604 123.796 104.09 126.796 103.744 129.352C103.178 133.555 103.253 133.894 104.523 132.881C105.291 132.269 105.723 131.261 105.475 130.643C105.233 130.025 105.458 129.268 105.983 128.956C106.502 128.645 106.733 128.077 106.491 127.698C106.243 127.32 106.577 126.579 107.23 126.056C108.176 125.304 108.378 125.499 108.211 127.019C108.095 128.071 107.922 128.928 107.818 128.928C107.714 128.928 107.495 129.691 107.328 130.621C107.022 132.296 106.883 132.848 105.677 136.995C105.337 138.175 104.915 141.599 104.742 144.605C104.569 147.605 104.396 150.066 104.35 150.066C104.309 150.066 104.142 156.15 103.98 163.593C103.773 173.352 103.242 178.746 102.07 182.955C100.904 187.147 100.281 188.344 99.8656 187.186C99.4847 186.145 98.7575 188.31 97.8053 193.309C96.9915 197.568 95.1794 204.588 93.7712 208.919C92.363 213.25 91.3184 216.896 91.4454 217.018C91.7801 217.341 99.0172 201.537 99.0172 200.49C99.0172 200.012 99.4501 199.36 99.9868 199.043C101.291 198.269 100.379 200.964 96.8184 208.401C92.6804 217.046 90.245 223.788 90.3085 226.399C90.3604 228.637 90.395 228.625 91.7917 225.731C97.9149 213.033 101.089 207.132 101.782 207.132C102.232 207.132 101.626 208.752 100.448 210.728C97.5225 215.621 92.0052 228.748 92.0052 230.813C92.0052 231.737 91.6705 232.494 91.2607 232.494C90.1873 232.494 94.2387 245.51 97.2455 251.728C101.303 260.117 108.476 269.408 113.122 272.281C115.384 273.684 117.433 275.576 117.681 276.489C118.333 278.877 116.441 278.56 113.422 275.766C112.008 274.452 108.615 271.963 105.885 270.238C103.161 268.512 100.31 266.185 99.5482 265.066C98.7921 263.953 97.2801 262.116 96.1836 260.991C92.3515 257.044 87.4286 250.592 81.3112 241.524C74.7435 231.782 66.8831 222.958 63.1549 221.149C55.3915 217.38 40.6934 220.648 33.0079 227.857C30.1546 230.535 25.6623 238.495 24.4301 243.066C24.0538 244.458 22.162 249.785 20.227 254.901C16.9022 263.685 15.064 270.538 16.0324 270.538C16.5028 270.538 24.515 259.026 24.515 258.352C24.515 256.126 39.7533 239.303 40.8273 240.338C41.0933 240.594 42.6464 240.266 44.279 239.609C47.9218 238.139 48.1798 238.134 48.1798 239.514C48.1798 240.121 46.3065 241.273 44.0165 242.08C37.9948 244.201 33.9838 248.237 24.7937 261.425C20.306 267.866 15.7699 274.263 14.7126 275.643C12.6113 278.382 10.8014 279.028 11.8195 276.667V276.667ZM108.47 230.179C109.774 229.371 111.361 228.241 111.985 227.662C112.614 227.089 113.935 226.065 114.928 225.397C115.926 224.723 116.596 223.81 116.423 223.365C116.249 222.914 113.624 224.595 110.582 227.1C104.944 231.743 104.216 232.801 108.47 230.179ZM250.176 221.188C251.134 221.544 252.715 220.537 255.064 218.087C256.969 216.089 258.533 214.747 258.533 215.092C258.533 215.861 265.193 209.147 267.017 206.536C268.425 204.527 276.349 200.368 278.772 200.368C281.445 200.368 285.531 194.89 286.154 190.47C286.471 188.243 287.077 184.708 287.504 182.615L288.272 178.808L287.972 182.838C287.62 187.548 288.757 189.001 289.472 184.747C290.205 180.389 289.628 173.87 288.474 173.502C287.914 173.319 287.458 172.25 287.458 171.125C287.458 169.756 285.155 166.594 280.527 161.623C274.329 154.954 272.88 153.868 266.722 151.318C262.942 149.749 257.281 146.982 254.153 145.173C245.854 140.374 238.997 137.813 232.43 137.051C226.658 136.383 225.504 136.399 214.706 137.379C205.911 138.175 195.28 142.473 189.203 147.689C186.393 150.099 181.36 153.606 178.03 155.488C172.784 158.438 170.886 160.192 170.886 162.068C170.886 162.319 172.98 162.268 175.537 161.957C181.597 161.227 195.425 163.989 195.425 165.931C195.425 166.371 194.738 166.455 193.895 166.11C193.047 165.77 191.373 165.314 190.167 165.102C188.13 164.746 188.159 164.813 190.583 166.104C196.215 169.099 199.534 171.214 203.314 174.209C205.484 175.924 210.938 179.169 215.439 181.418C223.3 185.343 231.512 191.394 235.275 196.037C236.256 197.245 238.386 199.366 240.013 200.747C244.468 204.532 247.141 209.13 247.141 213.005C247.141 215.51 246.829 216.267 245.94 215.939C245.138 215.638 244.561 216.395 244.18 218.232C243.539 221.333 244.838 222.691 247.244 221.45C248.081 221.016 249.403 220.899 250.176 221.188ZM251.959 218.967C252.26 218.505 252.894 218.121 253.379 218.121C253.858 218.121 254.008 218.505 253.714 218.967C253.414 219.435 252.773 219.813 252.294 219.813C251.809 219.813 251.659 219.435 251.959 218.967ZM253.541 212.47C253.824 212.031 253.471 210.027 252.756 208.022C251.227 203.753 251.706 202.545 253.558 205.996C255.393 209.425 255.693 212.398 254.245 212.871C253.575 213.088 253.258 212.91 253.541 212.47ZM255.024 205.701C253.339 202.606 251.036 198.993 249.911 197.685C247.481 194.857 248.653 194.439 251.267 197.201C253.985 200.062 258.712 208.596 258.383 210.054C258.221 210.756 256.715 208.796 255.024 205.701ZM263.56 200.63C263.3 198.859 262.786 196.694 262.423 195.814C261.938 194.645 262.088 194.322 262.994 194.612C264.593 195.124 266.139 201.827 264.922 202.996C264.327 203.575 263.883 202.806 263.56 200.63ZM265.735 198.102C265.164 195.458 264.881 193.12 265.106 192.897C265.77 192.257 268.171 198.42 268.171 200.763C268.171 204.538 266.815 203.057 265.735 198.102ZM269.25 195.948C268.436 192.207 268.817 189.98 269.925 192.018C271.068 194.111 271.639 198.603 270.831 199.082C270.393 199.344 269.683 197.935 269.25 195.948ZM195.425 161.305C194.219 160.804 189.03 160.353 183.9 160.303C178.763 160.253 174.741 159.925 174.966 159.574C175.191 159.229 178.948 158.939 183.322 158.939C190.837 158.939 197.468 160.053 199.326 161.623C200.498 162.608 198.091 162.413 195.425 161.305ZM213.835 159.775C213.108 159.329 208.97 158.934 204.63 158.895C199.395 158.85 197.329 158.578 198.495 158.099C200.809 157.136 213.062 157.075 214.597 158.01C215.26 158.416 215.653 159.157 215.474 159.663C215.26 160.264 214.701 160.303 213.835 159.775ZM177.898 157.364C177.898 156.395 183.917 154.247 191.483 152.515C198.541 150.901 221.793 150.339 222.301 151.769C222.497 152.326 219.3 152.532 213.177 152.348C207.994 152.192 201.583 152.449 198.934 152.911L194.109 153.751L201.121 153.723C215.128 153.668 217.338 153.829 217.338 154.948C217.338 155.761 215.912 155.894 211.422 155.494C208.168 155.204 202.171 155.271 198.091 155.649C190.219 156.379 188.609 156.134 192.014 154.731C195.523 153.278 188.782 154.631 183.184 156.496C177.626 158.355 177.898 158.31 177.898 157.364ZM214.031 148.117C211.405 147.973 209.628 147.516 209.916 147.06C210.58 146.024 218.833 146.013 219.491 147.049C220.229 148.201 219.191 148.401 214.031 148.117ZM146.739 185.861C147.968 185.321 148.972 184.358 148.972 183.718C148.972 183.083 149.567 182.343 150.288 182.075C151.009 181.808 154.155 178.056 157.271 173.742C160.393 169.427 164.139 164.807 165.599 163.476C167.059 162.152 168.242 160.682 168.231 160.214C168.19 158.895 161.704 152.181 160.468 152.181C159.863 152.181 158.801 151.63 158.108 150.968C157.219 150.11 154.674 149.743 149.405 149.726C141.591 149.698 140.021 149.22 134.821 145.295C132.397 143.458 130.689 142.879 127.723 142.879C119.943 142.879 113.912 146.28 113.912 150.678C113.912 152.565 115.257 154.369 119.972 158.806C125.414 163.939 126.084 164.935 126.62 168.704C128.115 179.125 130.002 182.543 134.209 182.426C136.235 182.37 137.412 182.944 138.659 184.597C140.506 187.041 143.12 187.453 146.739 185.861ZM134.965 173.385C134.954 170.402 135.098 168.119 135.283 168.314C136.108 169.177 136.489 176.503 135.773 177.594C135.248 178.396 134.971 176.971 134.965 173.385ZM139.115 176.041C137.436 175.696 137.124 173.614 138.457 171.626C139.109 170.647 139.311 170.942 139.334 172.89C139.352 174.638 139.594 175.072 140.113 174.282C140.529 173.653 141.089 173.48 141.354 173.898C142.128 175.106 140.794 176.38 139.115 176.041ZM102.41 163.17C102.375 156.429 102.387 147.394 102.445 143.091C102.52 137.63 102.243 135.269 101.527 135.269C100.771 135.269 100.638 132.575 101.037 125.021C101.325 119.381 101.389 114.939 101.175 115.151C100.009 116.275 99.0801 125.6 99.034 136.678C98.9936 146.926 99.6803 181.53 99.9862 184.731C100.032 185.193 100.615 183.289 101.273 180.5C102.023 177.349 102.456 170.786 102.41 163.17ZM282.195 155.21C282.195 155.015 280.129 153.634 277.601 152.131C273.261 149.559 273.122 149.37 275.05 148.68C276.32 148.229 277.647 148.296 278.547 148.858C279.875 149.687 279.869 149.732 278.472 149.309C275.864 148.529 276.753 149.387 281.416 152.153C286.333 155.076 288.197 155.07 295.024 152.109C298.989 150.389 299.728 149.259 299.728 144.939C299.728 142.701 298.885 141.22 295.93 138.242C293.847 136.143 291.481 134.423 290.673 134.423C289.871 134.423 289.207 134.139 289.207 133.783C289.207 133.432 288.018 132.636 286.558 132.013C283.77 130.827 283.424 130.432 277.705 121.931C273.919 116.308 271.38 114.577 264.275 112.768C259.225 111.482 249.726 111.872 242.887 113.653C238.178 114.878 235.142 116.487 239.251 115.579C244.122 114.505 248.422 113.943 247.943 114.444C247.666 114.733 244.33 115.741 240.538 116.676C234.79 118.095 231.564 119.688 232.539 120.628C232.655 120.734 235.102 120.283 237.97 119.626C244.214 118.184 247.931 117.995 244.601 119.276C243.453 119.721 239.834 120.673 236.568 121.391C233.076 122.154 230.421 123.217 230.127 123.963C229.763 124.876 230.052 125.11 231.148 124.787C234.271 123.874 240.619 122.627 242.247 122.61C245.236 122.571 243.17 123.417 238.022 124.336C232.822 125.26 224.662 128.244 225.395 128.951C225.625 129.173 227.755 128.789 230.121 128.093C234.398 126.841 238.218 126.401 237.324 127.264C237.064 127.515 232.805 128.834 227.853 130.198C217.632 133.015 215.826 134.005 222.088 133.354C228.124 132.731 239.598 134.712 245.75 137.446C248.601 138.715 253.333 141.354 256.265 143.313C259.202 145.273 264.31 147.733 267.622 148.786C270.935 149.832 274.877 151.775 276.389 153.1C278.703 155.137 282.195 156.407 282.195 155.21ZM274.311 147.104C274.311 146.642 274.704 146.258 275.183 146.258C275.668 146.258 276.06 146.642 276.06 147.104C276.06 147.572 275.668 147.95 275.183 147.95C274.704 147.95 274.311 147.572 274.311 147.104ZM175.676 149.676C178.255 147.076 180.8 146.019 178.757 148.396C178.146 149.103 177.926 149.949 178.261 150.277C178.89 150.884 189.255 140.485 189.278 139.222C189.284 138.838 186.826 140.246 183.813 142.35C180.8 144.449 175.889 147.783 172.9 149.749C169.916 151.714 167.648 153.606 167.873 153.952C168.49 154.915 172.83 152.532 175.676 149.676ZM175.728 144.889C178.613 142.968 182.214 140.307 183.721 138.971C185.227 137.635 187.593 135.909 188.972 135.147C191.379 133.805 195.425 129.04 195.425 127.537C195.425 126.474 193.728 126.657 192.326 127.871C186.693 132.747 178.913 137.713 177.124 137.579C176.103 137.507 175.266 137.173 175.266 136.833C175.266 136.499 177.978 134.468 181.285 132.33C184.598 130.187 188.205 127.509 189.301 126.379C190.404 125.254 192.614 123.907 194.224 123.401C198.351 122.087 199.718 117.255 197.71 111.103C196.937 108.738 196.302 105.425 196.302 103.744C196.302 98.8508 198.074 92.1538 199.366 92.1538C201.046 92.1538 204.093 98.7227 204.676 103.605C205.432 109.868 205.998 112.022 206.661 111.131C206.99 110.691 208.727 109.673 210.528 108.871C213.408 107.591 213.743 107.134 213.315 105.069C213.05 103.777 213.229 100.376 213.714 97.5147C214.193 94.6478 214.377 91.5359 214.123 90.6007C213.667 88.9083 213.639 88.9083 210.897 90.5227C207.585 92.4711 204.786 92.6047 203.02 90.9013C201.294 89.2368 202.027 86.5925 205.368 82.4285C210.909 75.5368 216.103 72.9092 220.189 74.9355C223.363 76.5109 223.202 78.1977 219.393 83.2023C216.368 87.1882 216.224 87.6836 216.039 95.043C215.93 99.2627 215.555 103.521 215.203 104.501C214.666 106.01 214.983 106.366 217.269 106.806C219.179 107.179 219.97 107.813 219.97 108.982C219.97 112.289 218.227 114.922 214.776 116.832C212.484 118.101 211.07 119.571 210.736 121.035C210.453 122.271 208.046 126.457 205.392 130.331C202.737 134.211 200.388 137.635 200.186 137.941C199.978 138.242 200.694 138.281 201.779 138.014C202.864 137.752 204.087 137 204.491 136.338C205.213 135.169 215.474 130.198 217.165 130.198C217.638 130.198 218.256 129.624 218.533 128.923C218.815 128.222 219.427 127.743 219.9 127.865C221.441 128.26 226.099 124.737 226.099 123.172C226.104 122.332 226.491 121.875 226.964 122.154C228.038 122.794 233.191 115 235.061 109.907C241.733 91.7419 243.147 85.9301 243.17 76.5109C243.193 67.4926 243.095 67.0194 239.973 60.8736C237.381 55.7633 235.39 53.3389 229.74 48.4016C223.225 42.7084 217.338 34.7088 217.338 31.5535C217.338 27.7107 204.393 20.2907 197.687 20.2907C193.572 20.2907 184.91 22.0893 184.91 22.9433C184.91 23.3441 184.119 23.672 183.155 23.672C180.991 23.672 167.019 30.2648 161.929 33.6867C156.677 37.2145 149.763 44.349 146.017 50.1084C144.269 52.7911 142.837 55.2055 142.837 55.4732C142.837 55.741 142.099 56.9713 141.198 58.2071C139.057 61.1297 135.179 72.102 133.078 81.1593C128.334 101.645 127.821 115.902 131.439 126.757C132.432 129.752 133.436 134.095 133.667 136.416C133.892 138.732 134.181 140.675 134.296 140.73C134.417 140.78 136.61 142.05 139.173 143.542C141.735 145.039 144.165 146.258 144.569 146.258C144.973 146.258 145.573 144.36 145.908 142.033C146.237 139.712 146.918 137.563 147.42 137.262C148.309 136.733 147.708 143.202 146.618 145.946C146.364 146.587 146.531 147.104 146.987 147.104C147.443 147.104 148.539 144.805 149.422 141.994C151.061 136.783 153.104 133.983 152.296 138.069C151.564 141.771 154.732 139.294 157.369 134.095C158.627 131.617 160.52 128.678 161.571 127.565C162.627 126.457 164.618 123.646 165.997 121.319C169.177 115.974 169.079 116.063 170.014 117.522C170.516 118.307 170.383 119.209 169.639 120.033C169.004 120.74 166.58 124.553 164.26 128.505C161.934 132.458 159.078 136.928 157.906 138.442C156.734 139.951 156.117 141.164 156.538 141.142C156.96 141.114 158.812 139.177 160.659 136.839C162.506 134.501 164.231 132.797 164.491 133.042C165.062 133.599 159.62 140.847 156.533 143.636C155.297 144.75 154.501 146.002 154.767 146.414C155.038 146.832 156.354 145.729 157.698 143.965C160.428 140.391 165.628 135.453 165.628 136.438C165.628 136.783 165.224 137.797 164.728 138.687C164.006 139.99 164.093 140.207 165.166 139.812C165.905 139.539 166.505 139.739 166.505 140.252C166.505 140.769 166.205 141.192 165.847 141.203C165.484 141.209 163.885 142.734 162.292 144.583C159.995 147.255 159.707 147.95 160.901 147.95C161.732 147.95 162.148 147.694 161.819 147.383C161.092 146.676 164.756 142.784 165.645 143.313C167.498 144.416 175.566 128.539 178.856 117.316C181.274 109.077 181.268 109.06 176.114 109.06C172.842 109.06 171.567 108.704 171.157 107.68C169.916 104.562 174.175 101.684 181.164 100.922C184.823 100.521 185.862 100.794 189.469 103.126C191.737 104.59 193.838 106.539 194.143 107.463C195.309 111.014 190.692 112.885 187.149 110.302C184.246 108.181 183.351 108.832 182.728 113.497C181.926 119.559 178.452 129.168 174.948 135.046C173.356 137.73 170.58 142.495 168.785 145.646L165.518 151.374L167.994 149.871C169.356 149.047 172.836 146.804 175.728 144.889ZM143.888 132.525C145.227 126.941 143.98 111.655 141.423 102.297C140.985 100.688 141.095 100.404 141.891 101.122C143.126 102.224 145.371 113.937 145.683 120.912C145.804 123.607 146.196 125.633 146.554 125.421C146.912 125.21 147.085 121.441 146.935 117.049C146.791 112.657 147.01 109.06 147.426 109.06C148.193 109.06 148.205 126.212 147.437 132.102C147.01 135.436 145.873 136.288 145.198 133.788C144.892 132.675 144.771 132.781 144.69 134.211C144.638 135.258 144.24 136.115 143.807 136.115C143.363 136.115 143.397 134.573 143.888 132.525ZM145.994 129.58C145.706 129.301 145.498 129.797 145.538 130.693C145.579 131.673 145.787 131.873 146.064 131.2C146.317 130.593 146.289 129.864 145.994 129.58ZM149.445 133.477C150.473 130.348 150.588 129.118 150.657 120.545C150.698 115.935 150.969 112.395 151.269 112.684C151.95 113.347 151.777 132.157 151.067 133.939C150.265 135.959 148.77 135.531 149.445 133.477ZM188.99 133.12C189.255 132.447 189.827 132.107 190.259 132.363C191.344 133.015 191.246 133.321 189.775 133.866C188.926 134.184 188.667 133.933 188.99 133.12ZM137.557 126.323C137.545 122.644 137.193 118.201 136.772 116.459C136.356 114.716 136.322 113.291 136.703 113.291C137.741 113.291 139.098 122.404 138.821 127.531C138.434 134.584 137.58 133.761 137.557 126.323ZM153.56 124.932C153.572 122.271 153.93 120.294 154.345 120.545C155.263 121.09 155.205 124.737 154.23 127.659C153.71 129.229 153.537 128.528 153.56 124.932ZM217.344 102.508C217.35 98.3219 224.477 89.8603 228.534 89.2257C230.467 88.925 232.239 90.2778 232.228 92.0425C232.216 93.835 226.872 100.304 223.3 102.842C219.45 105.587 217.338 105.464 217.344 102.508ZM224.858 97.5147C224.621 96.9191 224.812 96.2065 225.279 95.9282C225.747 95.6443 225.902 95.0597 225.62 94.6144C224.69 93.1726 223.473 94.7368 223.473 97.3644C223.473 99.2683 223.144 99.8194 222.203 99.4743C221.343 99.1514 221.095 99.4074 221.436 100.265C221.868 101.35 222.168 101.322 223.611 100.064C224.535 99.2571 225.094 98.1104 224.858 97.5147ZM229.169 93C229.469 92.5324 229.319 92.1538 228.834 92.1538C228.355 92.1538 227.715 92.5324 227.42 93C227.12 93.462 227.27 93.8462 227.755 93.8462C228.234 93.8462 228.875 93.462 229.169 93ZM172.282 92.2485C174.516 85.6406 176.432 67.3256 175.647 60.0275C175.185 55.702 174.129 50.8861 172.9 47.5031C172.496 46.3909 172.623 46.2929 173.483 47.0572C175.133 48.5274 176.968 57.0882 177.17 64.2527L177.349 70.5934L177.857 63.4066C178.284 57.4277 178.498 56.6428 179.15 58.7304C179.917 61.1854 178.7 74.4957 176.94 82.8516C175.993 87.3496 171.734 98.0714 170.897 98.0714C170.58 98.0714 171.203 95.4494 172.282 92.2485ZM178.775 88.9974C178.775 88.4686 179.167 87.0379 179.646 85.8243C180.125 84.6052 180.697 82.5844 180.922 81.3318C182.618 71.69 183.149 67.3368 183.207 62.5604C183.265 57.9121 183.426 57.3665 184.246 59.0087C185.931 62.3934 182.203 86.6426 179.606 89.1533C179.081 89.6599 178.775 89.5986 178.775 88.9974ZM184.436 81.1593C186.433 72.8201 187.535 67.2254 187.535 65.4663C187.535 64.3362 187.939 63.4066 188.43 63.4066C188.921 63.4066 189.146 64.2638 188.921 65.3104C188.701 66.357 188.049 69.8752 187.472 73.1319C186.901 76.3829 185.868 80.0014 185.181 81.1593L183.934 83.2747L184.436 81.1593ZM199.251 70.5934C199.488 69.6637 200.723 66.0508 201.998 62.5604C204.664 55.27 206.782 44.0188 206.806 37.038C206.811 34.3915 207.215 31.9911 207.694 31.7038C210.395 30.0967 207.054 54.1188 203.256 63.6793C201.265 68.6895 198.541 73.3879 199.251 70.5934ZM212.958 69.7472C212.958 69.5134 214.435 67.8879 216.241 66.1343C218.048 64.3808 220.599 60.8625 221.909 58.3184C224.373 53.5159 225.291 54.2652 223.109 59.2982C221.17 63.7795 212.958 72.23 212.958 69.7472ZM218.215 68.9456C218.215 68.1273 226.324 57.4222 226.682 57.7673C227.137 58.2071 222.151 66.4962 220.431 68.1495C219.225 69.3186 218.215 69.6804 218.215 68.9456ZM204.191 68.1273C204.191 67.9324 204.976 66.0063 205.94 63.8408C207.96 59.2982 209.905 51.5775 210.788 44.5967C211.382 39.9305 212.986 37.7032 212.923 41.6379C212.813 48.5681 206.846 68.478 204.878 68.478C204.503 68.478 204.191 68.3221 204.191 68.1273ZM187.61 56.5036C187.57 56.1919 188.176 53.5365 188.955 50.6044C190.311 45.4991 190.283 38.7236 188.874 29.5901L188.418 26.6313L189.671 29.1676C191.639 33.1507 192.199 39.9144 191.073 46.2161C190.19 51.1789 187.824 58.2015 187.61 56.5036ZM192.36 48.1901C193.486 43.2445 193.624 37.8602 192.753 33.0404C191.916 28.3932 192.285 26.574 193.636 28.6877C195.892 32.2043 195.205 47.9953 192.706 50.2376C191.939 50.924 191.852 50.418 192.36 48.1901ZM151.2 146.2C152.146 144.731 151.067 144.419 149.867 145.816C149.174 146.618 149.111 147.102 149.694 147.102C150.202 147.102 150.882 146.696 151.2 146.2ZM162.148 142.454C163.337 140.889 163.319 140.851 161.9 141.925C161.057 142.56 160.37 143.484 160.37 143.968C160.37 144.452 160.48 144.692 160.613 144.497C160.751 144.302 161.444 143.383 162.148 142.454ZM121.126 140.032C123.094 137.689 123.083 136.113 121.103 136.113C120.099 136.113 118.818 137.51 117.588 139.949L115.655 143.784L117.635 142.81C118.72 142.27 120.295 141.023 121.126 140.032ZM196.856 137.21C196.706 137.065 198.103 135.412 199.949 133.536C202.87 130.58 206.823 124.517 206.823 122.998C206.823 122.725 204.058 125.28 200.688 128.676C197.318 132.066 194.553 135.195 194.553 135.623C194.553 136.052 193.947 137.048 193.209 137.833C192.47 138.618 191.702 140.088 191.5 141.095C191.177 142.727 191.471 142.626 194.132 140.205C195.783 138.702 197.006 137.355 196.856 137.21ZM126.69 139.308C125.097 138.451 122.679 138.969 122.679 140.166C122.679 140.567 123.919 140.717 125.431 140.505C127.705 140.182 127.925 139.977 126.69 139.308ZM131.468 134.955C130.776 131.732 130.112 130.418 129.327 130.708C128.577 130.986 127.509 129.383 126.211 126.037C125.126 123.237 123.689 120.509 123.019 119.975C122.35 119.435 121.801 118.605 121.801 118.121C121.801 116.952 115.505 108.958 111.656 105.245C109.959 103.608 108.833 101.86 109.151 101.359C109.474 100.858 108.031 98.7706 105.948 96.722C103.859 94.6734 102.601 92.9978 103.143 92.9978C104.69 92.9978 119.21 109.793 122.511 115.399C123.983 117.904 123.769 116.028 121.732 108.563C120.439 103.82 119.678 97.3121 119.118 86.234C118.044 64.9129 116.763 58.6669 111.967 51.3448C109.168 47.0684 102.133 40.5785 100.298 40.5785C99.6976 40.5785 98.982 40.0285 98.7165 39.356C98.4453 38.6836 94.7575 36.5398 90.5157 34.5914C86.2738 32.6435 80.7565 29.7231 78.2518 28.1015C74.1774 25.4561 73.3059 25.2112 69.7913 25.7195C66.3805 26.2132 64.6433 27.3789 56.3957 34.72C49.5984 40.7695 44.9306 44.1363 39.8808 46.6314C22.2019 55.3663 12.6794 64.4008 6.96587 77.8503C5.89705 80.3666 4.43635 83.7122 3.71986 85.2821C1.83117 89.4183 2.55078 98.2807 5.18465 103.324C9.50059 111.591 17.6568 118.399 23.1522 118.321C25.5559 118.288 25.3954 118.138 21.5818 116.841C18.8272 115.905 16.9545 114.658 16.2538 113.289C15.66 112.125 14.317 109.576 13.2707 107.622C10.7475 102.918 10.8549 98.1638 13.6112 92.5413C18.5392 82.4931 33.2645 75.1281 45.5006 76.5867C55.2862 77.7557 61.6421 81.2906 74.6446 92.7862C79.3828 96.9725 84.8539 100.825 89.1072 102.968C96.5059 106.698 103.882 113.172 108.654 120.114C111.696 124.534 120.78 133.062 126.13 136.503C129.286 138.54 132.01 140.077 132.172 139.921C132.339 139.759 132.022 137.527 131.468 134.955H131.468ZM113.549 99.9007C112.844 98.5813 110.467 95.3748 108.268 92.7695C106.069 90.1642 104.274 87.7482 104.274 87.3975C104.274 86.3231 109.543 91.5559 111.448 94.5175C112.435 96.054 113.404 97.1506 113.606 96.9558C114.126 96.4548 112.192 92.3409 109.653 88.5387C108.481 86.7851 107.72 85.1596 107.962 84.9314C108.62 84.2912 112.446 90.3034 114.57 95.3191C115.603 97.763 116.088 99.7615 115.649 99.7615C115.205 99.7615 115.072 100.329 115.349 101.025C116.232 103.235 114.887 102.395 113.549 99.9007ZM113.964 88.4663C112.85 85.8109 112.112 83.4617 112.325 83.2558C112.908 82.6935 116.677 91.3444 116.313 92.4021C116.14 92.8976 115.084 91.1273 113.964 88.4663ZM88.565 74.0426C88.5304 73.1519 88.7323 72.6509 89.0267 72.9348C89.3152 73.2131 89.3499 73.9424 89.0959 74.5547C88.8131 75.2283 88.6054 75.0279 88.565 74.0426ZM87.2896 70.5577C86.447 68.4312 86.6951 67.8857 87.7282 69.6002C88.2418 70.4464 88.4726 71.3204 88.2476 71.5375C88.0225 71.7546 87.5897 71.3148 87.2896 70.5577ZM87.7455 66.2768C87.0876 64.4676 85.0042 60.3648 83.117 57.1583C79.1406 50.4235 79.1117 48.7418 83.0708 54.7078C86.4123 59.7469 89.523 66.6776 89.1883 68.3254C89.0498 69.0102 88.3976 68.0861 87.7455 66.2768ZM84.7906 65.7313C84.0865 64.6847 83.0362 62.8755 82.4475 61.712C81.426 59.6801 81.4433 59.6634 82.8169 61.2945C84.4617 63.2318 86.9664 67.6351 86.4296 67.6351C86.2334 67.6351 85.4947 66.7778 84.7906 65.7313ZM86.6316 56.9857C85.5986 54.7033 83.6191 51.4512 82.2397 49.7572C79.2907 46.1365 78.9502 44.7108 81.5818 46.9999C83.6941 48.8409 89.7308 59.9584 89.0036 60.6654C88.7381 60.9215 87.6704 59.2626 86.6316 56.9857ZM79.712 57.8876C79.106 57.1806 78.777 56.4402 78.9848 56.2398C79.1925 56.0394 79.8389 56.6183 80.4276 57.5257C81.703 59.4908 81.2759 59.7079 79.712 57.8876ZM87.2088 51.5692C86.8336 50.4068 85.3908 47.8199 84.0057 45.8203C81.3163 41.943 81.097 41.4241 82.1589 41.4241C83.2093 41.4241 88.6804 51.4718 88.2649 52.6414C88.0629 53.2142 87.5839 52.7321 87.2088 51.5692ZM103.928 134.649C103.634 134.371 103.426 134.872 103.466 135.762C103.507 136.748 103.714 136.948 103.997 136.269C104.251 135.662 104.217 134.933 103.928 134.649ZM103.651 118.917C102.797 117.581 101.821 121.289 101.804 125.97L101.793 129.772L103.033 124.829C103.714 122.112 103.991 119.451 103.651 118.917ZM128.923 126.243C128.155 124.974 127.988 124.94 127.965 126.037C127.936 127.462 128.86 128.743 129.477 128.147C129.685 127.947 129.431 127.089 128.923 126.243ZM205.946 120.292C205.946 120.158 205.253 120.064 204.41 120.075C202.021 120.12 199.955 122.035 198.426 125.631L197.023 128.926L201.484 124.729C203.937 122.424 205.946 120.426 205.946 120.292ZM25.3933 115.082C25.3933 114.67 24.7683 112.894 24.0048 111.135C22.3981 107.422 22.4835 106.932 26.4812 96.8389C30.109 87.6814 32.4533 85.566 43.3366 81.6135L50.9131 78.8635L44.3102 78.2901C38.2233 77.7557 37.2093 77.9116 31.3221 80.2775C17.2005 85.9445 10.0621 98.0636 15.6792 106.831C16.6834 108.401 17.5053 110.311 17.5053 111.073C17.5053 111.842 18.787 113.222 20.3533 114.141C23.3844 115.922 25.3933 116.301 25.3933 115.082ZM203.314 113.289C203.314 112.821 202.898 112.443 202.385 112.443C201.877 112.443 201.704 112.821 201.998 113.289C202.298 113.751 202.714 114.13 202.927 114.13C203.141 114.13 203.314 113.751 203.314 113.289ZM218.215 110.238C218.215 110.055 217.621 109.904 216.899 109.904C216.178 109.904 215.584 110.272 215.584 110.723C215.584 111.174 216.178 111.324 216.899 111.057C217.621 110.789 218.215 110.422 218.215 110.238ZM183.594 105.044C183.68 103.953 183.242 103.141 182.572 103.141C181.926 103.141 181.401 103.714 181.401 104.41C181.401 105.106 181.008 105.679 180.529 105.679C180.044 105.679 179.652 105.295 179.652 104.833C179.652 103.508 177.268 103.842 176.709 105.239C176.426 105.952 175.629 106.28 174.862 105.996C174.117 105.718 173.517 105.946 173.517 106.497C173.517 107.188 175.07 107.416 178.48 107.227C182.913 106.976 183.467 106.737 183.594 105.044ZM188.413 105.679C185.868 103.759 184.817 103.553 185.129 105.044C185.435 106.509 186.785 107.344 188.851 107.338C190.456 107.332 190.421 107.193 188.413 105.679ZM202.437 103.558C202.437 102.495 201.837 101.409 201.104 101.137C200.186 100.797 199.932 100.001 200.296 98.6036C200.613 97.3845 200.388 96.2989 199.742 95.9148C198.905 95.4193 198.778 96.2766 199.193 99.6279C199.493 102.094 199.378 103.987 198.916 103.987C198.472 103.987 198.322 104.516 198.576 105.161C199.332 107.054 202.437 105.757 202.437 103.558ZM125.397 99.5667C125.12 92.1683 124.433 92.3019 124.433 99.7615C124.433 103.168 124.693 105.707 125.016 105.395C125.333 105.089 125.506 102.467 125.397 99.5667ZM124.266 90.7209C124.375 92.2518 124.785 92.8864 125.426 92.5023C126.124 92.0848 126.297 88.3661 125.997 79.9824C125.726 72.2612 125.853 68.9489 126.361 70.5911C126.793 71.9884 127.174 79.4035 127.215 87.0802C127.307 106.536 128.542 100.018 128.894 78.201L129.177 60.4483L129.656 72.2835C130.308 88.5443 131.878 85.1262 131.878 67.4236C131.884 60.1032 132.178 54.1088 132.542 54.1077C132.899 54.1066 133.2 57.1249 133.2 60.8213C133.2 68.9211 134.885 71.0922 135.081 63.2429C135.277 55.4493 135.041 53.5115 133.044 46.51C130.447 37.4043 131.145 32.9091 137.014 21.0188C143.49 7.91274 143.824 5.64591 139.611 3.50601C136.512 1.9327 134.342 2.32617 123.885 6.36348C112.054 10.9277 102.26 12.2148 97.4873 9.83219C92.0508 7.12113 81.1778 8.52843 78.0614 12.3451C75.4874 15.5043 74.7025 21.7386 76.659 23.5328C77.7959 24.5749 78.2922 24.6651 78.5981 23.8813C78.8174 23.3001 79.3888 22.8247 79.862 22.8247C80.3352 22.8247 81.7203 21.6835 82.9323 20.2884C86.8509 15.7954 91.0293 17.4705 94.9826 25.1216C96.2349 27.5471 97.2622 30.0566 97.2622 30.6985C97.2622 33.2197 100.229 37.3798 103.397 39.3121C111.038 43.9648 116.33 52.3758 118.818 63.8274C119.631 67.5461 120.595 77.2491 120.965 85.3879C121.559 98.5034 121.951 102.495 122.782 103.987C122.909 104.221 123.256 100.797 123.556 96.3769C123.856 91.9623 124.173 89.4127 124.266 90.7209ZM115.39 40.3675C115.095 36.5314 114.079 30.7346 113.133 27.4864C112.181 24.2387 111.575 21.4168 111.783 21.2164C112.371 20.6469 112.671 21.2109 114.645 26.6291L116.498 31.7016L116.059 27.0516C115.465 20.7388 117.052 23.2879 118.206 30.4992C119.389 37.9265 119.66 42.9255 118.916 43.6425C118.575 43.9726 118.252 42.9422 118.194 41.354C118.137 39.7652 117.762 37.3236 117.363 35.9291C116.913 34.3537 116.821 36.0365 117.121 40.3675C117.409 44.5611 117.271 47.3423 116.763 47.3423C116.307 47.3423 115.684 44.2037 115.39 40.3675ZM119.874 32.3357C119.504 25.9822 120.278 21.7336 121.132 25.4094C121.98 29.0802 121.923 38.0423 121.045 38.0423C120.584 38.0423 120.053 35.4743 119.874 32.3357ZM122.765 31.9627C122.817 29.9592 123.169 27.3689 123.556 26.2066C124.081 24.6311 124.277 25.4255 124.346 29.3268C124.393 32.2054 124.041 34.7962 123.556 35.0835C123.019 35.4036 122.713 34.195 122.765 31.9627ZM209.449 88.7669C210.176 88.316 210.372 87.9486 209.887 87.9486C209.408 87.9486 208.421 88.316 207.694 88.7669C206.973 89.2179 206.777 89.5908 207.261 89.5908C207.74 89.5908 208.727 89.2179 209.449 88.7669ZM206.823 86.607C206.823 86.401 206.425 86.234 205.946 86.234C205.461 86.234 205.068 86.6348 205.068 87.1303C205.068 87.6202 205.461 87.7872 205.946 87.5033C206.425 87.2138 206.823 86.813 206.823 86.607ZM211.203 85.7608C211.203 85.5549 210.811 85.3879 210.326 85.3879C209.847 85.3879 209.449 85.7887 209.449 86.2841C209.449 86.774 209.847 86.941 210.326 86.6571C210.811 86.3676 211.203 85.9668 211.203 85.7608ZM214.475 83.1667C212.963 81.7917 209.449 80.8787 209.449 81.8585C209.449 82.3038 210.043 82.8883 210.765 83.1556C211.486 83.4228 212.08 84.23 212.08 84.9425C212.08 86.0336 212.369 86.0726 213.818 85.1986C215.185 84.3747 215.324 83.9405 214.475 83.1667ZM218.481 80.3721C219.439 78.8078 219.67 77.7 219.104 77.366C217.777 76.57 216.467 77.6555 217.032 79.075C217.303 79.7542 217.119 80.3165 216.622 80.3165C216.12 80.3165 215.584 79.7264 215.428 79.0027C215.18 77.8336 214.954 77.8448 213.396 79.075C212.017 80.1606 211.959 80.3554 213.131 80.0047C214.095 79.7152 214.81 80.1327 215.162 81.2016C215.907 83.4729 216.703 83.2725 218.481 80.3721ZM96.2292 31.5452C94.7171 26.2567 90.1636 20.2701 87.6878 20.3113C85.8064 20.3424 79.3772 26.2127 80.3064 27.0494C80.7104 27.4179 83.2151 28.7345 85.8698 29.9753C88.5188 31.2162 91.6757 32.7432 92.8819 33.3689C96.6447 35.3234 97.2218 35.01 96.2292 31.5452ZM95.5078 229.553C95.5078 229.33 97.4815 226.541 99.8939 223.351C102.3 220.167 104.274 217.117 104.274 216.571C104.274 216.031 104.678 215.586 105.18 215.586C105.734 215.586 105.648 216.315 104.961 217.489C100.188 225.584 95.5078 231.551 95.5078 229.553ZM98.1394 229.269C98.1394 228.89 99.3398 227.476 100.806 226.118C102.272 224.765 104.678 221.837 106.156 219.622C107.633 217.4 109.018 215.586 109.237 215.586C110.161 215.586 104.834 223.858 102.029 226.786C98.9532 229.993 98.1394 230.516 98.1394 229.269ZM107.777 223.663C107.777 223.379 108.932 221.921 110.346 220.423C116.036 214.372 117.519 212.49 118.973 209.479C120.901 205.471 122.257 205.287 120.537 209.267C118.685 213.543 107.777 225.851 107.777 223.663ZM116.521 184.934C118.379 181.099 120.347 176.306 120.907 174.285C121.461 172.259 122.113 170.795 122.355 171.028C123.573 172.203 115.459 191.91 113.751 191.91C113.422 191.91 114.668 188.776 116.521 184.934ZM117.421 191.014C117.421 190.518 117.906 189.277 118.506 188.263C119.1 187.25 120.451 184.322 121.513 181.767C122.632 179.056 123.458 177.865 123.492 178.9C123.527 179.885 122.367 183.214 120.918 186.298C118.396 191.665 117.421 192.979 117.421 191.014ZM166.517 181.049C168.213 180.136 174.227 178.037 179.871 176.389C185.521 174.736 190.969 172.955 191.985 172.437C194.103 171.34 195.586 172.159 193.647 173.355C192.464 174.079 188.407 175.354 172.64 179.958C169.506 180.871 166.153 181.867 165.189 182.168C164.226 182.463 164.826 181.962 166.517 181.049Z" fill="#82AAB3" fill-opacity="0.25"/>
</g>
<defs>
<clipPath id="clip0_35_118">
<rect width="303" height="279" fill="white"/>
</clipPath>
</defs>
</svg>
