<svg width="193" height="93" viewBox="0 0 193 93" fill="none" xmlns="http://www.w3.org/2000/svg">
<path d="M18.3671 76.4675L14.3736 89.3721L12.8076 89.375L9.5181 79.5442C9.48788 79.4483 9.45765 79.3463 9.4274 79.2384C9.40316 79.1304 9.3759 79.0165 9.34562 78.8965C9.3159 79.0166 9.28616 79.1307 9.2564 79.2387C9.22665 79.3468 9.19689 79.4488 9.16711 79.5449L5.90465 89.3881L4.33865 89.391L0.28611 76.5016L1.73511 76.4989C1.89111 76.4986 2.0202 76.5374 2.12237 76.6152C2.23055 76.693 2.29978 76.7918 2.33005 76.9118L5.01459 85.8707C5.05696 86.0327 5.09636 86.2066 5.13279 86.3925C5.17521 86.5784 5.21467 86.7764 5.25115 86.9863C5.29267 86.7762 5.33421 86.5781 5.37579 86.3921C5.42335 86.2 5.47395 86.0259 5.52759 85.8698L8.54004 76.9001C8.57581 76.798 8.6446 76.7049 8.7464 76.6207C8.8542 76.5305 8.98309 76.4852 9.13309 76.4849L9.63709 76.484C9.79309 76.4837 9.91918 76.5225 10.0154 76.6003C10.1115 76.6781 10.1838 76.777 10.232 76.8969L13.2766 85.8551C13.3309 86.011 13.3793 86.179 13.4217 86.3589C13.4701 86.5388 13.5156 86.7277 13.558 86.9256C13.5876 86.7276 13.6201 86.5385 13.6557 86.3584C13.6913 86.1784 13.7299 86.0103 13.7716 85.8542L16.424 76.8852C16.4538 76.7771 16.5196 76.681 16.6214 76.5968C16.7292 76.5126 16.8581 76.4704 17.0081 76.4701L18.3671 76.4675ZM25.2332 83.7986C25.2323 83.4266 25.1775 83.0877 25.0688 82.7819C24.9661 82.4701 24.8125 82.2034 24.608 81.9818C24.4095 81.7541 24.1661 81.5806 23.8778 81.4611C23.5895 81.3357 23.2624 81.2733 22.8964 81.274C22.1284 81.2754 21.5199 81.5016 21.0709 81.9524C20.628 82.3973 20.3534 83.0158 20.2472 83.808L25.2332 83.7986ZM26.539 88.0711C26.3415 88.3115 26.105 88.522 25.8294 88.7025C25.5538 88.877 25.2571 89.0216 24.9394 89.1362C24.6277 89.2507 24.3039 89.3354 23.968 89.39C23.6321 89.4506 23.2992 89.4812 22.9692 89.4819C22.3392 89.4831 21.757 89.3792 21.2225 89.1702C20.694 88.9552 20.2343 88.644 19.8433 88.2368C19.4584 87.8235 19.1572 87.3141 18.9398 86.7085C18.7224 86.1029 18.6128 85.4071 18.611 84.6211C18.6096 83.9851 18.7042 83.3909 18.895 82.8385C19.0917 82.2862 19.3726 81.8086 19.7377 81.406C20.1027 80.9973 20.549 80.6784 21.0765 80.4494C21.604 80.2144 22.1977 80.0963 22.8577 80.0951C23.4037 80.094 23.9079 80.1861 24.3703 80.3712C24.8387 80.5503 25.2413 80.8136 25.5781 81.1609C25.9209 81.5023 26.1889 81.9278 26.3821 82.4374C26.5752 82.9411 26.6725 83.5169 26.674 84.1649C26.6746 84.4169 26.648 84.5849 26.5942 84.669C26.5404 84.7531 26.4385 84.7953 26.2885 84.7956L20.1955 84.8071C20.2148 85.3831 20.2939 85.8839 20.4329 86.3096C20.5779 86.7354 20.7767 87.092 21.0294 87.3795C21.282 87.661 21.5825 87.8735 21.9308 88.0168C22.2791 88.1542 22.6693 88.2224 23.1013 88.2216C23.5033 88.2209 23.8482 88.1752 24.136 88.0847C24.4298 87.9881 24.6815 87.8856 24.8913 87.7772C25.101 87.6688 25.2748 87.5695 25.4126 87.4793C25.5564 87.383 25.6793 87.3348 25.7813 87.3346C25.9133 87.3343 26.0154 87.3851 26.0876 87.487L26.539 88.0711ZM30.5043 76.0846L30.5347 89.3416L28.9327 89.3446L28.9023 76.0877L30.5043 76.0846ZM34.9832 76.0762L35.0136 89.3331L33.4116 89.3362L33.3812 76.0792L34.9832 76.0762ZM37.6785 83.2531L42.1245 83.2447L42.1276 84.6037L37.6816 84.6121L37.6785 83.2531ZM46.3471 87.1158C46.642 87.5112 46.9636 87.7896 47.312 87.9509C47.6664 88.1123 48.0536 88.1925 48.4736 88.1918C49.3316 88.1901 49.9879 87.8859 50.4425 87.279C50.8971 86.6722 51.123 85.7688 51.1203 84.5688C51.1177 83.4528 50.9118 82.6341 50.5026 82.1129C50.0994 81.5857 49.5228 81.3228 48.7728 81.3242C48.2508 81.3252 47.7951 81.446 47.4057 81.6868C47.0222 81.9275 46.666 82.2672 46.337 82.7058L46.3471 87.1158ZM46.3342 81.5088C46.7172 81.0641 47.1484 80.7092 47.6278 80.4443C48.1132 80.1794 48.6709 80.0464 49.3009 80.0452C49.8349 80.0442 50.3151 80.1453 50.7416 80.3485C51.1741 80.5516 51.5407 80.848 51.8416 81.2374C52.1425 81.6208 52.3716 82.0884 52.5289 82.6401C52.6921 83.1918 52.7745 83.8126 52.7761 84.5026C52.7778 85.2406 52.6894 85.9128 52.5107 86.5191C52.3321 87.1255 52.0723 87.645 51.7313 88.0776C51.3963 88.5042 50.9861 88.838 50.5006 89.0789C50.0151 89.3139 49.4694 89.4319 48.8634 89.433C48.2634 89.4342 47.7562 89.3241 47.3417 89.1029C46.9331 88.8757 46.5754 88.5553 46.2684 88.1419L46.1893 88.9701C46.1419 89.1982 46.0041 89.3124 45.7761 89.3128L44.7411 89.3148L44.7108 76.0578L46.3217 76.0548L46.3342 81.5088ZM61.1276 83.7309C61.1268 83.3589 61.072 83.02 60.9633 82.7142C60.8606 82.4024 60.707 82.1357 60.5025 81.9141C60.304 81.6864 60.0606 81.5129 59.7723 81.3934C59.484 81.268 59.1568 81.2056 58.7908 81.2063C58.0229 81.2077 57.4144 81.4339 56.9654 81.8847C56.5224 82.3296 56.2478 82.9481 56.1416 83.7403L61.1276 83.7309ZM62.4334 88.0034C62.236 88.2438 61.9995 88.4542 61.7239 88.6348C61.4483 88.8093 61.1516 88.9538 60.8339 89.0684C60.5221 89.183 60.1983 89.2676 59.8624 89.3223C59.5266 89.3829 59.1937 89.4135 58.8637 89.4142C58.2337 89.4153 57.6514 89.3114 57.1169 89.1025C56.5884 88.8875 56.1287 88.5763 55.7378 88.1691C55.3528 87.7558 55.0517 87.2463 54.8343 86.6408C54.6169 86.0352 54.5073 85.3394 54.5055 84.5534C54.5041 83.9174 54.5987 83.3232 54.7894 82.7708C54.9862 82.2185 55.2671 81.7409 55.6321 81.3382C55.9972 80.9296 56.4435 80.6107 56.971 80.3817C57.4984 80.1467 58.0921 80.0286 58.7521 80.0274C59.2981 80.0263 59.8024 80.1184 60.2648 80.3035C60.7332 80.4826 61.1358 80.7459 61.4726 81.0932C61.8154 81.4346 62.0834 81.8601 62.2765 82.3697C62.4697 82.8733 62.567 83.4492 62.5685 84.0972C62.5691 84.3492 62.5424 84.5172 62.4886 84.6013C62.4348 84.6854 62.3329 84.7276 62.1829 84.7279L56.0899 84.7394C56.1093 85.3153 56.1884 85.8162 56.3274 86.2419C56.4724 86.6677 56.6712 87.0243 56.9238 87.3118C57.1765 87.5933 57.477 87.8058 57.8253 87.9491C58.1736 88.0865 58.5638 88.1547 58.9958 88.1539C59.3978 88.1531 59.7427 88.1075 60.0305 88.017C60.3242 87.9204 60.576 87.8179 60.7858 87.7095C60.9955 87.6011 61.1693 87.5018 61.3071 87.4115C61.4509 87.3153 61.5737 87.267 61.6757 87.2669C61.8077 87.2666 61.9099 87.3174 61.9821 87.4193L62.4334 88.0034ZM66.4442 80.1568L66.4651 89.2738L64.8631 89.2768L64.8422 80.1599L66.4442 80.1568ZM66.7797 77.2942C66.78 77.4502 66.7474 77.5973 66.6817 77.7354C66.622 77.8675 66.5383 77.9877 66.4305 78.0959C66.3287 78.1981 66.2059 78.2793 66.0621 78.3396C65.9242 78.3998 65.7773 78.4301 65.6213 78.4304C65.4653 78.4307 65.3182 78.401 65.1801 78.3412C65.0479 78.2815 64.9307 78.2007 64.8285 78.0989C64.7263 77.9911 64.645 77.8712 64.5847 77.7393C64.5244 77.6015 64.494 77.4545 64.4937 77.2985C64.4933 77.1425 64.523 76.9955 64.5827 76.8573C64.6423 76.7132 64.7231 76.5901 64.8248 76.4879C64.9266 76.3797 65.0434 76.2955 65.1752 76.2352C65.3131 76.175 65.46 76.1447 65.616 76.1444C65.772 76.1441 65.9191 76.1738 66.0572 76.2336C66.2014 76.2933 66.3246 76.3771 66.4268 76.4849C66.5351 76.5867 66.6193 76.7095 66.6797 76.8534C66.746 76.9913 66.7793 77.1382 66.7797 77.2942ZM70.8165 81.4716C71.014 81.2492 71.2235 81.0478 71.4451 80.8674C71.6667 80.687 71.9003 80.5336 72.146 80.4071C72.3977 80.2746 72.6615 80.1751 72.9374 80.1086C73.2192 80.0361 73.5221 79.9995 73.8461 79.9989C74.3441 79.9979 74.7823 80.0811 75.1607 80.2484C75.5451 80.4097 75.8636 80.6431 76.1163 80.9486C76.375 81.2481 76.5708 81.6107 76.7038 82.0365C76.8368 82.4622 76.9038 82.9331 76.905 83.4491L76.9183 89.2541L75.3073 89.2571L75.294 83.4522C75.2924 82.7622 75.1322 82.2285 74.8134 81.8511C74.5005 81.4676 74.023 81.2765 73.381 81.2778C72.907 81.2787 72.4633 81.3935 72.0498 81.6223C71.6423 81.851 71.2651 82.1608 70.918 82.5514L70.9333 89.2654L69.3223 89.2684L69.3014 80.1515L70.2644 80.1496C70.4924 80.1492 70.6337 80.2599 70.6882 80.4818L70.8165 81.4716ZM82.7512 84.7881C83.0752 84.7875 83.3601 84.7419 83.6059 84.6515C83.8517 84.561 84.0584 84.4346 84.226 84.2723C84.3937 84.11 84.5192 83.9178 84.6027 83.6956C84.6862 83.4674 84.7276 83.2184 84.727 82.9484C84.7257 82.3904 84.5537 81.9467 84.211 81.6173C83.8742 81.288 83.3848 81.1239 82.7428 81.1251C82.0948 81.1263 81.6002 81.2923 81.259 81.6229C80.9237 81.9535 80.7567 82.3978 80.758 82.9558C80.7586 83.2258 80.8012 83.4748 80.8857 83.7026C80.9762 83.9244 81.1057 84.1162 81.274 84.2779C81.4424 84.4396 81.6497 84.5652 81.8959 84.6547C82.1421 84.7442 82.4272 84.7887 82.7512 84.7881ZM85.6516 89.7326C85.651 89.5106 85.5876 89.3307 85.4613 89.193C85.335 89.0552 85.1638 88.9475 84.9476 88.87C84.7374 88.7924 84.4913 88.7388 84.2092 88.7093C83.9271 88.6739 83.6271 88.6474 83.309 88.63C82.997 88.6126 82.6789 88.5952 82.3549 88.5778C82.0309 88.5605 81.7188 88.531 81.4187 88.4896C81.0831 88.6462 80.8075 88.8448 80.5921 89.0852C80.3826 89.3196 80.2782 89.5958 80.279 89.9138C80.2794 90.1178 80.3309 90.3067 80.4333 90.4805C80.5417 90.6603 80.704 90.813 80.9203 90.9386C81.1366 91.0701 81.4068 91.1716 81.731 91.243C82.0612 91.3204 82.4483 91.3587 82.8923 91.3578C83.3243 91.357 83.7112 91.3173 84.053 91.2386C84.3948 91.16 84.6826 91.0485 84.9162 90.904C85.1559 90.7596 85.3385 90.5882 85.4641 90.39C85.5896 90.1917 85.6521 89.9726 85.6516 89.7326ZM87.2593 80.4776L87.2607 81.0716C87.2612 81.2696 87.1355 81.3958 86.8836 81.4503L85.8489 81.5872C86.0538 81.9829 86.1568 82.4207 86.1579 82.9007C86.1589 83.3447 86.0728 83.7498 85.8997 84.1162C85.7325 84.4765 85.4992 84.7859 85.1998 85.0445C84.9004 85.303 84.5409 85.5017 84.1212 85.6405C83.7015 85.7793 83.2456 85.8492 82.7536 85.8501C82.3276 85.8509 81.9255 85.8007 81.5473 85.6994C81.3556 85.8197 81.2089 85.949 81.1072 86.0872C81.0055 86.2194 80.9548 86.3545 80.9551 86.4925C80.9556 86.7085 81.043 86.8733 81.2172 86.987C81.3975 87.0946 81.6317 87.1722 81.9198 87.2197C82.2079 87.2671 82.535 87.2965 82.901 87.3078C83.273 87.3191 83.6511 87.3394 84.0351 87.3687C84.4252 87.3919 84.8033 87.4362 85.1694 87.5015C85.5416 87.5668 85.8718 87.6742 86.1602 87.8237C86.4485 87.9731 86.68 88.1797 86.8546 88.4434C87.0352 88.707 87.126 89.0488 87.127 89.4688C87.1278 89.8588 87.0297 90.237 86.8325 90.6034C86.6414 90.9698 86.3631 91.2943 85.9978 91.577C85.6324 91.8657 85.183 92.0945 84.6493 92.2635C84.1217 92.4385 83.5249 92.5266 82.8589 92.5279C82.193 92.5292 81.6108 92.4643 81.1125 92.3332C80.6142 92.2021 80.1998 92.0259 79.8693 91.8045C79.5388 91.5832 79.2892 91.3256 79.1205 91.032C78.9579 90.7443 78.8762 90.4414 78.8754 90.1234C78.8744 89.6734 79.0145 89.2921 79.2958 88.9796C79.5771 88.6671 79.9635 88.4174 80.4551 88.2304C80.1848 88.1109 79.9685 87.9523 79.806 87.7547C79.6495 87.5509 79.5709 87.2781 79.5701 86.9361C79.5698 86.8041 79.5935 86.6691 79.6412 86.531C79.6889 86.3869 79.7605 86.2457 79.8562 86.1076C79.9579 85.9634 80.0806 85.8281 80.2243 85.7019C80.368 85.5756 80.5358 85.4643 80.7275 85.3679C80.277 85.1168 79.9252 84.7844 79.6723 84.3709C79.4193 83.9514 79.2922 83.4656 79.2909 82.9136C79.2899 82.4696 79.373 82.0675 79.5401 81.7071C79.7133 81.3408 79.9526 81.0314 80.258 80.7788C80.5634 80.5202 80.926 80.3215 81.3457 80.1827C81.7713 80.0439 82.2362 79.9741 82.7402 79.9731C83.1362 79.9724 83.5053 80.0167 83.8475 80.106C84.1897 80.1894 84.502 80.3148 84.7844 80.4822L87.2593 80.4776ZM95.7842 77.2485L95.7965 82.6035L101.602 82.5925L101.603 83.3575L95.7983 83.3685L95.8117 89.2185L94.8847 89.2202L94.8555 76.4852L102.487 76.4708L102.489 77.2358L95.7842 77.2485ZM104.842 82.4064C104.979 82.0402 105.134 81.7159 105.308 81.4335C105.487 81.1452 105.691 80.9018 105.918 80.7034C106.152 80.5049 106.409 80.3545 106.691 80.2519C106.979 80.1434 107.297 80.0888 107.645 80.0881C107.831 80.0878 108.014 80.1054 108.194 80.1411C108.374 80.1707 108.533 80.2274 108.671 80.3112L108.601 80.9053C108.571 81.0014 108.514 81.0495 108.43 81.0496C108.358 81.0498 108.247 81.029 108.097 80.9873C107.953 80.9455 107.761 80.9249 107.521 80.9254C107.173 80.926 106.864 80.9806 106.594 81.0891C106.33 81.1916 106.091 81.3481 105.875 81.5585C105.666 81.7689 105.48 82.0302 105.319 82.3425C105.164 82.6488 105.02 83.0031 104.889 83.4053L104.903 89.2013L104.039 89.2029L104.018 80.248L104.477 80.2471C104.579 80.2469 104.651 80.2678 104.693 80.3097C104.735 80.3516 104.763 80.4236 104.775 80.5255L104.842 82.4064ZM113.642 80.0858C114.284 80.0846 114.858 80.1945 115.362 80.4156C115.873 80.6306 116.302 80.9388 116.651 81.3401C117 81.7415 117.265 82.227 117.447 82.7966C117.634 83.3603 117.728 83.9931 117.73 84.6951C117.731 85.3971 117.64 86.0303 117.455 86.5946C117.277 87.159 117.014 87.6425 116.667 88.0451C116.319 88.4478 115.891 88.7576 115.382 88.9745C114.878 89.1915 114.305 89.3006 113.663 89.3018C113.021 89.303 112.445 89.1961 111.935 88.981C111.43 88.766 111 88.4578 110.646 88.0565C110.297 87.6551 110.029 87.1726 109.841 86.609C109.66 86.0453 109.568 85.4125 109.567 84.7105C109.565 84.0085 109.654 83.3753 109.833 82.811C110.017 82.2407 110.283 81.7542 110.63 81.3515C110.983 80.9488 111.412 80.639 111.915 80.4221C112.425 80.1991 113 80.087 113.642 80.0858ZM113.662 88.6268C114.196 88.6258 114.661 88.5349 115.056 88.3542C115.458 88.1674 115.79 87.9028 116.053 87.5603C116.323 87.2178 116.523 86.8064 116.654 86.3261C116.784 85.8399 116.849 85.2968 116.848 84.6968C116.847 84.1028 116.779 83.5629 116.646 83.0772C116.513 82.5914 116.311 82.1778 116.04 81.8363C115.776 81.4888 115.442 81.2224 115.039 81.0372C114.643 80.8519 114.178 80.7598 113.644 80.7608C113.11 80.7618 112.642 80.8557 112.24 81.0425C111.845 81.2292 111.513 81.4968 111.243 81.8453C110.98 82.1878 110.78 82.6022 110.643 83.0885C110.512 83.5747 110.448 84.1148 110.449 84.7088C110.45 85.3088 110.518 85.8517 110.651 86.3375C110.79 86.8172 110.992 87.2278 111.256 87.5693C111.527 87.9108 111.861 88.1742 112.257 88.3594C112.66 88.5387 113.128 88.6278 113.662 88.6268ZM120.379 89.1721L120.359 80.2171L120.836 80.2162C120.986 80.216 121.073 80.2908 121.097 80.4407L121.181 81.7366C121.528 81.2379 121.926 80.8352 122.375 80.5283C122.825 80.2215 123.331 80.0675 123.895 80.0665C124.549 80.0652 125.072 80.2533 125.463 80.6305C125.86 81.0078 126.128 81.5323 126.267 82.204C126.374 81.8378 126.524 81.5195 126.715 81.2492C126.912 80.9788 127.137 80.7564 127.389 80.5819C127.64 80.4014 127.913 80.2689 128.207 80.1843C128.506 80.0998 128.812 80.0572 129.124 80.0566C129.568 80.0558 129.968 80.13 130.322 80.2793C130.676 80.4227 130.977 80.6381 131.223 80.9256C131.47 81.2132 131.66 81.5668 131.793 81.9866C131.926 82.4063 131.993 82.8862 131.994 83.4262L132.007 89.1502L131.152 89.1518L131.139 83.4278C131.137 82.5518 130.947 81.8862 130.568 81.4309C130.188 80.9696 129.648 80.7396 128.946 80.7409C128.634 80.7415 128.334 80.7991 128.046 80.9136C127.765 81.0282 127.513 81.1996 127.292 81.4281C127.076 81.6505 126.903 81.9298 126.771 82.266C126.646 82.6023 126.584 82.9924 126.585 83.4364L126.598 89.1604L125.734 89.162L125.721 83.438C125.719 82.568 125.544 81.9024 125.195 81.441C124.851 80.9797 124.347 80.7496 123.681 80.7509C123.195 80.7518 122.745 80.8966 122.332 81.1854C121.919 81.4742 121.551 81.8739 121.228 82.3845L121.243 89.1705L120.379 89.1721ZM156.165 76.3696L152.189 89.1121L151.361 89.1137L147.574 78.0688C147.525 77.9189 147.483 77.763 147.447 77.601C147.411 77.7631 147.369 77.9192 147.322 78.0693L143.576 89.1284L142.757 89.1299L138.714 76.4025L139.479 76.4011C139.653 76.4007 139.764 76.4815 139.812 76.6434L143.049 87.1044C143.116 87.3442 143.177 87.6171 143.231 87.923C143.261 87.767 143.291 87.6229 143.32 87.4908C143.35 87.3528 143.386 87.2237 143.427 87.1036L147.003 76.6299C147.027 76.5638 147.069 76.5068 147.129 76.4586C147.189 76.4105 147.261 76.3864 147.345 76.3862L147.597 76.3858C147.681 76.3856 147.75 76.4095 147.804 76.4574C147.858 76.4993 147.9 76.5562 147.93 76.6281L151.554 87.0883C151.597 87.2022 151.633 87.3282 151.663 87.4661C151.7 87.604 151.733 87.748 151.763 87.8979C151.793 87.7479 151.82 87.6068 151.843 87.4748C151.873 87.3367 151.903 87.2077 151.932 87.0876L155.121 76.6146C155.139 76.5485 155.178 76.4915 155.238 76.4433C155.304 76.3952 155.379 76.3711 155.463 76.3709L156.165 76.3696ZM159.218 80.1438L159.239 89.0988L158.384 89.1004L158.363 80.1455L159.218 80.1438ZM159.58 77.0562C159.58 77.1642 159.557 77.2662 159.509 77.3623C159.467 77.4524 159.41 77.5335 159.338 77.6056C159.266 77.6777 159.183 77.7349 159.087 77.7771C158.991 77.8193 158.889 77.8405 158.781 77.8407C158.673 77.8409 158.571 77.8201 158.475 77.7782C158.379 77.7364 158.294 77.6796 158.222 77.6077C158.15 77.5358 158.093 77.455 158.051 77.365C158.009 77.2691 157.987 77.1672 157.987 77.0592C157.987 76.9512 158.008 76.8491 158.049 76.753C158.091 76.651 158.148 76.5639 158.22 76.4917C158.292 76.4196 158.375 76.3624 158.471 76.3202C158.567 76.2781 158.669 76.2569 158.777 76.2567C158.885 76.2565 158.987 76.2773 159.083 76.3191C159.179 76.3609 159.264 76.4177 159.336 76.4896C159.408 76.5615 159.465 76.6484 159.507 76.7503C159.556 76.8462 159.58 76.9482 159.58 77.0562ZM164.966 89.232C164.36 89.2332 163.885 89.0661 163.543 88.7307C163.206 88.3953 163.037 87.8766 163.035 87.1747L163.021 81.0547L161.734 81.0571C161.668 81.0572 161.614 81.0393 161.572 81.0034C161.53 80.9675 161.509 80.9165 161.509 80.8505L161.508 80.5175L163.038 80.4066L163.246 77.2022C163.258 77.1482 163.282 77.1002 163.318 77.0581C163.354 77.016 163.405 76.9949 163.471 76.9948L163.876 76.994L163.884 80.414L166.71 80.4087L166.711 81.0477L163.885 81.053L163.899 87.128C163.9 87.374 163.93 87.587 163.99 87.7669C164.057 87.9407 164.144 88.0846 164.252 88.1984C164.367 88.3121 164.499 88.3959 164.649 88.4496C164.799 88.5033 164.961 88.53 165.135 88.5297C165.351 88.5293 165.537 88.4989 165.693 88.4386C165.849 88.3723 165.984 88.3031 166.097 88.2309C166.211 88.1527 166.304 88.0835 166.376 88.0234C166.448 87.9572 166.505 87.9241 166.547 87.924C166.595 87.9239 166.643 87.9538 166.691 88.0138L166.926 88.3913C166.698 88.6437 166.408 88.8483 166.054 89.005C165.707 89.1556 165.344 89.2313 164.966 89.232ZM169.759 81.636C170.172 81.1312 170.642 80.7283 171.17 80.4273C171.703 80.1263 172.299 79.9752 172.959 79.9739C173.451 79.973 173.884 80.0502 174.256 80.2055C174.634 80.3608 174.947 80.5852 175.194 80.8787C175.44 81.1722 175.627 81.5259 175.754 81.9396C175.881 82.3534 175.945 82.8213 175.946 83.3433L175.959 89.0673L175.095 89.0689L175.082 83.3449C175.08 82.5049 174.887 81.8483 174.502 81.375C174.117 80.8957 173.531 80.6568 172.745 80.6583C172.163 80.6594 171.617 80.8105 171.108 81.1114C170.605 81.4064 170.156 81.8182 169.761 82.347L169.776 89.0789L168.912 89.0806L168.882 75.9856L169.746 75.984L169.759 81.636ZM179.967 80.1047L179.988 89.0597L179.133 89.0613L179.112 80.1063L179.967 80.1047ZM180.329 77.017C180.329 77.125 180.306 77.2271 180.258 77.3231C180.216 77.4132 180.159 77.4943 180.087 77.5665C180.016 77.6386 179.932 77.6958 179.836 77.7379C179.74 77.7801 179.638 77.8013 179.53 77.8015C179.422 77.8017 179.32 77.7809 179.224 77.7391C179.128 77.6973 179.044 77.6404 178.971 77.5686C178.899 77.4967 178.842 77.4158 178.8 77.3259C178.758 77.23 178.736 77.128 178.736 77.02C178.736 76.912 178.757 76.81 178.799 76.7139C178.84 76.6118 178.897 76.5247 178.969 76.4526C179.041 76.3804 179.125 76.3233 179.221 76.2811C179.316 76.2389 179.418 76.2177 179.526 76.2175C179.634 76.2173 179.736 76.2381 179.833 76.2799C179.929 76.3218 180.013 76.3786 180.085 76.4505C180.157 76.5223 180.214 76.6092 180.257 76.7111C180.305 76.8071 180.329 76.909 180.329 77.017ZM184.069 81.663C184.482 81.1462 184.958 80.7313 185.497 80.4183C186.042 80.1052 186.648 79.9481 187.314 79.9468C187.806 79.9459 188.238 80.0231 188.61 80.1784C188.989 80.3337 189.301 80.5581 189.548 80.8516C189.795 81.1452 189.981 81.4988 190.108 81.9126C190.235 82.3263 190.299 82.7942 190.301 83.3162L190.314 89.0402L189.45 89.0418L189.437 83.3178C189.435 82.4778 189.241 81.8212 188.856 81.3479C188.471 80.8687 187.885 80.6298 187.099 80.6312C186.517 80.6323 185.972 80.7834 185.462 81.0843C184.959 81.3793 184.51 81.7911 184.115 82.3199L184.131 89.0519L183.267 89.0535L183.246 80.0985L183.723 80.0976C183.873 80.0973 183.96 80.1722 183.985 80.3221L184.069 81.663Z" fill="black"/>
<ellipse cx="149.215" cy="52" rx="4.40858" ry="4" fill="#AB4090"/>
<ellipse rx="4.40766" ry="4.00102" transform="matrix(0.999026 -0.0441339 0.0535858 0.998563 43.6178 51.1898)" fill="#E30713"/>
<ellipse rx="4.40766" ry="4.00102" transform="matrix(0.999026 -0.0441339 0.0535858 0.998563 50.2306 29.1898)" fill="#ED6C04"/>
<ellipse rx="4.40766" ry="4.00102" transform="matrix(0.999026 -0.0441339 0.0535858 0.998563 122.972 10.1898)" fill="#0181CA"/>
<ellipse cx="96.3115" cy="4" rx="4.40858" ry="4" fill="#43AC35"/>
<ellipse rx="4.40766" ry="4.00102" transform="matrix(0.999026 -0.0441339 0.0535858 0.998563 66.7628 12.1898)" fill="#FFDD10"/>
<path d="M95.7192 9.0131C95.6977 9.05142 95.6905 9.10889 95.712 9.13443C95.7908 9.24937 95.5329 10.0731 95.3252 10.3605C95.0744 10.7053 94.5586 11.1523 94.2864 11.2672C94.1861 11.3055 94.1073 11.363 94.1073 11.3885C94.1073 11.4652 95.0386 11.7014 95.3323 11.7014C96.0845 11.7014 96.5645 11.2417 96.5717 10.5201C96.5717 10.2136 96.5287 10.0603 96.3496 9.75383C96.0559 9.24937 95.7836 8.93009 95.7192 9.0131Z" fill="black"/>
<path d="M95.6517 14.0423C95.0427 14.1573 94.1687 14.4382 93.6529 14.6873C92.2703 15.345 91.3533 16.2581 90.8231 17.5034C90.6082 18.0142 90.601 18.0717 90.6082 18.9912C90.6082 19.5149 90.644 20.0321 90.687 20.1406C90.7515 20.3003 90.7587 20.2364 90.7658 19.7256C90.773 19.0487 90.9592 18.2441 91.2243 17.7588C92.0553 16.2198 93.7675 15.5621 96.3896 15.7664C99.1405 15.9836 101.139 17.2607 101.977 19.3361C102.321 20.1917 102.414 20.7154 102.414 21.769C102.407 22.9376 102.307 23.3654 101.841 24.2275C100.76 26.2134 98.2164 27.9057 93.5096 29.7831C93.2661 29.8788 93.0726 29.9682 93.087 29.981C93.1443 30.0385 94.9281 29.4702 95.9741 29.0615C99.7996 27.5672 102.286 25.626 103.296 23.359C103.955 21.8839 103.926 20.1215 103.224 18.4229C102.307 16.1943 100.824 14.8278 98.6534 14.202C98.1233 14.0487 97.9083 14.0232 97.0057 14.004C96.4325 13.9912 95.8236 14.0104 95.6517 14.0423Z" fill="black"/>
<path d="M93.0296 28.6145C92.9364 29.0104 92.263 30.1215 91.783 30.6834C91.5179 30.9963 91.0594 31.4305 90.7657 31.654C90.0923 32.1649 89.0177 32.6438 88.2297 32.7843C86.2667 33.1355 85.7223 33.3207 84.9271 33.889C84.0745 34.502 83.394 35.5684 83.2149 36.5646L83.1719 36.8073L83.3366 36.5582C83.8166 35.8366 84.2465 35.3258 84.748 34.8788C85.6793 34.055 86.4458 33.7166 87.764 33.5506C88.7025 33.4356 89.0105 33.3718 89.5192 33.1802C91.5251 32.4267 93.0224 30.6515 93.1585 28.8699C93.1943 28.4421 93.1084 28.276 93.0296 28.6145Z" fill="black"/>
<path d="M103.274 28.7421C102.121 29.8852 102.078 30.8558 103.153 31.8647C104.206 32.8673 106.341 33.806 109.271 34.5787C109.743 34.7 110.252 34.8532 110.403 34.9235C111.069 35.23 111.871 35.9644 112.437 36.8073C112.817 37.3756 112.752 37.1713 112.294 36.3858C111.427 34.9107 110.847 34.4956 108.612 33.7996C105.51 32.829 104.456 32.2287 103.84 31.0665C103.704 30.8111 103.561 30.4216 103.518 30.1917C103.439 29.7575 103.482 29.0359 103.604 28.6783C103.647 28.5633 103.668 28.4548 103.647 28.4356C103.633 28.4165 103.461 28.5569 103.274 28.7421Z" fill="black"/>
<path d="M94.2477 35.0896C93.9325 35.2429 93.6459 35.4983 93.4954 35.7601C93.2519 36.1688 93.2089 36.6924 93.2089 38.8252C93.2161 41.1432 93.1086 42.0244 92.7361 42.7524C92.2274 43.7422 90.8949 44.368 89.2472 44.3807C88.8245 44.3807 88.7672 44.3935 88.9104 44.4446C89.634 44.7064 91.0382 44.783 91.6973 44.6042C92.514 44.3871 93.1731 43.8507 93.5599 43.0844C93.8465 42.5225 93.9754 42.0436 94.0757 41.1815C94.1545 40.4152 94.1331 39.9555 93.9468 38.7741C93.6531 36.8776 94.0184 35.6005 94.7778 35.8814C95.0715 35.9836 95.2005 36.2646 95.3223 37.0628C95.4297 37.7396 95.6088 38.225 95.8811 38.5953C96.0745 38.8508 96.4399 39.1956 96.5975 39.2722C96.705 39.3297 96.6978 39.2914 96.5473 39.0232C96.0459 38.1356 96.01 36.8967 96.4757 36.4753C96.7838 36.2071 97.099 36.3795 97.4428 36.9989C97.7509 37.5609 97.7796 38.0781 97.579 39.2977C97.2852 41.0538 97.3784 42.2479 97.8942 43.1483C98.5604 44.3169 99.8858 44.9746 101.77 45.0704L102.558 45.1151L102.128 45.2364C101.791 45.3386 101.498 45.3641 100.731 45.3641C99.8786 45.3641 99.6852 45.345 99.0977 45.1853C98.016 44.898 96.7694 44.3296 96.1748 43.8507C96.0172 43.723 96.0172 43.7294 94.9211 44.2466C90.7444 46.2134 86.883 47.6757 83.7881 48.4548C80.9942 49.1572 78.9739 49.419 75.3847 49.5212C73.6367 49.5723 73.0994 49.5148 72.6409 49.2147C71.3657 48.3909 72.1394 45.8303 74.7829 42.1394C75.1554 41.6157 75.1626 41.603 74.9047 41.8201C74.7614 41.9414 74.4175 42.3054 74.1453 42.6311C72.7985 44.2147 71.8242 46.0538 71.5304 47.5672C71.251 49.0231 71.6665 49.7766 72.9632 50.1406C73.4361 50.2683 73.6008 50.2811 75.2987 50.2747C76.9751 50.2747 77.2474 50.2555 78.63 50.0704C82.2407 49.585 83.5159 49.3296 85.9015 48.6336C89.1827 47.6693 92.8507 46.1049 95.9026 44.3743C96.0459 44.2977 96.096 44.3105 96.4399 44.5148C97.3139 45.0257 98.3455 45.4152 99.3342 45.594C100.208 45.7536 101.354 45.7345 102.092 45.5365C102.63 45.396 103.396 45.0576 103.239 45.0385C103.181 45.0257 102.73 44.9746 102.236 44.9171C100.803 44.7447 99.6136 44.3424 98.9903 43.8124C98.6607 43.5378 98.3742 43.1036 98.2237 42.663C98.0231 42.0819 98.0231 40.626 98.2309 39.3424C98.3169 38.8252 98.3885 38.0717 98.3885 37.6694C98.3957 36.9734 98.3813 36.9095 98.1736 36.5072C97.8584 35.9134 97.5431 35.7282 96.9199 35.7665C96.6691 35.7856 96.4184 35.8176 96.3611 35.8431C96.2894 35.8687 96.2035 35.8048 96.0888 35.626C95.8453 35.2429 95.4369 35.0257 94.8996 35.0066C94.5987 34.9938 94.3981 35.0194 94.2477 35.0896Z" fill="black"/>
<path d="M114.099 39.1189C114.171 39.6489 114.372 40.2045 114.629 40.5621C114.852 40.875 114.966 40.9388 115.776 41.2006C116.234 41.3539 116.714 41.7498 117.144 42.3181L117.509 42.8098L117.481 42.2032C117.431 41.2581 117.223 40.9835 116.256 40.5748C115.618 40.3066 114.823 39.6872 114.372 39.1061C114.228 38.9146 114.092 38.7549 114.078 38.7549C114.056 38.7549 114.071 38.9209 114.099 39.1189Z" fill="black"/>
<path d="M80.9225 42.1839C80.5357 42.2286 79.9267 42.401 79.59 42.5607C79.1745 42.765 79.024 42.9949 79.024 43.4164C79.024 43.691 79.0599 43.774 79.2246 43.9209C79.3321 44.0167 79.5399 44.1189 79.6903 44.1444C79.9625 44.1891 80.8724 44.0614 80.6718 44.0103C80.3351 43.9145 79.9339 43.7038 79.8837 43.5825C79.7619 43.2823 80.2491 42.8289 81.1661 42.401L81.7106 42.1456L81.424 42.152C81.2664 42.152 81.0443 42.1712 80.9225 42.1839Z" fill="black"/>
<path d="M114.894 44.1634C114.823 44.2272 114.837 44.521 114.93 44.8787C115.045 45.3257 114.966 45.396 114.35 45.396C113.813 45.396 112.874 45.198 111.814 44.8595C111.434 44.7382 111.119 44.6488 111.119 44.6679C111.119 44.7446 112.387 45.4151 112.846 45.5812C113.956 45.9771 114.966 45.958 115.51 45.5365C115.675 45.4024 115.661 45.2491 115.46 44.9809C115.36 44.8531 115.231 44.6104 115.167 44.438C115.052 44.1315 114.995 44.074 114.894 44.1634Z" fill="black"/>
<path d="M119.085 44.3424C118.956 44.5978 118.978 45.1151 119.143 45.3897C119.315 45.7025 119.788 46.124 120.332 46.4497C120.561 46.5901 120.984 46.9094 121.263 47.1521C121.872 47.6885 122.051 48.0588 121.987 48.6591C121.879 49.7446 121.127 50.2108 119.501 50.2044C118.648 50.2044 118.469 50.1852 116.17 49.8532C114.608 49.6361 114.092 49.6425 113.132 49.8979C112.581 50.0448 111.578 50.4662 111.291 50.6706C111.169 50.7536 111.176 50.7536 111.37 50.6769C111.492 50.6259 111.828 50.5109 112.122 50.4343C112.609 50.2938 112.781 50.281 113.949 50.2874C115.26 50.2938 116.506 50.4279 118.677 50.7727C119.895 50.9707 121.399 50.9707 121.879 50.7791C122.667 50.4534 123.083 49.866 123.083 49.0805C123.083 48.0844 122.467 47.1649 121.27 46.3667C120.425 45.7983 119.745 45.1598 119.422 44.6106C119.171 44.1828 119.164 44.1828 119.085 44.3424Z" fill="black"/>
<path d="M96.5475 45.9964C96.4042 46.1114 96.2895 46.271 96.2895 46.3476C96.2895 46.4689 96.2609 46.4562 96.0603 46.2518C95.8024 45.99 95.4728 45.8432 95.1576 45.8432C94.9284 45.8432 94.4126 46.1177 94.1403 46.3859C93.9254 46.5967 93.5744 46.7627 93.1374 46.8585C92.3636 47.0373 92.206 47.1905 92.206 47.7588C92.206 48.1547 92.3207 48.3655 92.7075 48.6784L93.0084 48.9146L92.5141 48.8891C92.249 48.8699 92.1057 48.8699 92.206 48.8891C92.8007 48.9721 93.1517 49.0615 93.5744 49.2339L94.0472 49.4319L94.0902 49.7575C94.1403 50.2045 94.3767 50.7984 94.649 51.1368C94.7636 51.2901 94.8496 51.4242 94.8352 51.4433C94.8138 51.4561 94.5845 51.5391 94.3123 51.6221C93.7105 51.8073 92.9153 51.8839 92.5213 51.7881C92.1774 51.7051 91.726 51.405 91.5398 51.1368C91.4108 50.958 91.4108 50.9389 91.5326 50.6387C91.6544 50.3322 91.6544 50.3195 91.4896 49.9363C91.3822 49.6681 91.3392 49.4702 91.3678 49.3233C91.3893 49.1892 91.3822 49.1126 91.3392 49.1317C91.2532 49.1828 91.2604 49.6937 91.3464 50.0449C91.4108 50.2748 91.3965 50.3578 91.2747 50.5685C91.0311 50.9899 91.1099 51.239 91.6114 51.6604C91.9911 51.9861 92.2777 52.101 92.7433 52.1202C92.9583 52.1266 93.1374 52.1521 93.1374 52.1777C93.1374 52.2096 93.1087 52.2288 93.0801 52.2288C92.9726 52.2288 92.7792 52.6055 92.7792 52.829C92.7792 53.161 92.9798 53.2951 93.6245 53.3845C94.1403 53.4612 94.1905 53.4803 94.6132 53.8315C95.2078 54.3232 95.6591 54.3935 96.2681 54.0806C96.3898 54.0167 96.5116 53.9784 96.5331 53.9976C96.5904 54.055 96.5045 55.0256 96.3898 55.5046C96.3397 55.7408 96.1964 56.0984 96.0818 56.2964L95.8812 56.6604L95.7308 56.4113C95.4012 55.843 94.8711 55.5109 93.9684 55.3002C93.6532 55.2236 93.209 55.1661 92.9726 55.1661H92.5499L93.0801 55.479C94.1762 56.1431 95.0645 57.0116 95.3725 57.7395C95.4514 57.9183 95.5445 58.3015 95.5731 58.5824C95.609 58.8634 95.6591 59.2529 95.6878 59.4509L95.7308 59.8085L95.1361 59.9106C94.8066 59.9681 94.0687 60.1022 93.4956 60.2107C91.7189 60.5492 90.107 60.8493 89.7703 60.9132C89.5912 60.9451 88.4306 61.1558 87.1912 61.3793C84.3041 61.9093 83.8814 61.9604 82.5346 61.954C80.9012 61.954 79.7693 61.7433 78.5514 61.2261C78.229 61.092 77.8063 60.8621 77.5985 60.7216C77.183 60.4279 77.1329 60.4917 77.4338 60.9195C77.9353 61.622 79.0457 62.1647 80.4857 62.4138C82.814 62.8097 85.5721 62.6564 89.8419 61.8902C91.9195 61.5198 97.4501 60.4789 99.0979 60.1469C99.4346 60.0766 99.8716 59.9936 100.065 59.9553C100.251 59.9234 100.875 59.8085 101.448 59.6999C106.061 58.8187 109.858 58.1674 112.803 57.7587C115.031 57.4458 116.528 57.3181 118.068 57.3117C119.408 57.3053 119.58 57.3181 120.06 57.4522C120.461 57.5607 120.647 57.6565 120.862 57.8608C121.22 58.1865 121.557 58.7868 121.657 59.2848C121.729 59.6424 121.708 60.364 121.607 60.6386C121.571 60.7407 121.579 60.7407 121.643 60.6514C121.751 60.4981 121.937 59.4892 121.937 59.0358C121.937 58.0907 121.672 57.4777 121.049 56.9732C120.504 56.5263 120.232 56.4752 118.57 56.4816C116.664 56.4879 114.909 56.6604 110.797 57.2478C108.64 57.548 108.103 57.6374 104.528 58.2312C101.956 58.6654 100.28 58.9592 97.6579 59.4445C96.6979 59.6169 95.8955 59.751 95.8812 59.7382C95.831 59.6935 96.003 58.4164 96.1176 57.9758C96.1749 57.7459 96.311 57.4011 96.4185 57.2095C96.6549 56.7817 96.7767 56.7434 97.7582 56.7945C98.6967 56.8392 99.2053 56.7561 99.9217 56.4432C100.352 56.2581 100.66 56.0537 101.068 55.7025C101.376 55.4343 101.562 55.2428 101.483 55.2683C100.961 55.4343 100.789 55.4407 99.714 55.3641C98.4961 55.2747 97.8871 55.3194 97.4573 55.5493C97.3212 55.6195 97.2065 55.677 97.1994 55.677C97.1922 55.677 97.1779 55.4024 97.1779 55.0703C97.1707 54.7383 97.1492 54.3935 97.1206 54.3041L97.0704 54.1444L97.3427 54.2466C98.2238 54.585 98.5749 54.4956 99.1552 53.7613C99.2196 53.6783 99.4274 53.5889 99.6853 53.5314C100.244 53.4037 100.753 53.1674 100.939 52.9567C101.154 52.7141 101.14 52.4012 100.896 52.1968C100.789 52.1074 100.674 52.0372 100.652 52.0372C100.602 52.0372 100.373 51.571 100.373 51.4753C100.373 51.4497 100.609 51.4306 100.896 51.4306C101.82 51.4242 102.143 51.1304 102.064 50.3833C102.028 50.0832 102.049 49.8405 102.135 49.5532C102.207 49.285 102.236 49.0487 102.2 48.8508C102.143 48.5123 101.878 48.0653 101.648 47.9185C101.448 47.7972 100.796 47.7908 100.352 47.9121C100.165 47.9632 100.015 47.9823 100.015 47.9632C100.015 47.9376 100.065 47.778 100.122 47.6056C100.287 47.1203 100.266 46.884 100.022 46.6669C99.9074 46.5647 99.7355 46.4817 99.6423 46.4817C99.3199 46.4753 98.4029 46.2263 97.8943 46.0028C97.2137 45.7027 96.8913 45.7027 96.5475 45.9964ZM97.6364 46.188C98.0232 46.4051 98.7683 46.6541 99.2984 46.7435C99.5564 46.7882 99.7856 46.8521 99.8143 46.8904C100.015 47.1586 99.7283 47.9249 99.2555 48.391C98.8614 48.7869 98.7468 48.8252 98.5176 48.6337C98.0949 48.2888 97.837 48.2058 97.0776 48.1611L96.3469 48.1228L96.4113 47.8929C96.44 47.7652 96.4615 47.3885 96.4472 47.05C96.4257 46.5073 96.44 46.4242 96.5833 46.2646C96.8698 45.9389 97.1564 45.9134 97.6364 46.188ZM95.6161 46.2838C96.046 46.52 96.3039 47.248 96.1463 47.8163C96.0675 48.1037 96.0388 48.142 95.874 48.142C95.7666 48.142 95.48 48.225 95.2293 48.3272C94.7564 48.5123 94.4914 48.7614 94.3481 49.1445C94.3051 49.2595 94.2621 49.3552 94.2478 49.3552C94.2406 49.3552 94.0472 49.2786 93.8251 49.1892C93.3738 49.004 92.686 48.4804 92.5141 48.1867C92.3851 47.9568 92.421 47.4779 92.5786 47.331C92.6359 47.2799 92.9368 47.1841 93.2448 47.1139C93.8824 46.9734 93.9541 46.9351 94.5344 46.4881C95 46.1241 95.2364 46.0794 95.6161 46.2838ZM101.605 48.2761C101.878 48.5698 101.942 49.087 101.784 49.617C101.72 49.8533 101.691 50.1407 101.713 50.4216C101.749 50.8431 101.741 50.875 101.562 51.0027C101.261 51.2071 100.86 51.2326 100.086 51.0921C99.714 51.0219 99.3199 50.9325 99.2125 50.8942L99.0119 50.8303L99.062 50.2364C99.0979 49.7001 99.0835 49.6107 98.9402 49.3552L98.7826 49.0743L98.9832 48.9466C99.0979 48.8763 99.3343 48.6911 99.5134 48.5315C99.7641 48.308 99.936 48.225 100.301 48.1356C100.559 48.0717 100.91 48.027 101.082 48.0334C101.347 48.0462 101.426 48.0845 101.605 48.2761ZM97.6579 48.4038C98.0662 48.5123 98.5391 48.9338 98.7755 49.4063C98.9546 49.7448 98.9617 49.7831 98.8829 50.1981C98.8328 50.4408 98.797 50.7473 98.797 50.8814C98.797 51.1943 98.4531 51.6221 98.0447 51.8265C97.4931 52.101 96.4758 52.1457 95.8597 51.9159C95.4227 51.7562 94.6633 50.9261 94.4699 50.3897C94.2478 49.7703 94.2478 49.6681 94.52 49.1828C94.7636 48.755 94.7923 48.7358 95.2723 48.5379C95.5445 48.4229 95.8167 48.3463 95.874 48.3655C95.9313 48.3846 96.0531 48.3719 96.1534 48.3335C96.3684 48.2505 97.2352 48.2952 97.6579 48.4038ZM99.6208 51.2262L100.122 51.3731L100.251 51.7243C100.33 51.935 100.481 52.1457 100.631 52.2671C100.903 52.4969 100.903 52.4842 100.796 52.6949C100.695 52.8929 100.323 53.078 99.7641 53.2185C99.0477 53.3909 98.9402 53.4484 98.7898 53.7038C98.5964 54.0486 98.3671 54.17 98.0018 54.1189C97.6865 54.0742 97.2209 53.8826 97.0991 53.7485C97.0346 53.6847 96.6477 52.465 96.6477 52.3373C96.6477 52.3182 96.8483 52.2862 97.0991 52.2607C97.794 52.1968 98.0662 52.1138 98.36 51.8775C98.5104 51.7562 98.711 51.5263 98.8041 51.3667C98.8973 51.2071 99.0047 51.0793 99.0477 51.0793C99.0835 51.0793 99.3486 51.1496 99.6208 51.2262ZM95.4155 51.8392C95.6018 51.9733 95.8454 52.1074 95.9672 52.133C96.311 52.2032 96.3612 52.2735 96.3612 52.7141C96.3612 52.9312 96.397 53.193 96.4328 53.2824C96.5761 53.6144 96.1463 53.9529 95.5731 53.9529C95.2794 53.9529 95.2149 53.9209 94.9284 53.6591C94.52 53.2951 94.3123 53.193 93.7606 53.1164C93.0944 53.0206 93.0657 53.0078 93.0657 52.7971C93.0657 52.4012 93.2377 52.2735 94.3194 51.8712C94.7135 51.7243 95.043 51.603 95.0573 51.5966C95.0717 51.5902 95.2293 51.6987 95.4155 51.8392Z" fill="black"/>
<path d="M95.8881 49.1572C95.4583 49.3296 95.2864 49.5595 95.2864 49.9554C95.2935 50.7472 95.9168 51.2644 96.7836 51.1942C97.9656 51.092 98.596 50.0895 97.9083 49.3871C97.7435 49.2147 97.6002 49.138 97.3638 49.0997C96.8194 49.0039 96.2105 49.0295 95.8881 49.1572Z" fill="black"/>
<path d="M71.3156 54.5913C69.9616 54.7446 69.2308 55.3001 68.8798 56.4432C68.7222 56.9668 68.715 58.0269 68.8726 58.6463C69.3096 60.3832 70.6135 62.018 72.1824 62.797C72.8916 63.1419 73.0206 63.1419 72.5406 62.7843C71.9245 62.3245 71.0648 61.4943 70.6851 60.9899C70.506 60.7472 70.2553 60.3257 70.1335 60.0448C69.9257 59.5914 69.9042 59.47 69.9042 58.9017C69.9042 58.1418 70.0332 57.7778 70.5777 57.0498C71.3729 55.9898 72.3973 55.5428 74.0092 55.5428C75.4635 55.5428 76.9966 55.8429 81.9971 57.1137C82.3123 57.1903 82.8425 57.3244 83.1792 57.4011C83.5159 57.4777 83.9959 57.599 84.2538 57.6629C84.8556 57.8098 87.2483 58.327 87.7642 58.4164C87.9791 58.4547 88.4161 58.5313 88.7313 58.5824C89.6913 58.7548 91.3318 58.8442 91.9623 58.7612C92.5999 58.6782 93.3664 58.3653 93.5957 58.0843C93.7318 57.9183 93.7318 57.8928 93.6387 57.7331C93.5169 57.5416 93.0297 57.3053 92.6214 57.2414C92.3635 57.1967 92.3563 57.2031 92.3635 57.3947C92.3706 57.5032 92.3276 57.631 92.2775 57.6884C92.0124 57.9694 90.6154 58.0588 89.2328 57.88C88.1367 57.7331 87.2842 57.5479 82.9643 56.4751C80.8151 55.9451 80.6288 55.9004 79.0599 55.5556C75.4779 54.7637 72.7842 54.4317 71.3156 54.5913Z" fill="black"/>
<path d="M77.5194 66.4943C77.5194 66.5263 78.2645 66.9605 78.8806 67.2861C79.9409 67.8417 82.0256 68.7357 83.4298 69.2337C87.8213 70.7918 92.435 71.5772 97.1561 71.5772C102.73 71.5772 107.666 70.6322 113.469 68.4419C114.078 68.212 113.848 68.2376 113.189 68.4675C111.599 69.0358 109.228 69.6807 107.394 70.0447C97.4355 72.0242 87.37 70.9259 78.4722 66.903C77.9493 66.6731 77.5194 66.4816 77.5194 66.4943Z" fill="black"/>
<ellipse cx="142.602" cy="29" rx="4.40858" ry="4" fill="#61358D"/>
</svg>
