<svg width="128" height="128" viewBox="0 0 128 128" fill="none" xmlns="http://www.w3.org/2000/svg">
<g clip-path="url(#clip0_101_74)">
<path d="M126.17 56.71C123.41 53.96 118.99 54.63 115.9 56.49L98.9 66.66L86.61 43.57C85.4897 41.4551 83.8139 39.6857 81.7629 38.4522C79.7119 37.2188 77.3633 36.568 74.97 36.57H71.37C73.6031 35.2807 75.4578 33.4267 76.7479 31.194C78.038 28.9613 78.7181 26.4286 78.72 23.85V14.72C78.72 10.816 77.1691 7.07192 74.4086 4.31139C71.6481 1.55085 67.904 0 64 0C60.096 0 56.3519 1.55085 53.5914 4.31139C50.8308 7.07192 49.28 10.816 49.28 14.72V23.86C49.2818 26.4386 49.962 28.9713 51.2521 31.204C52.5422 33.4367 54.3969 35.2907 56.63 36.58H53C50.6067 36.5781 48.2581 37.2288 46.2071 38.4622C44.1561 39.6957 42.4803 41.4651 41.36 43.58L29.06 66.66L12.11 56.49C8.92999 54.58 4.54999 54 1.82999 56.71C1.16577 57.3655 0.657313 58.1619 0.342169 59.0403C0.0270253 59.9187 -0.0867508 60.8567 0.0092447 61.785C0.10524 62.7133 0.408555 63.6081 0.896783 64.4035C1.38501 65.1988 2.04568 65.8743 2.82999 66.38C28.53 82.89 28.27 83.29 31.57 83.29C32.952 83.2946 34.3125 82.9473 35.5231 82.2807C36.7338 81.6141 37.7548 80.6503 38.49 79.48L45 69.85V85.55L28.86 86.76C26.6469 86.9351 24.5695 87.8961 23.0031 89.4693C21.4368 91.0425 20.4849 93.1241 20.3194 95.3379C20.154 97.5517 20.7859 99.7517 22.101 101.54C23.416 103.329 25.3275 104.588 27.49 105.09L37.85 107.53C37.2 107.79 38.72 107.71 25.39 107.71C24.72 107.71 25.39 107.18 15.5 119.02C12.72 122.31 14.5 128.02 20.27 128.02C22.04 128.02 21.27 128.16 37.92 119.84L64 113.68L90.08 119.82C106.7 128.14 106 128 107.73 128C108.537 128.071 109.35 127.965 110.112 127.689C110.874 127.412 111.566 126.973 112.14 126.4C113.115 125.44 113.695 124.149 113.763 122.782C113.832 121.415 113.384 120.073 112.51 119.02C102.64 107.18 103.28 107.71 102.61 107.71C89.28 107.71 90.81 107.79 90.14 107.53L100.51 105.09C102.673 104.587 104.584 103.327 105.899 101.538C107.213 99.7483 107.844 97.5476 107.678 95.3334C107.511 93.1193 106.558 91.0378 104.99 89.4654C103.422 87.893 101.344 86.9334 99.13 86.76L83 85.55V69.85L89.49 79.45C90.2247 80.6274 91.2477 81.598 92.462 82.2699C93.6764 82.9419 95.0421 83.2929 96.43 83.29C99.72 83.29 98.63 83.42 125.11 66.39C125.9 65.8895 126.568 65.2174 127.063 64.4237C127.558 63.63 127.868 62.7349 127.969 61.8051C128.071 60.8752 127.962 59.9343 127.651 59.0523C127.339 58.1703 126.833 57.3697 126.17 56.71V56.71ZM51.28 23.86V14.72C51.28 11.3464 52.6201 8.11106 55.0056 5.7256C57.3911 3.34014 60.6264 2 64 2C67.3735 2 70.6089 3.34014 72.9944 5.7256C75.3798 8.11106 76.72 11.3464 76.72 14.72V23.86C76.72 27.2336 75.3798 30.4689 72.9944 32.8544C70.6089 35.2399 67.3735 36.58 64 36.58C60.6264 36.58 57.3911 35.2399 55.0056 32.8544C52.6201 30.4689 51.28 27.2336 51.28 23.86V23.86ZM37.35 117.86C37.18 117.86 38.23 117.39 21.84 125.59C19.41 126.77 16.23 125.35 16.23 122.49C16.23 120.8 16.23 121.26 25.86 109.67C38.59 109.67 37.69 109.67 37.95 109.6L41.28 108.3L59.63 112.61L37.35 117.86ZM124 64.7C97.14 82 98.88 81.29 96.43 81.29C95.3763 81.2897 94.3402 81.0204 93.4197 80.5076C92.4993 79.9949 91.7249 79.2557 91.17 78.36L82.83 66C82.7103 65.822 82.5366 65.6871 82.3345 65.6154C82.1323 65.5436 81.9125 65.5388 81.7074 65.6015C81.5023 65.6643 81.3228 65.7914 81.1954 65.9639C81.068 66.1365 80.9995 66.3455 81 66.56V86.56C81.0012 86.7273 81.0444 86.8915 81.1256 87.0378C81.2068 87.184 81.3233 87.3076 81.4646 87.3971C81.6059 87.4867 81.7674 87.5393 81.9343 87.5503C82.1012 87.5613 82.2682 87.5303 82.42 87.46L99 88.76C107.14 89.44 108.19 101.24 100.07 103.15L86.87 106.25L66.76 98.43L74.52 95.43C74.768 95.3345 74.9679 95.1444 75.0757 94.9016C75.1835 94.6587 75.1905 94.383 75.095 94.135C74.9995 93.887 74.8094 93.6871 74.5666 93.5793C74.3237 93.4715 74.048 93.4645 73.8 93.56L64 97.36L54.2 93.55C53.9585 93.4766 53.6982 93.4972 53.4713 93.6077C53.2444 93.7182 53.0677 93.9104 52.9766 94.1458C52.8855 94.3811 52.8867 94.6422 52.9801 94.8767C53.0735 95.1112 53.252 95.3017 53.48 95.41L90.06 109.64C90.33 109.75 89.58 109.71 102.14 109.71C111.55 120.99 111.77 120.81 111.77 122.53C111.77 125.43 108.54 126.8 106.17 125.64C89.79 117.44 90.83 117.94 90.65 117.9L28 103.15C26.3031 102.763 24.8004 101.781 23.7631 100.384C22.7257 98.9859 22.222 97.2635 22.3427 95.5271C22.4633 93.7907 23.2005 92.1545 24.4212 90.9137C25.6419 89.6729 27.2658 88.9091 29 88.76C52.2 87.02 43.44 87.61 46 87.61C46.143 87.6112 46.2846 87.5817 46.4153 87.5236C46.5459 87.4654 46.6626 87.3799 46.7574 87.2728C46.8521 87.1656 46.9228 87.0395 46.9647 86.9027C47.0065 86.7659 47.0186 86.6218 47 86.48V66.58C47.0049 66.3638 46.9395 66.1518 46.8138 65.9758C46.688 65.7999 46.5085 65.6695 46.3024 65.6041C46.0962 65.5388 45.8744 65.542 45.6702 65.6134C45.4661 65.6848 45.2905 65.8204 45.17 66L36.81 78.39C36.2547 79.2785 35.4822 80.011 34.5654 80.5184C33.6487 81.0258 32.6178 81.2913 31.57 81.29C29.05 81.29 29.89 81.38 3.94999 64.69C3.41544 64.3495 2.96445 63.893 2.6305 63.3543C2.29655 62.8157 2.08821 62.2087 2.02097 61.5785C1.95372 60.9483 2.02928 60.311 2.24205 59.714C2.45482 59.117 2.79932 58.5756 3.24999 58.13C5.24999 56.13 8.81999 56.85 11.08 58.21C30.59 69.91 29.08 69.21 29.72 69.02C30.36 68.83 29.16 70.72 43.15 44.51C44.1009 42.7222 45.5195 41.2262 47.2543 40.1818C48.9891 39.1374 50.975 38.5837 53 38.58H75C77.03 38.5783 79.0222 39.1294 80.7628 40.1741C82.5034 41.2188 83.9267 42.7177 84.88 44.51C98.65 70.37 97.65 68.85 98.28 69C98.91 69.15 97.41 69.89 116.93 58.19C119.13 56.86 122.68 56.03 124.75 58.11C125.204 58.5591 125.55 59.1054 125.762 59.7077C125.974 60.31 126.047 60.9526 125.975 61.5871C125.903 62.2216 125.687 62.8314 125.345 63.3706C125.003 63.9098 124.543 64.3644 124 64.7V64.7Z" fill="#82AAB3" fill-opacity="0.8"/>
</g>
<defs>
<clipPath id="clip0_101_74">
<rect width="128" height="128" fill="white"/>
</clipPath>
</defs>
</svg>
